<svg width="2222" height="1356" viewBox="0 0 2222 1356" fill="none" xmlns="http://www.w3.org/2000/svg">
<ellipse cx="2005.39" cy="183.5" rx="169.392" ry="172.5" fill="url(#paint0_radial)"/>
<circle cx="2007.93" cy="181.003" r="59.9889" fill="#FFFBD2"/>
<path opacity="0.5" d="M1505.59 584.64L1598.2 459L1694.45 584.64H1660.55L1760.43 743.944H1694.45L1814 930H1370L1505.59 743.944H1430.53L1539.49 584.64H1505.59Z" fill="#472276"/>
<path opacity="0.5" d="M1788 578L1941 369L2100 578H2044L2209 843H2100L2297.5 1152.5H1564L1788 843H1664L1844 578H1788Z" fill="#472276"/>
<path opacity="0.5" d="M224 338L377 129L536 338H480L645 603H536L733.5 912.5H0L224 603H100L280 338H224Z" fill="#472276"/>
<path opacity="0.5" d="M606.153 467.652L724.423 306L847.331 467.652H804.043L931.589 672.616H847.331L1000 912H433L606.153 672.616H510.301L649.442 467.652H606.153Z" fill="#472276"/>
<path opacity="0.5" d="M1304.91 423.434L1382.71 317L1463.57 423.434H1435.09L1519 558.386H1463.57L1564 716H1191L1304.91 558.386H1241.85L1333.39 423.434H1304.91Z" fill="#472276"/>
<path d="M249.713 855.152C192.075 861.768 194.32 932.627 202.648 967.229C317.19 959.151 560.944 948.907 619.621 972.56C666.556 958.522 639.633 916.316 620.305 896.969C622.6 873.635 631.023 819.92 573.048 813.378C593.541 793.248 573.321 761.62 573.321 761.62C573.321 761.62 542.563 723.796 507.049 738.893C492.144 705.908 468.019 721.446 457.819 733.338C459.274 727.173 455.02 709.257 426.361 686.919C390.538 658.997 346.818 683.123 335.422 734.776C295.705 733.287 285.15 769.863 284.837 788.338C268.986 791.249 239.771 808.687 249.713 855.152Z" fill="#3E0247"/>
<path d="M249.713 855.152C192.075 861.768 194.32 932.627 202.648 967.229C317.19 959.151 560.944 948.907 619.621 972.56C666.556 958.522 639.633 916.316 620.305 896.969C622.6 873.635 631.023 819.92 573.048 813.378C593.541 793.248 573.321 761.62 573.321 761.62C573.321 761.62 542.563 723.796 507.049 738.893C492.144 705.908 468.019 721.446 457.819 733.338C459.274 727.173 455.02 709.257 426.361 686.919C390.538 658.997 346.818 683.123 335.422 734.776C295.705 733.287 285.15 769.863 284.837 788.338C268.986 791.249 239.771 808.687 249.713 855.152Z" fill="url(#paint1_linear)"/>
<path d="M1088.5 225.906C948.5 298.494 973.833 421.547 1004 474C985.167 419.644 975.7 318.164 1088.5 347.098C1201.3 376.032 1204 342.022 1204 310.931C1204 241.769 1258 225.906 1348 225.906C1438 225.906 1751.04 35.7648 1800 -44.395C1800 -44.395 1809.5 -185.256 1610 -44.395C1410.5 96.4663 1144.1 -19.2684 1088.5 40.6294C1027 86.3141 1004 173.877 1101.5 164.359C1199 154.841 1189 180.856 1088.5 225.906Z" fill="url(#paint2_linear)"/>
<path d="M1044.5 293V327.5M897.5 197.5L908.5 218.5M834.5 638.5L848 665M1280 422L1266 452M1090 400V422M848 354L865.5 367.5M979 474L967 491.5M880 526L897.5 549M967 610L956 628.5M1130 576L1150 610M1246 284L1239 309M1236 650.5L1246 676.5M939 776.5L931 802.5" stroke="#FFD167" stroke-width="5" stroke-linecap="round" stroke-linejoin="round"/>
<path d="M1378.4 691.312H660.302C624.694 742.35 645.465 805.555 660.302 830.777H1378.4C1399.77 778.552 1401.77 741.757 1378.4 691.312Z" fill="#232255"/>
<mask id="mask0" mask-type="alpha" maskUnits="userSpaceOnUse" x="640" y="691" width="756" height="140">
<path d="M1378.4 691.312H660.302C624.694 742.35 645.465 805.555 660.302 830.777H1378.4C1399.77 778.552 1401.77 741.757 1378.4 691.312Z" fill="#4B70A7"/>
</mask>
<g mask="url(#mask0)">
<path d="M1363.48 715.051H677.234C643.205 766.089 663.055 829.294 677.234 854.517H1363.48C1383.89 802.291 1385.8 765.496 1363.48 715.051Z" fill="#4B70A7"/>
<path d="M1363.48 715.051H677.234C643.205 766.089 663.055 829.294 677.234 854.517H1363.48C1383.89 802.291 1385.8 765.496 1363.48 715.051Z" fill="url(#paint3_linear)"/>
<path d="M759.309 744.724C751.557 710.599 766.409 658.671 771.375 631.964L1275.2 614.16C1280.62 636.91 1288.2 695.466 1275.2 747.691C1323.96 789.234 1365.45 856 1373.58 884.19H664.38C681.084 839.679 717.598 775.881 759.309 744.724Z" fill="#232255"/>
</g>
<path d="M1245.97 614.448C1082.27 587.056 875.217 603.034 792.155 614.448C743.538 684.178 806.797 868.516 826.05 970.243H1211.32C1233.87 890.35 1272.38 707.342 1245.97 614.448Z" fill="#311323"/>
<mask id="mask1" mask-type="alpha" maskUnits="userSpaceOnUse" x="774" y="599" width="481" height="372">
<path d="M1245.97 614.448C1082.27 587.056 875.217 603.034 792.155 614.448C743.538 684.178 806.797 868.516 826.05 970.243H1211.32C1233.87 890.35 1272.38 707.342 1245.97 614.448Z" fill="#5C2C2C"/>
</mask>
<g mask="url(#mask1)">
<path d="M1243.94 656.353C1070.32 628.304 871.109 644.667 783.015 656.354C766.712 695.561 823.361 916.52 843.78 1020.69H1150.57C1174.49 938.878 1271.94 751.477 1243.94 656.353Z" fill="#50282A"/>
<path d="M1243.94 656.353C1070.32 628.304 871.109 644.667 783.015 656.354C766.712 695.561 823.361 916.52 843.78 1020.69H1150.57C1174.49 938.878 1271.94 751.477 1243.94 656.353Z" fill="url(#paint4_linear)"/>
<path d="M946.279 701.696C876.973 687.291 909.067 664.081 926.991 649.767L1231.15 645.075C1226.59 680.022 1215.2 691.997 1186.34 706.021C1139.04 712.024 1015.58 716.102 946.279 701.696Z" fill="#311323"/>
</g>
<path d="M1306.19 824.843C1382.16 880.63 1418.09 1003.38 1426.99 1057.78C1348.65 1165.79 1274.54 1052.34 1246.84 982.113C1234.97 906.446 1230.23 769.057 1306.19 824.843Z" fill="#AA5D52"/>
<path d="M1306.19 824.843C1382.16 880.63 1418.09 1003.38 1426.99 1057.78C1348.65 1165.79 1274.54 1052.34 1246.84 982.113C1234.97 906.446 1230.23 769.057 1306.19 824.843Z" fill="url(#paint5_linear)"/>
<mask id="mask2" mask-type="alpha" maskUnits="userSpaceOnUse" x="1240" y="811" width="187" height="292">
<path d="M1306.19 824.842C1382.16 880.629 1418.09 1003.38 1426.99 1057.78C1348.65 1165.79 1274.54 1052.34 1246.84 982.112C1234.97 906.445 1230.23 769.056 1306.19 824.842Z" fill="#AA5D52"/>
<path d="M1306.19 824.842C1382.16 880.629 1418.09 1003.38 1426.99 1057.78C1348.65 1165.79 1274.54 1052.34 1246.84 982.112C1234.97 906.445 1230.23 769.056 1306.19 824.842Z" fill="url(#paint6_linear)"/>
</mask>
<g mask="url(#mask2)">
<path d="M1283.07 1031.07C1364.97 1012.08 1395.34 958.868 1400.28 934.635L1283.07 964.308C1274.67 968.759 1262.9 988.344 1283.07 1031.07Z" fill="#963D39"/>
</g>
<path d="M728.8 824.843C652.835 880.63 616.902 1003.38 608 1057.78C686.338 1165.79 760.451 1052.34 788.147 982.113C800.016 906.446 804.764 769.057 728.8 824.843Z" fill="#AA5D52"/>
<path d="M728.8 824.843C652.835 880.63 616.902 1003.38 608 1057.78C686.338 1165.79 760.451 1052.34 788.147 982.113C800.016 906.446 804.764 769.057 728.8 824.843Z" fill="url(#paint7_linear)"/>
<mask id="mask3" mask-type="alpha" maskUnits="userSpaceOnUse" x="608" y="811" width="187" height="292">
<path d="M728.8 824.843C652.835 880.63 616.902 1003.38 608 1057.78C686.338 1165.79 760.451 1052.34 788.147 982.113C800.016 906.446 804.764 769.057 728.8 824.843Z" fill="#AA5D52"/>
<path d="M728.8 824.843C652.835 880.63 616.902 1003.38 608 1057.78C686.338 1165.79 760.451 1052.34 788.147 982.113C800.016 906.446 804.764 769.057 728.8 824.843Z" fill="url(#paint8_linear)"/>
</mask>
<g mask="url(#mask3)">
<path d="M769.721 1028.11C699.691 1030.48 623.826 951.945 605.033 922.766L781.59 974.694C786.042 978.651 789.899 994.872 769.721 1028.11Z" fill="#963D39"/>
</g>
<path d="M740.047 1047.39C674.766 986.86 625.804 1028.6 608 1057.78C619.869 1163.42 688.119 1209.12 722.243 1218.02C710.868 1227.41 692.866 1262.82 711.858 1329.29C656.961 1335.23 656.961 1350.06 659.929 1356L753.401 1345.61L809.78 1210.6C802.362 1173.51 778.03 1088.94 740.047 1047.39Z" fill="#B5705F"/>
<path d="M740.047 1047.39C674.766 986.86 625.804 1028.6 608 1057.78C619.869 1163.42 688.119 1209.12 722.243 1218.02C710.868 1227.41 692.866 1262.82 711.858 1329.29C656.961 1335.23 656.961 1350.06 659.929 1356L753.401 1345.61L809.78 1210.6C802.362 1173.51 778.03 1088.94 740.047 1047.39Z" fill="url(#paint9_linear)"/>
<path d="M1294.94 1047.39C1360.23 986.86 1409.19 1028.6 1426.99 1057.78C1415.12 1163.42 1346.87 1209.12 1312.75 1218.02C1324.12 1227.41 1342.12 1262.82 1323.13 1329.29C1378.03 1335.23 1378.03 1350.06 1375.06 1356L1281.59 1345.61L1225.21 1210.6C1232.63 1173.51 1256.96 1088.94 1294.94 1047.39Z" fill="#B5705F"/>
<path d="M1294.94 1047.39C1360.23 986.86 1409.19 1028.6 1426.99 1057.78C1415.12 1163.42 1346.87 1209.12 1312.75 1218.02C1324.12 1227.41 1342.12 1262.82 1323.13 1329.29C1378.03 1335.23 1378.03 1350.06 1375.06 1356L1281.59 1345.61L1225.21 1210.6C1232.63 1173.51 1256.96 1088.94 1294.94 1047.39Z" fill="url(#paint10_linear)"/>
<path d="M751.917 1179.44C705.001 1118.09 850.829 853.527 935.893 723.952H1125.8C1205.43 858.472 1332.37 1125.42 1289.01 1179.44C1198.5 1292.2 829.068 1280.33 751.917 1179.44Z" fill="#F5F5F5"/>
<path d="M751.917 1179.44C705.001 1118.09 850.829 853.527 935.893 723.952H1125.8C1205.43 858.472 1332.37 1125.42 1289.01 1179.44C1198.5 1292.2 829.068 1280.33 751.917 1179.44Z" fill="url(#paint11_linear)"/>
<mask id="mask4" mask-type="alpha" maskUnits="userSpaceOnUse" x="742" y="723" width="556" height="537">
<path d="M751.917 1179.44C705.001 1118.09 850.829 853.527 935.893 723.952H1125.8C1205.43 858.472 1332.37 1125.42 1289.01 1179.44C1198.5 1292.2 829.068 1280.33 751.917 1179.44Z" fill="#F5F5F5"/>
<path d="M751.917 1179.44C705.001 1118.09 850.829 853.527 935.893 723.952H1125.8C1205.43 858.472 1332.37 1125.42 1289.01 1179.44C1198.5 1292.2 829.068 1280.33 751.917 1179.44Z" fill="url(#paint12_linear)"/>
</mask>
<g mask="url(#mask4)">
<path d="M1016.01 810.006C1011.56 847.592 1005.33 930.481 1016.01 961.341C1026.69 992.202 1020.46 1081.02 1016.01 1121.58L1024.91 1170.54L1016.01 1200.21L1024.91 1264.01" stroke="#CBAFBB" stroke-linecap="round" stroke-linejoin="round"/>
<path d="M1016.01 810.006C1011.56 847.592 1005.33 930.481 1016.01 961.341C1026.69 992.202 1020.46 1081.02 1016.01 1121.58L1024.91 1170.54L1016.01 1200.21L1024.91 1264.01" stroke="url(#paint13_linear)" stroke-linecap="round" stroke-linejoin="round"/>
<circle cx="1030.85" cy="885.673" r="7.4184" fill="#CBAFBB"/>
<circle cx="1036.78" cy="998.433" r="7.4184" fill="#CBAFBB"/>
<circle cx="1036.78" cy="1131.96" r="7.4184" fill="#CBAFBB"/>
<path d="M1005.63 827.81C986.635 823.062 947.268 793.685 937.377 784.783L1113.93 744.724C1108.99 759.066 1074.47 811.192 1005.63 827.81Z" fill="#CBAFBB"/>
<path d="M924.024 1173.51C844.498 1183 762.303 1138.89 726.694 1111.19L924.024 899.026C914.627 935.624 907.703 1093.39 924.024 1173.51Z" fill="#AB90A0"/>
<path d="M1112.45 1170.54C1191.98 1180.04 1274.17 1135.92 1309.78 1108.23L1112.45 896.06C1121.85 932.657 1128.77 1090.42 1112.45 1170.54Z" fill="#AB90A0"/>
<path d="M858.008 1092.44C857.746 1092.26 857.495 1092.08 857.258 1091.91L858.008 1092.44C882.259 1109.35 1014.63 1172.95 1088.71 1177.71C1045.14 1200.6 979.793 1175.21 952.563 1159.65L858.008 1092.44Z" fill="#AB90A0"/>
<path d="M858.008 1092.44C857.746 1092.26 857.495 1092.08 857.258 1091.91L858.008 1092.44C882.259 1109.35 1014.63 1172.95 1088.71 1177.71C1045.14 1200.6 979.793 1175.21 952.563 1159.65L858.008 1092.44Z" fill="url(#paint14_linear)"/>
<path d="M1029.36 1114.95C1072.21 1114.95 1106.26 1085.44 1117.93 1070.69L1204.44 1059.26C1165.99 1084.96 1077.15 1132.08 1029.36 1114.95Z" fill="#CBAFBB"/>
</g>
<path d="M631.739 926.18C771.094 708.717 885.649 687.948 925.507 704.746C861.735 713.298 783.79 914.981 752.789 1014.75C722.281 1007.12 655.358 978.714 631.739 926.18Z" fill="#871E31"/>
<mask id="mask5" mask-type="alpha" maskUnits="userSpaceOnUse" x="631" y="700" width="295" height="315">
<path d="M631.739 926.18C771.094 708.717 885.649 687.948 925.507 704.746C861.735 713.298 783.79 914.981 752.789 1014.75C722.281 1007.12 655.358 978.714 631.739 926.18Z" fill="#AE3539"/>
<path d="M631.739 926.18C771.094 708.717 885.649 687.948 925.507 704.746C861.735 713.298 783.79 914.981 752.789 1014.75C722.281 1007.12 655.358 978.714 631.739 926.18Z" fill="url(#paint15_linear)"/>
</mask>
<g mask="url(#mask5)">
<path d="M625.804 912.38C781.556 708.504 890.399 679.745 929.993 698.799C864.421 703.011 772.286 895.442 734.414 991.131C703.78 981.661 646.597 965.371 625.804 912.38Z" fill="#AE3539"/>
<path d="M625.804 912.38C781.556 708.504 890.399 679.745 929.993 698.799C864.421 703.011 772.286 895.442 734.414 991.131C703.78 981.661 646.597 965.371 625.804 912.38Z" fill="url(#paint16_linear)"/>
<path d="M790.883 922.765C760.929 843.615 824.332 739.44 859.777 697.246H907.703C900.714 709.856 867.565 772.613 790.883 922.765Z" fill="#50282A"/>
<path d="M790.883 922.765C760.929 843.615 824.332 739.44 859.777 697.246H907.703C900.714 709.856 867.565 772.613 790.883 922.765Z" fill="url(#paint17_linear)"/>
</g>
<path d="M1403.25 925.344C1263.9 705.829 1149.34 684.864 1109.48 701.821C1173.26 710.454 1251.2 914.04 1282.2 1014.75C1312.71 1007.05 1379.63 978.373 1403.25 925.344Z" fill="#871E31"/>
<mask id="mask6" mask-type="alpha" maskUnits="userSpaceOnUse" x="1109" y="700" width="295" height="315">
<path d="M1403.25 926.18C1263.9 708.717 1149.34 687.948 1109.48 704.746C1173.26 713.298 1251.2 914.981 1282.2 1014.75C1312.71 1007.12 1379.63 978.714 1403.25 926.18Z" fill="#AE3539"/>
<path d="M1403.25 926.18C1263.9 708.717 1149.34 687.948 1109.48 704.746C1173.26 713.298 1251.2 914.981 1282.2 1014.75C1312.71 1007.12 1379.63 978.714 1403.25 926.18Z" fill="url(#paint18_linear)"/>
</mask>
<g mask="url(#mask6)">
<path d="M1409.19 912.38C1253.43 708.504 1144.59 679.745 1105 698.799C1170.57 703.011 1262.71 895.442 1300.58 991.131C1331.21 981.661 1388.39 965.371 1409.19 912.38Z" fill="url(#paint19_linear)"/>
<path d="M1232.24 907.928C1262.19 828.778 1198.79 724.603 1163.34 682.409H1115.42C1122.41 695.019 1155.56 757.776 1232.24 907.928Z" fill="#50282A"/>
<path d="M1232.24 907.928C1262.19 828.778 1198.79 724.603 1163.34 682.409H1115.42C1122.41 695.019 1155.56 757.776 1232.24 907.928Z" fill="url(#paint20_linear)"/>
</g>
<path d="M931.933 1161C918.946 848.748 965.725 733.955 987.822 725.8C987.822 709.453 969.673 697.246 920.949 697.246C830.928 697.246 735.366 1024.61 724.15 1078.36C723.845 1079.82 724.245 1081.11 725.249 1082.22C746.949 1106.08 834.602 1162.3 929.932 1163.11C931.07 1163.12 931.981 1162.13 931.933 1161Z" fill="#AE3539"/>
<path d="M931.933 1161C918.946 848.748 965.725 733.955 987.822 725.8C987.822 709.453 969.673 697.246 920.949 697.246C830.928 697.246 735.366 1024.61 724.15 1078.36C723.845 1079.82 724.245 1081.11 725.249 1082.22C746.949 1106.08 834.602 1162.3 929.932 1163.11C931.07 1163.12 931.981 1162.13 931.933 1161Z" fill="url(#paint21_linear)"/>
<mask id="mask7" mask-type="alpha" maskUnits="userSpaceOnUse" x="724" y="697" width="264" height="467">
<path d="M931.933 1161C918.946 848.748 965.725 733.955 987.822 725.8C987.822 709.453 969.673 697.246 920.949 697.246C830.928 697.246 735.366 1024.61 724.15 1078.36C723.845 1079.82 724.245 1081.11 725.249 1082.22C746.949 1106.08 834.602 1162.3 929.932 1163.11C931.07 1163.12 931.981 1162.13 931.933 1161Z" fill="#AE3539"/>
<path d="M931.933 1161C918.946 848.748 965.725 733.955 987.822 725.8C987.822 709.453 969.673 697.246 920.949 697.246C830.928 697.246 735.366 1024.61 724.15 1078.36C723.845 1079.82 724.245 1081.11 725.249 1082.22C746.949 1106.08 834.602 1162.3 929.932 1163.11C931.07 1163.12 931.981 1162.13 931.933 1161Z" fill="url(#paint22_linear)"/>
</mask>
<g mask="url(#mask7)">
<path d="M931.933 1161C918.946 848.748 965.725 733.955 987.822 725.8C987.822 709.453 969.673 697.246 920.949 697.246C830.928 697.246 735.366 1024.61 724.15 1078.36C723.845 1079.82 724.245 1081.11 725.249 1082.22C746.949 1106.08 834.602 1162.3 929.932 1163.11C931.07 1163.12 931.981 1162.13 931.933 1161Z" fill="#AE3539"/>
<path d="M931.933 1161C918.946 848.748 965.725 733.955 987.822 725.8C987.822 709.453 969.673 697.246 920.949 697.246C830.928 697.246 735.366 1024.61 724.15 1078.36C723.845 1079.82 724.245 1081.11 725.249 1082.22C746.949 1106.08 834.602 1162.3 929.932 1163.11C931.07 1163.12 931.981 1162.13 931.933 1161Z" fill="url(#paint23_linear)"/>
<path d="M977.436 807.039C941.828 808.226 896.823 730.877 885.448 707.632V679.442H964.083C964.083 688.839 977.436 752.439 977.436 807.039Z" fill="#8F1A48"/>
<path d="M905.221 733.642C892.561 711.77 905.52 706.2 913.582 706.149C922.009 713.718 936.804 733.861 928.569 753.883C920.334 773.906 901.908 773.934 893.725 771.445C902.832 767.958 917.881 755.514 905.221 733.642Z" fill="#8F1A48"/>
</g>
<path d="M1099.78 1161C1112.69 852.746 1066.17 739.421 1044.2 731.371C1044.2 715.232 1062.25 703.181 1110.7 703.181C1200.19 703.181 1295.19 1026.2 1306.38 1079.4C1306.69 1080.87 1306.29 1082.17 1305.27 1083.28C1283.65 1106.85 1196.53 1162.3 1101.78 1163.11C1100.64 1163.12 1099.73 1162.13 1099.78 1161Z" fill="#AE3539"/>
<path d="M1099.78 1161C1112.69 852.746 1066.17 739.421 1044.2 731.371C1044.2 715.232 1062.25 703.181 1110.7 703.181C1200.19 703.181 1295.19 1026.2 1306.38 1079.4C1306.69 1080.87 1306.29 1082.17 1305.27 1083.28C1283.65 1106.85 1196.53 1162.3 1101.78 1163.11C1100.64 1163.12 1099.73 1162.13 1099.78 1161Z" fill="url(#paint24_linear)"/>
<mask id="mask8" mask-type="alpha" maskUnits="userSpaceOnUse" x="1044" y="703" width="263" height="461">
<path d="M1099.78 1161C1112.69 852.747 1066.17 739.422 1044.2 731.372C1044.2 715.233 1062.25 703.182 1110.7 703.182C1200.19 703.182 1295.19 1026.21 1306.38 1079.4C1306.69 1080.87 1306.29 1082.17 1305.27 1083.28C1283.65 1106.85 1196.53 1162.31 1101.78 1163.11C1100.64 1163.12 1099.73 1162.13 1099.78 1161Z" fill="#AE3539"/>
<path d="M1099.78 1161C1112.69 852.747 1066.17 739.422 1044.2 731.372C1044.2 715.233 1062.25 703.182 1110.7 703.182C1200.19 703.182 1295.19 1026.21 1306.38 1079.4C1306.69 1080.87 1306.29 1082.17 1305.27 1083.28C1283.65 1106.85 1196.53 1162.31 1101.78 1163.11C1100.64 1163.12 1099.73 1162.13 1099.78 1161Z" fill="url(#paint25_linear)"/>
</mask>
<g mask="url(#mask8)">
<path d="M1136.19 729.888C1176.55 766.683 1199 759.067 1197.02 749.176L1179.22 729.888L1118.39 680.927L1050.14 807.04C1072.89 803.578 1124.32 752.44 1136.19 729.888Z" fill="#871E31"/>
<path d="M1127.19 733.643C1139.85 711.771 1126.89 706.201 1118.83 706.15C1110.4 713.719 1095.6 733.862 1103.84 753.884C1112.07 773.907 1130.5 773.935 1138.68 771.446C1129.58 767.959 1114.53 755.515 1127.19 733.643Z" fill="#871E31"/>
<path d="M1124.32 841.163C1137.67 835.229 1172.99 822.469 1207.41 818.908C1183.67 853.33 1142.12 848.087 1124.32 841.163Z" fill="#871E31"/>
</g>
<path d="M1207.22 818.908C1189.85 836.872 1144.72 841.362 1124.32 841.362C1136.95 903.543 1173.01 913.331 1189.45 910.452C1207.22 908.725 1235.64 887.998 1207.22 818.908Z" fill="#871E31"/>
<path d="M1207.22 818.908C1189.85 836.872 1144.72 841.362 1124.32 841.362C1136.95 903.543 1173.01 913.331 1189.45 910.452C1207.22 908.725 1235.64 887.998 1207.22 818.908Z" fill="url(#paint26_linear)"/>
<path d="M904.736 695.762C935.399 678.453 1028.77 648.284 1139.16 689.827C1073.88 755.109 954.192 722.963 904.736 695.762Z" fill="#D07039"/>
<path d="M1098.33 356.242C1031.04 352.668 1008.49 389.5 1005.63 408.363C1046.26 410.348 1121.68 425.339 1098.33 469.417C1074.99 513.496 1104.5 558.724 1130.26 571.134C1111.94 585.032 1116.8 625.778 1152.51 649.604C1217.06 687.727 1202.96 689.828 1199.99 695.763C1213.34 686.861 1219.28 664.618 1185.89 649.604C1148.81 632.926 1161.29 611.879 1172.16 603.441L1204.78 578.125C1213.93 570.183 1218.51 547.151 1163.57 518.559C1153.96 510.22 1156.13 482.323 1158.42 469.417C1166.44 433.182 1165.63 359.816 1098.33 356.242Z" fill="#340505"/>
<path d="M1098.33 356.242C1031.04 352.668 1008.49 389.5 1005.63 408.363C1046.26 410.348 1121.68 425.339 1098.33 469.417C1074.99 513.496 1104.5 558.724 1130.26 571.134C1111.94 585.032 1116.8 625.778 1152.51 649.604C1217.06 687.727 1202.96 689.828 1199.99 695.763C1213.34 686.861 1219.28 664.618 1185.89 649.604C1148.81 632.926 1161.29 611.879 1172.16 603.441L1204.78 578.125C1213.93 570.183 1218.51 547.151 1163.57 518.559C1153.96 510.22 1156.13 482.323 1158.42 469.417C1166.44 433.182 1165.63 359.816 1098.33 356.242Z" fill="url(#paint27_linear)"/>
<path d="M863.193 583.102C863.193 545.12 913.044 557.78 913.044 570.441L925.507 628.997C900.582 621.084 863.193 624.249 863.193 583.102Z" fill="#B5705F"/>
<path d="M863.193 583.102C863.193 545.12 913.044 557.78 913.044 570.441L925.507 628.997C900.582 621.084 863.193 624.249 863.193 583.102Z" fill="url(#paint28_linear)"/>
<path d="M1165.86 583.102C1165.86 545.12 1116.01 557.78 1116.01 570.441L1103.55 628.997C1128.47 621.084 1165.86 624.249 1165.86 583.102Z" fill="#B5705F"/>
<path d="M1165.86 583.102C1165.86 545.12 1116.01 557.78 1116.01 570.441L1103.55 628.997C1128.47 621.084 1165.86 624.249 1165.86 583.102Z" fill="url(#paint29_linear)"/>
<path d="M968.534 715.051V673.508H1063.49V715.051C1030.26 737.603 986.338 724.447 968.534 715.051Z" fill="#963D39"/>
<ellipse cx="1014.53" cy="554.813" rx="112.76" ry="136.499" fill="#B5705F"/>
<ellipse cx="1014.53" cy="554.813" rx="112.76" ry="136.499" fill="url(#paint30_linear)"/>
<mask id="mask9" mask-type="alpha" maskUnits="userSpaceOnUse" x="901" y="418" width="227" height="274">
<ellipse cx="1014.53" cy="554.813" rx="112.76" ry="136.499" fill="#B5705F"/>
</mask>
<g mask="url(#mask9)">
<path d="M1085.74 520.689C1014.59 508.873 1002 438.113 1006.69 408.026C1015.01 381.221 1054.98 344.729 1143.61 452.385C1185.49 503.259 1150.92 568.986 1122.84 565.199C1102.55 562.464 1081.29 554.813 1085.74 520.689Z" fill="#963D39"/>
<path d="M985.222 497.107C1027.48 474.308 1034.02 452.608 1032.01 444.609C1032.01 441.109 1028.99 428.409 1016.92 405.609C974.657 347.111 834.287 489.608 884.096 509.107C862.361 524.707 875.04 537.607 884.096 542.106C907.239 549.606 959.865 551.106 985.222 497.107Z" fill="#963D39"/>
<path d="M937.153 574.911C917.884 535.666 912.238 526.863 923.865 516.036C940.475 503.854 955.756 500.2 897.289 509.945C838.822 519.69 858.532 551.903 875.696 566.791C889.738 578.972 894.404 586.203 882.34 594.324C827.859 618.687 866.803 641.093 882.34 647.999C900.611 656.12 933.166 663.835 903.933 670.332C860.746 680.483 888.984 704.845 903.933 717.026C915.892 726.771 915.56 736.187 910.577 747.692C921.65 730.773 931.838 716.214 910.577 704.845C889.316 693.476 897.289 686.573 903.933 684.543C928.896 672.483 952.214 655.703 929.958 631.965C921.771 623.231 912.154 610.557 924.024 603.775C934.409 597.84 943.312 587.454 937.153 574.911Z" fill="#963D39"/>
<path d="M1094.65 567.171C1128.31 537.758 1116.1 527 1104.77 516.106C1100.28 511.787 1096.9 501.401 1130.67 509.979C1186.7 524.213 1168.44 552.192 1151.71 567.171C1138.03 579.426 1133.48 586.702 1145.24 594.872C1198.33 619.383 1160.38 641.927 1145.24 648.874C1127.43 657.045 1095.71 664.807 1124.19 671.343C1166.28 681.556 1138.76 706.067 1124.19 718.323C1112.54 728.127 1119.34 733.15 1124.19 744.724C1113.4 727.703 1097 717.506 1117.72 706.067C1138.44 694.629 1128.3 691.462 1124.19 685.641C1117.72 676.475 1073.88 652.736 1097.61 630.481C1107.6 621.116 1115.42 612.677 1109.48 606.742C1097.67 594.932 1078.33 587.454 1094.65 567.171Z" fill="#963D39"/>
</g>
<path d="M981.887 620.095C990.789 626.029 1015.72 634.338 1044.2 620.095C1033.52 656.89 1010.08 651.252 999.691 643.834" stroke="#491317" stroke-width="2" stroke-linecap="round" stroke-linejoin="round"/>
<ellipse cx="975.952" cy="574.101" rx="5.93472" ry="16.3205" fill="#431410"/>
<ellipse cx="1044.2" cy="574.101" rx="5.93472" ry="16.3205" fill="#431410"/>
<ellipse cx="969.264" cy="536.067" rx="22.2552" ry="8.90208" transform="rotate(-5.3204 969.264 536.067)" fill="#491317"/>
<ellipse cx="1050.93" cy="535.59" rx="22.2552" ry="8.90208" transform="rotate(2.48005 1050.93 535.59)" fill="#491317"/>
<path d="M1008.59 832.261C955.181 815.644 913.638 730.382 903.252 689.828C1001.76 733.392 1104.06 702.754 1139.16 689.828C1122.34 724.942 1072.69 802.588 1008.59 832.261Z" fill="#FCCB5A"/>
<path d="M1008.59 832.261C955.181 815.644 913.638 730.382 903.252 689.828C1001.76 733.392 1104.06 702.754 1139.16 689.828C1122.34 724.942 1072.69 802.588 1008.59 832.261Z" fill="url(#paint31_linear)"/>
<path d="M1023.06 795.011C1042.29 793.503 1104.51 725.25 1133.22 691.312C1105.18 714.565 1047.09 762.959 1039.08 770.5C1031.07 778.042 991.679 781.185 972.985 781.813C981.665 786.841 1003.83 796.52 1023.06 795.011Z" fill="#D07039"/>
<path d="M1023.06 795.011C1042.29 793.503 1104.51 725.25 1133.22 691.312C1105.18 714.565 1047.09 762.959 1039.08 770.5C1031.07 778.042 991.679 781.185 972.985 781.813C981.665 786.841 1003.83 796.52 1023.06 795.011Z" fill="url(#paint32_linear)"/>
<path d="M963.004 742.604L916.605 691.312L963.004 727.406C971.704 736.324 1000.12 754.508 1044.2 755.902C1014.04 766.54 977.504 751.469 963.004 742.604Z" fill="#D07039"/>
<path d="M963.004 742.604L916.605 691.312L963.004 727.406C971.704 736.324 1000.12 754.508 1044.2 755.902C1014.04 766.54 977.504 751.469 963.004 742.604Z" fill="url(#paint33_linear)"/>
<path d="M1124.32 694.585C1132.01 674.285 1163.56 635.257 1228.18 641.543C1216.31 699.693 1153.99 701.133 1124.32 694.585Z" fill="#D07039"/>
<rect x="1119.96" y="676.475" width="29.1356" height="18.5515" rx="9.27575" transform="rotate(14.1798 1119.96 676.475)" fill="#D07039"/>
<path d="M1122.93 696.025C1141.15 684.222 1189.68 671.448 1238.03 714.779C1194.03 754.61 1142.96 718.873 1122.93 696.025Z" fill="#FCCB5A"/>
<path d="M1122.93 696.025C1141.15 684.222 1189.68 671.448 1238.03 714.779C1194.03 754.61 1142.96 718.873 1122.93 696.025Z" fill="url(#paint34_linear)"/>
<path d="M943.528 557.106C914.89 528.683 922.049 509.059 932.073 498.231C946.392 486.049 959.565 482.395 909.162 492.14C858.76 501.885 875.751 534.098 890.548 548.986C902.653 561.167 906.675 568.399 896.275 576.519C849.309 600.882 882.882 623.289 896.275 630.194C912.026 638.315 940.091 646.03 914.89 652.527C877.66 662.678 902.003 687.04 914.89 699.221C925.199 708.966 924.913 718.382 920.618 729.887C930.164 712.968 938.946 698.41 920.617 687.04C902.289 675.671 909.162 668.769 914.89 666.738C936.41 654.678 945.698 640.783 920.617 624.104C902.283 611.912 909.162 611.912 914.89 605.832C927.777 597.711 954.983 568.476 943.528 557.106Z" fill="#340505"/>
<mask id="mask10" mask-type="alpha" maskUnits="userSpaceOnUse" x="872" y="486" width="75" height="244">
<path d="M943.528 557.106C914.89 528.683 922.05 509.059 932.073 498.231C946.392 486.049 959.565 482.395 909.162 492.14C858.76 501.885 875.751 534.098 890.548 548.986C902.653 561.167 901.996 572.617 896.275 575.584C849.309 599.947 882.882 623.289 896.275 630.194C912.026 638.315 940.091 646.03 914.89 652.527C877.66 662.678 902.003 687.04 914.89 699.221C925.199 708.966 924.913 718.382 920.618 729.887C930.164 712.968 938.946 698.41 920.617 687.04C902.289 675.671 909.162 668.769 914.89 666.738C936.41 654.678 945.698 640.783 920.617 624.104C902.284 611.912 909.162 611.912 914.89 605.832C927.777 597.711 954.983 568.476 943.528 557.106Z" fill="#491317"/>
</mask>
<g mask="url(#mask10)">
<path d="M930.737 557.106C902.099 528.683 909.259 509.059 919.282 498.231C933.601 486.049 946.775 482.395 896.372 492.14C845.969 501.885 862.961 534.098 877.757 548.986C889.863 561.167 893.885 568.399 883.485 576.519C836.519 600.882 870.091 623.289 883.485 630.194C899.236 638.315 927.301 646.03 902.099 652.527C864.87 662.678 889.213 687.04 902.099 699.221C912.409 708.966 923.578 710.964 919.282 722.469C928.828 705.55 928.794 692.295 910.466 680.925C892.137 669.556 913.555 654.557 919.282 652.527C940.802 640.466 932.908 640.783 907.827 624.104C889.493 611.912 896.372 611.912 902.099 605.832C914.986 597.711 942.192 568.476 930.737 557.106Z" fill="#491317"/>
<path d="M930.737 557.106C902.099 528.683 909.259 509.059 919.282 498.231C933.601 486.049 946.775 482.395 896.372 492.14C845.969 501.885 862.961 534.098 877.757 548.986C889.863 561.167 893.885 568.399 883.485 576.519C836.519 600.882 870.091 623.289 883.485 630.194C899.236 638.315 927.301 646.03 902.099 652.527C864.87 662.678 889.213 687.04 902.099 699.221C912.409 708.966 923.578 710.964 919.282 722.469C928.828 705.55 928.794 692.295 910.466 680.925C892.137 669.556 913.555 654.557 919.282 652.527C940.802 640.466 932.908 640.783 907.827 624.104C889.493 611.912 896.372 611.912 902.099 605.832C914.986 597.711 942.192 568.476 930.737 557.106Z" fill="url(#paint35_linear)"/>
</g>
<path d="M1091.68 549.367C1125.35 519.953 1113.13 509.196 1101.8 498.302C1097.31 493.982 1093.93 483.596 1127.7 492.174C1183.73 506.408 1165.47 534.388 1148.74 549.367C1135.06 561.622 1130.51 568.897 1142.27 577.068C1195.36 601.579 1157.41 624.122 1142.27 631.07C1124.46 639.24 1092.74 647.002 1121.23 653.539C1163.31 663.752 1135.79 688.262 1121.23 700.518C1109.57 710.322 1116.37 715.345 1121.23 726.92C1110.44 709.898 1094.03 699.701 1114.75 688.263C1135.47 676.824 1128.25 669.019 1121.23 667.837C1096.95 663.751 1082.38 631.07 1114.75 624.942C1140.65 620.04 1129.86 610.644 1121.23 606.559C1106.66 598.389 1075.36 569.65 1091.68 549.367Z" fill="#340505"/>
<mask id="mask11" mask-type="alpha" maskUnits="userSpaceOnUse" x="1087" y="488" width="83" height="239">
<path d="M1091.68 549.367C1125.35 519.953 1113.13 509.196 1101.8 498.302C1097.31 493.982 1093.93 483.596 1127.7 492.174C1183.73 506.408 1165.47 534.388 1148.74 549.367C1135.06 561.622 1130.51 568.897 1142.27 577.068C1195.36 601.579 1157.41 624.122 1142.27 631.07C1124.46 639.24 1092.74 647.002 1121.23 653.539C1163.31 663.752 1135.79 688.262 1121.23 700.518C1109.57 710.322 1116.37 715.345 1121.23 726.92C1110.44 709.898 1094.03 699.701 1114.75 688.263C1135.47 676.824 1128.25 669.019 1121.23 667.837C1096.95 663.751 1082.38 631.07 1114.75 624.942C1140.65 620.04 1129.86 610.644 1121.23 606.559C1106.66 598.389 1075.36 569.65 1091.68 549.367Z" fill="#491317"/>
</mask>
<g mask="url(#mask11)">
<path d="M1103.55 549.367C1137.22 519.953 1125 509.196 1113.67 498.302C1109.18 493.982 1105.8 483.596 1139.57 492.174C1195.6 506.408 1177.34 534.388 1160.61 549.367C1146.93 561.622 1142.38 568.897 1154.14 577.068C1207.23 601.579 1169.28 624.122 1154.14 631.07C1136.33 639.24 1104.61 647.002 1133.1 653.539C1175.18 663.752 1147.66 688.262 1133.1 700.518C1121.44 710.322 1128.24 715.345 1133.1 726.92C1122.31 709.898 1096.18 699.782 1116.9 688.344C1137.62 676.905 1129.86 661.336 1122.84 660.154C1098.56 656.069 1090.47 630.673 1122.84 624.546C1148.73 619.644 1141.73 610.644 1133.1 606.559C1118.53 598.389 1087.23 569.65 1103.55 549.367Z" fill="#491317"/>
<path d="M1103.55 549.367C1137.22 519.953 1125 509.196 1113.67 498.302C1109.18 493.982 1105.8 483.596 1139.57 492.174C1195.6 506.408 1177.34 534.388 1160.61 549.367C1146.93 561.622 1142.38 568.897 1154.14 577.068C1207.23 601.579 1169.28 624.122 1154.14 631.07C1136.33 639.24 1104.61 647.002 1133.1 653.539C1175.18 663.752 1147.66 688.262 1133.1 700.518C1121.44 710.322 1128.24 715.345 1133.1 726.92C1122.31 709.898 1096.18 699.782 1116.9 688.344C1137.62 676.905 1129.86 661.336 1122.84 660.154C1098.56 656.069 1090.47 630.673 1122.84 624.546C1148.73 619.644 1141.73 610.644 1133.1 606.559C1118.53 598.389 1087.23 569.65 1103.55 549.367Z" fill="url(#paint36_linear)"/>
</g>
<path d="M987.245 488.572C1033.02 465.944 1040.1 444.408 1037.92 436.468C1037.92 432.994 1034.65 420.39 1021.57 397.762C975.802 339.703 842.33 466.328 873.12 494.306C853.125 514.635 867.912 528.767 877.72 533.233C902.785 540.676 959.782 542.165 987.245 488.572Z" fill="#340505"/>
<mask id="mask12" mask-type="alpha" maskUnits="userSpaceOnUse" x="863" y="380" width="176" height="158">
<path d="M987.245 488.205C1033.02 465.405 1040.1 443.706 1037.92 435.706C1037.92 432.206 1034.65 419.506 1021.57 396.707C975.802 338.208 840.93 458.374 867.522 499.917C857.725 511.786 867.912 528.704 877.72 533.204C902.786 540.704 959.782 542.204 987.245 488.205Z" fill="#491317"/>
</mask>
<g mask="url(#mask12)">
<path d="M968.586 484.695C1009.62 462.647 1015.97 441.663 1014.02 433.927C1014.02 430.542 1016.33 411.896 1004.61 389.848C963.569 333.277 810.76 478.094 859.124 496.951C838.02 512.036 861.598 518.93 870.391 523.282C892.864 530.534 943.964 536.914 968.586 484.695Z" fill="#491317"/>
<path d="M968.586 484.695C1009.62 462.647 1015.97 441.663 1014.02 433.927C1014.02 430.542 1016.33 411.896 1004.61 389.848C963.569 333.277 810.76 478.094 859.124 496.951C838.02 512.036 861.598 518.93 870.391 523.282C892.864 530.534 943.964 536.914 968.586 484.695Z" fill="url(#paint37_linear)"/>
<path d="M1078.67 494.38C1009.99 484.22 1001.86 429.936 1006.38 404.063C1014.41 381.014 1052.98 349.634 1138.53 442.209C1178.95 485.956 1147.94 537.151 1120.83 533.894C1101.26 531.542 1065.41 520.347 1078.67 494.38Z" fill="#340505"/>
</g>
<path d="M1087.52 511.628C1016.37 499.812 1007.94 436.684 1012.62 406.597C1020.94 379.793 1060.91 343.3 1149.54 450.956C1191.43 501.831 1159.3 561.366 1131.21 557.578C1110.93 554.843 1073.79 541.824 1087.52 511.628Z" fill="#340505"/>
<mask id="mask13" mask-type="alpha" maskUnits="userSpaceOnUse" x="1011" y="378" width="159" height="180">
<path d="M1087.52 511.628C1016.37 499.812 1007.94 436.684 1012.62 406.597C1020.94 379.793 1060.91 343.3 1149.54 450.956C1191.43 501.831 1159.3 561.366 1131.21 557.578C1110.93 554.843 1073.79 541.824 1087.52 511.628Z" fill="#491317"/>
</mask>
<g mask="url(#mask13)">
<path d="M1097.61 507.336C1025.14 490.107 1019.67 415.619 1026.81 387.103C1037.46 362.041 1081.48 330.286 1164.61 441.027C1203.88 493.359 1172.48 545.46 1143.61 550.363C1128.95 552.852 1081.13 535.21 1097.61 507.336Z" fill="#491317"/>
<path d="M1097.61 507.336C1025.14 490.107 1019.67 415.619 1026.81 387.103C1037.46 362.041 1081.48 330.286 1164.61 441.027C1203.88 493.359 1172.48 545.46 1143.61 550.363C1128.95 552.852 1081.13 535.21 1097.61 507.336Z" fill="url(#paint38_linear)"/>
</g>
<path d="M1131.74 697.246C1142.12 694.279 1168.24 691.608 1189.6 704.665C1153.99 708.225 1136.19 701.203 1131.74 697.246Z" fill="#D07039"/>
<circle cx="980.404" cy="568.166" r="1.48368" fill="#F5F5F5"/>
<circle cx="1048.65" cy="568.166" r="1.48368" fill="#F5F5F5"/>
<ellipse cx="952.214" cy="599.323" rx="14.8368" ry="8.90208" fill="#E68282"/>
<ellipse cx="1079.81" cy="599.323" rx="14.8368" ry="8.90208" fill="#E58282" fill-opacity="0.7"/>
<circle cx="922.54" cy="827.81" r="8.90208" fill="#8F1A48"/>
<circle cx="907.703" cy="946.505" r="8.90208" fill="#8F1A48"/>
<circle cx="901.769" cy="1062.23" r="8.90208" fill="#851440"/>
<defs>
<radialGradient id="paint0_radial" cx="0" cy="0" r="1" gradientUnits="userSpaceOnUse" gradientTransform="translate(2005.39 183.5) rotate(90) scale(172.5 169.392)">
<stop stop-color="#FFF0A3"/>
<stop offset="0.350141" stop-color="#FFF8D0" stop-opacity="0.3"/>
<stop offset="0.740055" stop-color="white" stop-opacity="0"/>
</radialGradient>
<linearGradient id="paint1_linear" x1="583.033" y1="705.747" x2="378.651" y2="990.318" gradientUnits="userSpaceOnUse">
<stop stop-color="#EF4683"/>
<stop offset="0.417807" stop-color="#3E0247"/>
</linearGradient>
<linearGradient id="paint2_linear" x1="1390.23" y1="-107" x2="1390.23" y2="474" gradientUnits="userSpaceOnUse">
<stop offset="0.24423" stop-color="white" stop-opacity="0"/>
<stop offset="0.702342" stop-color="#FF6F43" stop-opacity="0.3"/>
</linearGradient>
<linearGradient id="paint3_linear" x1="1018.98" y1="715.051" x2="1018.98" y2="854.517" gradientUnits="userSpaceOnUse">
<stop stop-color="#232255"/>
<stop offset="1" stop-color="#5972A1"/>
</linearGradient>
<linearGradient id="paint4_linear" x1="1014.53" y1="640.866" x2="1014.53" y2="1020.69" gradientUnits="userSpaceOnUse">
<stop stop-color="#311323"/>
<stop offset="0.15781" stop-color="#50282A"/>
</linearGradient>
<linearGradient id="paint5_linear" x1="1269.72" y1="919.798" x2="1440.34" y2="1056.3" gradientUnits="userSpaceOnUse">
<stop offset="0.162619" stop-color="#B5705F"/>
<stop offset="0.874581" stop-color="#A4504A"/>
</linearGradient>
<linearGradient id="paint6_linear" x1="1269.72" y1="919.797" x2="1440.34" y2="1056.3" gradientUnits="userSpaceOnUse">
<stop offset="0.162619" stop-color="#B5705F"/>
<stop offset="0.874581" stop-color="#A4504A"/>
</linearGradient>
<linearGradient id="paint7_linear" x1="765.27" y1="919.798" x2="594.647" y2="1056.3" gradientUnits="userSpaceOnUse">
<stop offset="0.162619" stop-color="#B5705F"/>
<stop offset="0.874581" stop-color="#A4504A"/>
</linearGradient>
<linearGradient id="paint8_linear" x1="765.27" y1="919.798" x2="594.647" y2="1056.3" gradientUnits="userSpaceOnUse">
<stop offset="0.162619" stop-color="#B5705F"/>
<stop offset="0.874581" stop-color="#A4504A"/>
</linearGradient>
<linearGradient id="paint9_linear" x1="651.027" y1="973.21" x2="771.205" y2="1356" gradientUnits="userSpaceOnUse">
<stop offset="0.0418279" stop-color="#993D3D"/>
<stop offset="0.465143" stop-color="#B5705F"/>
<stop offset="0.885417" stop-color="#AC6055"/>
</linearGradient>
<linearGradient id="paint10_linear" x1="1400.28" y1="982.112" x2="1266.75" y2="1338.2" gradientUnits="userSpaceOnUse">
<stop stop-color="#993D3D"/>
<stop offset="0.452385" stop-color="#B5705F"/>
<stop offset="0.875" stop-color="#AC6055"/>
</linearGradient>
<linearGradient id="paint11_linear" x1="1020.32" y1="723.952" x2="1020.32" y2="1259.62" gradientUnits="userSpaceOnUse">
<stop offset="0.589573" stop-color="#F5F5F5"/>
<stop offset="0.890625" stop-color="#CBAFBB"/>
</linearGradient>
<linearGradient id="paint12_linear" x1="1020.32" y1="723.952" x2="1020.32" y2="1259.62" gradientUnits="userSpaceOnUse">
<stop offset="0.589573" stop-color="#F5F5F5"/>
<stop offset="0.909833" stop-color="#CBAFBB"/>
</linearGradient>
<linearGradient id="paint13_linear" x1="1017.51" y1="810.006" x2="1017.51" y2="1264.01" gradientUnits="userSpaceOnUse">
<stop offset="0.56887" stop-color="#CBAFBB"/>
<stop offset="1" stop-color="#9E8395" stop-opacity="0.35"/>
</linearGradient>
<linearGradient id="paint14_linear" x1="926.991" y1="1091.91" x2="1029.36" y2="1186.86" gradientUnits="userSpaceOnUse">
<stop stop-color="#CBAFBB"/>
<stop offset="1" stop-color="#AB90A0"/>
</linearGradient>
<linearGradient id="paint15_linear" x1="778.623" y1="700.214" x2="872.095" y2="1014.75" gradientUnits="userSpaceOnUse">
<stop stop-color="#AE3539"/>
<stop offset="1" stop-color="#8E1949"/>
</linearGradient>
<linearGradient id="paint16_linear" x1="780.483" y1="684.77" x2="849.105" y2="1000.44" gradientUnits="userSpaceOnUse">
<stop stop-color="#AE3539"/>
<stop offset="1" stop-color="#8E1949"/>
</linearGradient>
<linearGradient id="paint17_linear" x1="845.389" y1="697.246" x2="845.389" y2="922.765" gradientUnits="userSpaceOnUse">
<stop stop-color="#311323"/>
<stop offset="0.202249" stop-color="#50282A"/>
<stop offset="0.728755" stop-color="#311323"/>
</linearGradient>
<linearGradient id="paint18_linear" x1="1256.37" y1="700.214" x2="1162.9" y2="1014.75" gradientUnits="userSpaceOnUse">
<stop stop-color="#AE3539"/>
<stop offset="1" stop-color="#8E1949"/>
</linearGradient>
<linearGradient id="paint19_linear" x1="1277.14" y1="698.73" x2="1185.59" y2="1000.95" gradientUnits="userSpaceOnUse">
<stop offset="0.103571" stop-color="#AE3539"/>
<stop offset="1" stop-color="#8E1949"/>
</linearGradient>
<linearGradient id="paint20_linear" x1="1177.73" y1="682.409" x2="1177.73" y2="907.928" gradientUnits="userSpaceOnUse">
<stop stop-color="#311323"/>
<stop offset="0.202249" stop-color="#50282A"/>
<stop offset="0.728755" stop-color="#311323"/>
</linearGradient>
<linearGradient id="paint21_linear" x1="843.092" y1="697.246" x2="927.826" y2="1223.04" gradientUnits="userSpaceOnUse">
<stop offset="0.168603" stop-color="#A72E32"/>
<stop offset="1" stop-color="#88144C"/>
</linearGradient>
<linearGradient id="paint22_linear" x1="843.092" y1="697.246" x2="927.826" y2="1223.04" gradientUnits="userSpaceOnUse">
<stop offset="0.168603" stop-color="#AE3539"/>
<stop offset="1" stop-color="#88144C"/>
</linearGradient>
<linearGradient id="paint23_linear" x1="843.092" y1="697.246" x2="927.826" y2="1223.04" gradientUnits="userSpaceOnUse">
<stop offset="0.168603" stop-color="#AE3539"/>
<stop offset="1" stop-color="#88144C"/>
</linearGradient>
<linearGradient id="paint24_linear" x1="1175.51" y1="703.181" x2="1122.84" y2="1203.18" gradientUnits="userSpaceOnUse">
<stop offset="0.203125" stop-color="#A72E32"/>
<stop offset="1" stop-color="#8A164A"/>
</linearGradient>
<linearGradient id="paint25_linear" x1="1175.51" y1="703.182" x2="1122.84" y2="1203.18" gradientUnits="userSpaceOnUse">
<stop offset="0.203125" stop-color="#AE3539"/>
<stop offset="1" stop-color="#8A164A"/>
</linearGradient>
<linearGradient id="paint26_linear" x1="1171.8" y1="818.908" x2="1200.95" y2="934.976" gradientUnits="userSpaceOnUse">
<stop stop-color="#AE3539"/>
<stop offset="1" stop-color="#871E31"/>
</linearGradient>
<linearGradient id="paint27_linear" x1="1108.11" y1="356" x2="1108.11" y2="695.763" gradientUnits="userSpaceOnUse">
<stop stop-color="#481216"/>
<stop offset="0.115764" stop-color="#340505"/>
</linearGradient>
<linearGradient id="paint28_linear" x1="909.187" y1="557.78" x2="888.415" y2="557.78" gradientUnits="userSpaceOnUse">
<stop stop-color="#963D39"/>
<stop offset="1" stop-color="#B5705F"/>
</linearGradient>
<linearGradient id="paint29_linear" x1="1133.22" y1="560.748" x2="1146.58" y2="560.748" gradientUnits="userSpaceOnUse">
<stop stop-color="#963D39"/>
<stop offset="1" stop-color="#B5705F"/>
</linearGradient>
<linearGradient id="paint30_linear" x1="1014.53" y1="418.314" x2="1014.53" y2="740.273" gradientUnits="userSpaceOnUse">
<stop offset="0.687903" stop-color="#B5705F"/>
<stop offset="1" stop-color="#883A3A"/>
</linearGradient>
<linearGradient id="paint31_linear" x1="1021.2" y1="689.828" x2="1021.2" y2="832.261" gradientUnits="userSpaceOnUse">
<stop stop-color="#FCCB5A"/>
<stop offset="0.873728" stop-color="#D07039"/>
</linearGradient>
<linearGradient id="paint32_linear" x1="1053.1" y1="691.312" x2="1053.1" y2="795.169" gradientUnits="userSpaceOnUse">
<stop stop-color="#FCCB5A"/>
<stop offset="0.633582" stop-color="#D07039"/>
</linearGradient>
<linearGradient id="paint33_linear" x1="980.404" y1="691.312" x2="980.404" y2="759.561" gradientUnits="userSpaceOnUse">
<stop stop-color="#F4BA54"/>
<stop offset="1" stop-color="#D07039"/>
</linearGradient>
<linearGradient id="paint34_linear" x1="1201.47" y1="691.312" x2="1163.2" y2="728.918" gradientUnits="userSpaceOnUse">
<stop stop-color="#FCCB5A"/>
<stop offset="1" stop-color="#D07039"/>
</linearGradient>
<linearGradient id="paint35_linear" x1="896.396" y1="486.563" x2="896.396" y2="722.469" gradientUnits="userSpaceOnUse">
<stop offset="0.0967012" stop-color="#340505"/>
<stop offset="0.377454" stop-color="#491317"/>
</linearGradient>
<linearGradient id="paint36_linear" x1="1140.21" y1="488.879" x2="1140.21" y2="726.92" gradientUnits="userSpaceOnUse">
<stop offset="0.165073" stop-color="#340505"/>
<stop offset="0.450341" stop-color="#491317"/>
</linearGradient>
<linearGradient id="paint37_linear" x1="900.628" y1="387.158" x2="983.378" y2="528.71" gradientUnits="userSpaceOnUse">
<stop stop-color="#6F252A"/>
<stop offset="0.392157" stop-color="#491317"/>
<stop offset="0.954691" stop-color="#340505"/>
</linearGradient>
<linearGradient id="paint38_linear" x1="1130.26" y1="387.158" x2="1041.23" y2="534.042" gradientUnits="userSpaceOnUse">
<stop stop-color="#6F252A"/>
<stop offset="0.33609" stop-color="#491317"/>
<stop offset="1" stop-color="#340505"/>
</linearGradient>
</defs>
</svg>
