<svg width="681" height="455" viewBox="0 0 681 455" fill="none" xmlns="http://www.w3.org/2000/svg">
<g clip-path="url(#clip0)">
<ellipse cx="474.5" cy="69.5" rx="54.5" ry="55.5" fill="url(#paint0_radial)"/>
<circle cx="475.317" cy="68.6967" r="19.3008" fill="#FFFBD2"/>
<path d="M500.436 101.019L544.449 41L590.187 101.019H574.078L621.542 177.12H590.187L647 266H436L500.436 177.12H464.766L516.545 101.019H500.436Z" fill="#270E48"/>
<path d="M290.436 96.0191L334.449 36L380.187 96.0191H364.078L411.542 172.12H380.187L437 261H226L290.436 172.12H254.766L306.545 96.0191H290.436Z" fill="#270E48"/>
<path d="M105.436 96.0191L149.449 36L195.187 96.0191H179.078L226.542 172.12H195.187L252 261H41L105.436 172.12H69.7662L121.545 96.0191H105.436Z" fill="#270E48"/>
<path d="M215.083 133.415L249.292 87L284.842 133.415H272.321L309.213 192.266H284.842L329 261H165L215.083 192.266H187.359L227.604 133.415H215.083Z" fill="#270E48"/>
<path d="M416.982 120.676L439.509 90L462.92 120.676H454.675L478.969 159.572H462.92L492 205H384L416.982 159.572H398.724L425.227 120.676H416.982Z" fill="#270E48"/>
<path d="M92.8239 271.15C61.1095 280.411 69.8818 315.144 78.2322 331.353C141.795 315.452 277.796 285.042 313.302 290.611C338.211 278.801 318.597 260.775 305.676 253.237C304.494 241.484 303.539 214.101 270.24 216.903C279.632 204.839 264.909 191.334 264.909 191.334C264.909 191.334 243.602 175.869 225.229 187.013C213.351 172.286 201.43 182.463 196.954 189.392C197.119 186.198 192.827 177.8 174.342 169.758C151.236 159.705 129.205 176.158 128.27 202.833C105.775 206.229 103.715 225.377 105.497 234.526C96.8913 237.611 82.3086 249.255 92.8239 271.15Z" fill="#3E0247"/>
<path d="M92.8239 271.15C61.1095 280.411 69.8818 315.144 78.2322 331.353C141.795 315.452 277.796 285.042 313.302 290.611C338.211 278.801 318.597 260.775 305.676 253.237C304.494 241.484 303.539 214.101 270.24 216.903C279.632 204.839 264.909 191.334 264.909 191.334C264.909 191.334 243.602 175.869 225.229 187.013C213.351 172.286 201.43 182.463 196.954 189.392C197.119 186.198 192.827 177.8 174.342 169.758C151.236 159.705 129.205 176.158 128.27 202.833C105.775 206.229 103.715 225.377 105.497 234.526C96.8913 237.611 82.3086 249.255 92.8239 271.15Z" fill="url(#paint1_linear)"/>
<path d="M597.278 317.191C628.142 336.481 607.724 376.392 593.657 393.936C530.951 358.501 395.632 287.064 356.001 284.802C333.205 264.148 359.861 247.259 376.039 241.397C381.043 227.438 390.786 194.459 425.396 206.316C419.226 189.293 439.227 176.649 439.227 176.649C439.227 176.649 466.872 163.297 482.911 181.484C500.267 166.634 509.736 182.009 512.3 191.553C513.142 187.636 520.393 178.537 542.664 173.475C570.503 167.147 588.751 192.704 581.25 225.305C604.152 235.138 600.249 258.892 595.434 269.539C603.627 275.468 615.465 293.298 597.278 317.191Z" fill="#3E0247"/>
<path d="M597.278 317.191C628.142 336.481 607.724 376.392 593.657 393.936C530.951 358.501 395.632 287.064 356.001 284.802C333.205 264.148 359.861 247.259 376.039 241.397C381.043 227.438 390.786 194.459 425.396 206.316C419.226 189.293 439.227 176.649 439.227 176.649C439.227 176.649 466.872 163.297 482.911 181.484C500.267 166.634 509.736 182.009 512.3 191.553C513.142 187.636 520.393 178.537 542.664 173.475C570.503 167.147 588.751 192.704 581.25 225.305C604.152 235.138 600.249 258.892 595.434 269.539C603.627 275.468 615.465 293.298 597.278 317.191Z" fill="url(#paint2_linear)"/>
<rect x="253.214" y="363.618" width="110.517" height="31.3393" rx="15.6696" transform="rotate(-29.134 253.214 363.618)" fill="#491317"/>
<mask id="mask0" mask-type="alpha" maskUnits="userSpaceOnUse" x="258" y="315" width="102" height="71">
<rect x="253.214" y="363.618" width="110.517" height="31.3393" rx="15.6696" transform="rotate(-29.134 253.214 363.618)" fill="#491317"/>
</mask>
<g mask="url(#mask0)">
<g style="mix-blend-mode:color-dodge">
<rect x="255.873" y="360.163" width="89.8782" height="21.6053" transform="rotate(-28.7975 255.873 360.163)" fill="url(#paint3_linear)" fill-opacity="0.8"/>
</g>
<ellipse cx="272.232" cy="371.357" rx="14.7652" ry="15.3748" transform="rotate(-32.8722 272.232 371.357)" fill="#722D1A"/>
<path d="M324.944 361.809C330.821 344.064 318.942 338.379 312.269 337.755L335.747 327.096L354.615 340.06C354.087 342.7 347.413 348.903 324.944 361.809Z" fill="#491317"/>
</g>
<path d="M273.091 360.081C266.898 360.081 263.585 363.912 263.585 370.595C263.585 377.278 270.499 380.053 273.091 379.957C277.124 379.957 280.581 376.299 280.581 371.459C280.581 367.858 278.277 364.546 273.091 364.546C266.322 364.546 264.806 375.06 273.091 375.06" stroke="#491317" stroke-width="2" stroke-linecap="round"/>
<rect x="397.4" y="394.967" width="110.517" height="31.3393" rx="15.6696" transform="rotate(-145.033 397.4 394.967)" fill="#491317"/>
<mask id="mask1" mask-type="alpha" maskUnits="userSpaceOnUse" x="312" y="312" width="98" height="77">
<rect x="397.4" y="394.967" width="110.517" height="31.3393" rx="15.6696" transform="rotate(-145.033 397.4 394.967)" fill="#491317"/>
</mask>
<g mask="url(#mask1)">
<g style="mix-blend-mode:color-dodge">
<rect width="89.8782" height="21.6053" transform="matrix(-0.831862 -0.554982 -0.554982 0.831862 411.72 365.392)" fill="url(#paint4_linear)" fill-opacity="0.8"/>
</g>
<ellipse cx="396.056" cy="374.479" rx="14.7652" ry="15.3748" transform="rotate(-148.771 396.056 374.479)" fill="#722D1A"/>
</g>
<path d="M394.657 364.834C400.851 364.834 404.164 368.665 404.164 375.348C404.164 382.032 397.25 384.807 394.657 384.711C390.624 384.711 387.167 381.052 387.167 376.213C387.167 372.612 389.472 369.299 394.657 369.299C401.427 369.299 402.943 379.813 394.657 379.813" stroke="#491317" stroke-width="2" stroke-linecap="round"/>
<path d="M43.1688 338.519C38.2885 321.73 47.9047 304.037 64.6472 299L216.595 253.287C233.337 248.25 250.866 257.777 255.746 274.566V274.566C260.626 291.354 251.01 309.048 234.268 314.084L82.3202 359.797C65.5778 364.834 48.0491 355.307 43.1688 338.519V338.519Z" fill="#491317"/>
<mask id="mask2" mask-type="alpha" maskUnits="userSpaceOnUse" x="41" y="251" width="217" height="111">
<path d="M43.1688 338.519C38.2885 321.73 47.9047 304.037 64.6472 299L216.595 253.287C233.337 248.25 250.866 257.777 255.746 274.566V274.566C260.626 291.354 251.01 309.048 234.268 314.084L82.3202 359.797C65.5778 364.834 48.0491 355.307 43.1688 338.519V338.519Z" fill="#491317"/>
</mask>
<g mask="url(#mask2)">
<g style="mix-blend-mode:color-dodge">
<rect x="40.4663" y="335.091" width="234.232" height="37.8394" transform="rotate(-16.7378 40.4663 335.091)" fill="url(#paint5_linear)" fill-opacity="0.7"/>
</g>
<ellipse rx="29.6769" ry="31.0419" transform="matrix(0.936666 -0.350224 0.340827 0.940126 60.3463 335.045)" fill="#722D1A"/>
<path d="M158.295 314.133C146.887 309.985 144.42 298.769 144.612 293.68L167.369 289.071L181.053 311.253V349.422L164.489 353.311C161.464 351.054 155.99 340.06 158.295 314.133Z" fill="#491317"/>
</g>
<path d="M59.1974 311.752C49.7451 314.782 46.9806 323.794 50.9777 336.689C54.9747 349.583 67.1858 351.556 71.0852 350.102C77.2402 348.13 80.3279 339.381 77.4335 330.043C75.2799 323.096 69.7814 317.831 61.8679 320.367C51.5363 323.678 55.511 344.706 68.1563 340.654" stroke="#491317" stroke-width="2" stroke-linecap="round"/>
<path d="M612.95 385.692C621.451 370.414 616.022 351.022 600.824 342.379L462.895 263.936C447.698 255.292 428.486 260.671 419.985 275.948V275.948C411.484 291.226 416.913 310.618 432.111 319.262L570.039 397.705C585.237 406.348 604.449 400.97 612.95 385.692V385.692Z" fill="#491317"/>
<mask id="mask3" mask-type="alpha" maskUnits="userSpaceOnUse" x="415" y="259" width="202" height="143">
<path d="M612.95 385.692C621.451 370.414 616.022 351.022 600.824 342.379L462.895 263.936C447.698 255.292 428.486 260.671 419.985 275.948V275.948C411.484 291.226 416.913 310.618 432.111 319.262L570.039 397.705C585.237 406.348 604.449 400.97 612.95 385.692V385.692Z" fill="#491317"/>
</mask>
<g mask="url(#mask3)">
<g style="mix-blend-mode:color-dodge">
<rect x="417.772" y="270.392" width="234.232" height="37.8394" transform="rotate(30.0528 417.772 270.392)" fill="url(#paint6_linear)" fill-opacity="0.7"/>
</g>
<path d="M498.795 338.907C507.898 336.718 522.465 322.391 526.882 319.463L513.198 314.277L469.124 327.385L476.613 361.809L498.795 367.426C500.331 364.21 502.482 354.002 498.795 338.907Z" fill="#491317"/>
<path d="M557.273 392.345H514.063L502.396 357.344L516.799 374.484L533.94 346.973L545.03 371.027L557.273 357.344V377.221L564.187 367.571L557.273 392.345Z" fill="#491317"/>
<ellipse rx="29.6769" ry="31.0419" transform="matrix(-0.834989 -0.550267 -0.541877 0.840458 596.979 378.476)" fill="#722D1A"/>
</g>
<path d="M607 358.317C598.654 352.943 589.939 356.536 582.523 367.816C575.107 379.097 581.344 389.779 584.944 391.866C590.378 395.365 599.096 392.189 604.466 384.02C608.462 377.943 609.032 370.352 602.045 365.853C592.923 359.98 579.213 376.412 590.378 383.6" stroke="#491317" stroke-width="2" stroke-linecap="round"/>
<circle cx="340.068" cy="240.531" r="96.6478" fill="url(#paint7_radial)"/>
<circle cx="340.068" cy="269.338" r="67.8407" fill="url(#paint8_radial)"/>
<path d="M301.61 274.38C302.379 265.257 307.487 245.227 321.775 238.083C336.064 230.938 340.02 208.987 340.212 198.905C340.212 182.389 333.874 154.254 350.294 136.97C341.652 177.011 356.344 179.316 360.665 189.399C365.274 196.984 374.55 226.099 369.019 238.083C363.488 250.066 368.059 257.479 371.036 259.688C374.781 253.446 367.301 242.692 381.406 232.033C387.133 227.706 393.217 229.44 398.69 217.918C396.002 231.841 383.595 250.47 390.048 259.688C398.114 271.211 404.452 307.508 385.151 315.286C392.353 320.471 399.843 313.557 410.501 300.594C413.094 314.709 391.777 346.973 359.513 346.973C333.01 346.109 332.722 339.292 331.858 339.484C322.64 342.652 301.265 347.607 289.511 342.076C277.758 336.545 275.3 325.56 272.803 319.895C268.438 315.272 263.981 310.055 258.657 308.487C258.025 308.363 257.364 308.23 256.671 308.084C257.347 308.159 258.008 308.296 258.657 308.487C270.008 310.704 272.001 309.631 280.869 316.726C285.911 322.343 287.207 328.94 291.816 328.249C276.145 305.664 282.214 281.965 287.207 272.939C291.144 267.37 297.577 253.811 291.816 244.132C299.652 251.507 300.794 260.456 298.874 265.161C298.778 267.466 296.771 274.38 301.61 274.38Z" fill="#FFD167"/>
<path d="M301.61 274.38C302.379 265.257 307.487 245.227 321.775 238.083C336.064 230.938 340.02 208.987 340.212 198.905C340.212 182.389 333.874 154.254 350.294 136.97C341.652 177.011 356.344 179.316 360.665 189.399C365.274 196.984 374.55 226.099 369.019 238.083C363.488 250.066 368.059 257.479 371.036 259.688C374.781 253.446 367.301 242.692 381.406 232.033C387.133 227.706 393.217 229.44 398.69 217.918C396.002 231.841 383.595 250.47 390.048 259.688C398.114 271.211 404.452 307.508 385.151 315.286C392.353 320.471 399.843 313.557 410.501 300.594C413.094 314.709 391.777 346.973 359.513 346.973C333.01 346.109 332.722 339.292 331.858 339.484C322.64 342.652 301.265 347.607 289.511 342.076C277.758 336.545 275.3 325.56 272.803 319.895C268.438 315.272 263.981 310.055 258.657 308.487C258.025 308.363 257.364 308.23 256.671 308.084C257.347 308.159 258.008 308.296 258.657 308.487C270.008 310.704 272.001 309.631 280.869 316.726C285.911 322.343 287.207 328.94 291.816 328.249C276.145 305.664 282.214 281.965 287.207 272.939C291.144 267.37 297.577 253.811 291.816 244.132C299.652 251.507 300.794 260.456 298.874 265.161C298.778 267.466 296.771 274.38 301.61 274.38Z" fill="url(#paint9_radial)"/>
<path d="M319.432 297.473C319.875 292.484 322.818 281.528 331.049 277.62C339.28 273.713 341.559 261.706 341.669 256.191C341.669 247.158 341.669 218.92 358.264 210.716C345.952 225.71 345.109 242.119 353.452 250.992C356.107 255.141 361.45 271.065 358.264 277.62C355.078 284.175 357.711 288.229 359.426 289.437C361.583 286.023 357.274 280.141 365.4 274.311C368.699 271.944 383.726 269.358 386.879 263.055C385.331 270.671 366.661 284.395 370.378 289.437C375.025 295.74 376.518 315.278 365.4 319.532C370.378 324.448 381.695 316.381 382.414 315.908C382.746 321.16 370.378 337.179 352.788 337.179C337.521 336.706 337.355 332.977 336.857 333.082C331.546 334.816 319.233 337.526 312.462 334.5C305.692 331.475 304.276 325.467 302.838 322.368C300.323 319.84 297.755 316.986 294.688 316.128C294.324 316.061 293.943 315.988 293.544 315.908C293.934 315.949 294.314 316.024 294.688 316.128C301.227 317.341 302.375 316.754 307.484 320.635C310.388 323.707 311.135 327.316 313.79 326.937C304.762 314.584 308.258 301.622 311.135 296.685C313.403 293.639 310.803 282.914 307.484 277.62C311.998 281.654 318.962 289.857 317.856 292.431C317.8 293.692 316.644 297.473 319.432 297.473Z" fill="#FF6F43"/>
<path d="M319.432 297.473C319.875 292.484 322.818 281.528 331.049 277.62C339.28 273.713 341.559 261.706 341.669 256.191C341.669 247.158 341.669 218.92 358.264 210.716C345.952 225.71 345.109 242.119 353.452 250.992C356.107 255.141 361.45 271.065 358.264 277.62C355.078 284.175 357.711 288.229 359.426 289.437C361.583 286.023 357.274 280.141 365.4 274.311C368.699 271.944 383.726 269.358 386.879 263.055C385.331 270.671 366.661 284.395 370.378 289.437C375.025 295.74 376.518 315.278 365.4 319.532C370.378 324.448 381.695 316.381 382.414 315.908C382.746 321.16 370.378 337.179 352.788 337.179C337.521 336.706 337.355 332.977 336.857 333.082C331.546 334.816 319.233 337.526 312.462 334.5C305.692 331.475 304.276 325.467 302.838 322.368C300.323 319.84 297.755 316.986 294.688 316.128C294.324 316.061 293.943 315.988 293.544 315.908C293.934 315.949 294.314 316.024 294.688 316.128C301.227 317.341 302.375 316.754 307.484 320.635C310.388 323.707 311.135 327.316 313.79 326.937C304.762 314.584 308.258 301.622 311.135 296.685C313.403 293.639 310.803 282.914 307.484 277.62C311.998 281.654 318.962 289.857 317.856 292.431C317.8 293.692 316.644 297.473 319.432 297.473Z" fill="url(#paint10_radial)"/>
<path d="M331.025 313.747C331.218 311.599 332.498 306.882 336.08 305.2C339.662 303.518 340.654 298.349 340.702 295.974C340.702 292.085 340.702 279.928 347.924 276.396C342.566 282.851 342.199 289.916 345.83 293.736C346.985 295.522 349.311 302.378 347.924 305.2C346.537 308.022 347.683 309.767 348.43 310.287C349.368 308.818 347.493 306.285 351.029 303.775C352.465 302.756 359.005 301.643 360.377 298.929C359.703 302.208 351.578 308.117 353.196 310.287C355.218 313.001 355.868 321.412 351.029 323.244C353.196 325.36 358.121 321.887 358.434 321.684C358.578 323.945 353.196 330.841 345.541 330.841C338.897 330.638 338.825 329.033 338.608 329.078C336.297 329.824 330.938 330.991 327.992 329.688C325.045 328.386 324.429 325.799 323.803 324.465C322.709 323.376 321.591 322.148 320.257 321.779C320.098 321.75 319.933 321.718 319.759 321.684C319.928 321.701 320.094 321.734 320.257 321.779C323.102 322.301 323.602 322.048 325.825 323.719C327.089 325.042 327.414 326.595 328.57 326.432C324.641 321.114 326.162 315.533 327.414 313.408C328.401 312.096 327.27 307.479 325.825 305.2C327.79 306.936 330.82 310.468 330.339 311.576C330.315 312.119 329.812 313.747 331.025 313.747Z" fill="#D72F2E"/>
<path d="M331.025 313.747C331.218 311.599 332.498 306.882 336.08 305.2C339.662 303.518 340.654 298.349 340.702 295.974C340.702 292.085 340.702 279.928 347.924 276.396C342.566 282.851 342.199 289.916 345.83 293.736C346.985 295.522 349.311 302.378 347.924 305.2C346.537 308.022 347.683 309.767 348.43 310.287C349.368 308.818 347.493 306.285 351.029 303.775C352.465 302.756 359.005 301.643 360.377 298.929C359.703 302.208 351.578 308.117 353.196 310.287C355.218 313.001 355.868 321.412 351.029 323.244C353.196 325.36 358.121 321.887 358.434 321.684C358.578 323.945 353.196 330.841 345.541 330.841C338.897 330.638 338.825 329.033 338.608 329.078C336.297 329.824 330.938 330.991 327.992 329.688C325.045 328.386 324.429 325.799 323.803 324.465C322.709 323.376 321.591 322.148 320.257 321.779C320.098 321.75 319.933 321.718 319.759 321.684C319.928 321.701 320.094 321.734 320.257 321.779C323.102 322.301 323.602 322.048 325.825 323.719C327.089 325.042 327.414 326.595 328.57 326.432C324.641 321.114 326.162 315.533 327.414 313.408C328.401 312.096 327.27 307.479 325.825 305.2C327.79 306.936 330.82 310.468 330.339 311.576C330.315 312.119 329.812 313.747 331.025 313.747Z" fill="url(#paint11_radial)"/>
<path d="M504.542 167.596C494.987 160.857 506.829 151.232 512.649 147.026L515.592 145.882L521.416 149.866C521.438 151.292 518.094 156.833 504.542 167.596Z" fill="#E3A459"/>
<path d="M506.666 165.615C497.111 158.877 508.953 149.252 514.773 145.046L517.717 143.902L523.54 147.886C523.562 149.311 520.218 154.853 506.666 165.615Z" fill="#68241B"/>
<path d="M502.17 170.614C503.019 160.337 511.238 153.114 515.157 152.085C522.303 150.208 532.77 150.919 539.296 160.678C545.821 170.438 536.381 185.187 531.319 189.276L535.725 198.173L519.236 204.351C520.268 200.68 517.632 201.43 512.491 192.667C500.758 191.904 500.459 186.477 501.067 177.113L497.685 173.381C497.762 173.348 498.768 172.749 502.17 170.614Z" fill="#F8AE84"/>
<mask id="mask4" mask-type="alpha" maskUnits="userSpaceOnUse" x="497" y="151" width="45" height="54">
<path d="M502.17 170.614C503.019 160.337 511.238 153.114 515.157 152.085C522.303 150.208 532.77 150.919 539.296 160.678C545.821 170.438 536.381 185.187 531.319 189.276L535.725 198.173L519.236 204.351C520.268 200.68 517.632 201.43 512.491 192.667C500.758 191.904 500.459 186.477 501.067 177.113L497.685 173.381C497.762 173.348 498.768 172.749 502.17 170.614Z" fill="#FFA68A"/>
</mask>
<g mask="url(#mask4)">
<path d="M536.676 196.638L532.082 183.349C522.698 194.74 518.176 195.794 517.088 194.898L521.803 202.65L536.676 196.638Z" fill="#BA665B"/>
<path d="M512.199 192.61C514.717 193.467 523.838 192.517 533.696 182.506C534.105 182.077 534.523 181.638 534.948 181.189C534.53 181.644 534.112 182.083 533.696 182.506C521.396 195.377 516.113 198.859 515.071 198.185L512.199 192.61Z" fill="#8D4731"/>
</g>
<ellipse cx="508.953" cy="168.263" rx="0.840434" ry="3.17719" transform="rotate(21.6452 508.953 168.263)" fill="#68241B"/>
<path d="M509.764 161.848C510.569 161.751 512.249 162.188 512.523 164.716" stroke="#68241B" stroke-linecap="round"/>
<path d="M514.481 178.211C511.886 180.489 506.777 182.28 504.547 182.89C505.46 185.578 508.349 185.403 510.311 184.851C512.157 184.331 514.927 182.5 514.481 178.211Z" stroke="#68241B" stroke-linecap="round" stroke-linejoin="round"/>
<path d="M478.821 400.991L475.894 390.264L485.302 386.299L488.857 400.991H478.821Z" fill="#F8AE84"/>
<path d="M480.261 398.826L477.334 388.099L486.743 384.135L490.297 398.826H480.261Z" fill="#BA665B"/>
<path d="M475.917 397.635C482.718 398.025 487.048 393.365 488.363 390.987C494.584 393.921 497.6 398.752 496.217 401.912C494.835 405.071 474.04 417.146 461.732 419.18C455.674 420.181 456.886 415.25 458.249 412.659C460.236 410.197 461.434 405.371 475.917 397.635Z" fill="#FFCD4B"/>
<mask id="mask5" mask-type="alpha" maskUnits="userSpaceOnUse" x="453" y="389" width="46" height="35">
<path d="M475.958 397.622C482.759 398.012 487.089 393.352 488.404 390.974C494.625 393.908 497.64 398.739 496.258 401.898C494.875 405.058 474.081 417.133 461.773 419.167C455.715 420.168 456.927 415.237 458.29 412.646C460.277 410.184 461.475 405.358 475.958 397.622Z" fill="#FFCD4B"/>
</mask>
<g mask="url(#mask5)">
<path d="M477.967 395.081C484.231 396.102 487.775 391.662 488.764 389.314C494.728 392.921 497.927 398.205 496.947 401.356C495.967 404.508 477.475 418.285 466.387 419.279C460.929 419.768 462.134 411.625 463.148 409.062C464.744 406.688 465.404 401.792 477.967 395.081Z" fill="#5C639C"/>
</g>
<path d="M466.932 378.145C473.653 377.034 476.856 371.538 477.617 368.929C484.331 370.428 488.332 374.48 487.676 377.866C487.02 381.252 469.379 397.593 457.817 402.276C452.126 404.581 452.227 399.504 452.989 396.678C454.387 393.84 454.498 388.869 466.932 378.145Z" fill="#FFCD4B"/>
<mask id="mask6" mask-type="alpha" maskUnits="userSpaceOnUse" x="447" y="366" width="44" height="41">
<path d="M466.968 378.07C473.689 376.959 476.892 371.463 477.653 368.854C484.366 370.353 488.368 374.405 487.712 377.791C487.056 381.177 469.415 397.518 457.853 402.201C452.161 404.506 452.263 399.429 453.025 396.603C454.423 393.765 454.534 388.794 466.968 378.07Z" fill="#FFCD4B"/>
</mask>
<g mask="url(#mask6)">
<path d="M467.571 379.088C474.442 378.772 477.061 373.241 477.511 370.515C484.719 373.026 489.432 377.944 489.194 381.526C488.956 385.107 472.694 400.481 461.24 404.028C455.602 405.773 455.037 400.287 455.46 397.325C456.545 394.436 456.004 389.064 467.571 379.088Z" fill="#5C639C"/>
</g>
<path d="M420.584 307.52C434.847 294.841 475.39 286.388 493.879 283.746H503.784L522.273 294.643L452.279 331.955L471.429 360.683L461.524 367.287C452.279 360.572 431.149 339.22 420.584 307.52Z" fill="#A7B93C"/>
<mask id="mask7" mask-type="alpha" maskUnits="userSpaceOnUse" x="420" y="283" width="103" height="85">
<path d="M420.542 307.463C434.827 294.744 475.435 286.264 493.953 283.614H503.874L522.392 294.545L452.287 331.974L471.467 360.791L461.546 367.416C452.287 360.681 431.123 339.261 420.542 307.463Z" fill="#43656E"/>
</mask>
<g mask="url(#mask7)">
<path d="M424.905 312.557C439.168 299.878 479.711 291.425 498.2 288.783H508.105L526.594 299.68L456.6 336.992L475.75 365.72L465.845 372.324C456.6 365.61 435.47 344.257 424.905 312.557Z" fill="#43656E"/>
<path d="M457.478 368.655C448.803 363.578 440.356 337.089 437.217 324.479L469.432 353.787L457.478 368.655Z" fill="#242E47"/>
</g>
<path d="M436.716 323.973C453.191 302.875 493.778 293.742 512.013 291.812H528.102C534.537 297.494 545.8 310.015 539.364 314.646C532.928 319.278 493.778 331.585 475.008 337.159C477.26 338.767 483.503 351.568 490.453 389.904C482.473 393.506 474.042 390.118 470.825 387.974C468.572 383.579 458.597 364.625 436.716 323.973Z" fill="#A7B93C"/>
<mask id="mask8" mask-type="alpha" maskUnits="userSpaceOnUse" x="436" y="291" width="106" height="101">
<path d="M436.716 324.113C453.191 303.015 493.778 293.881 512.013 291.952H528.102C534.537 297.634 545.8 310.155 539.364 314.786C532.928 319.418 493.778 331.725 475.008 337.299C477.26 338.907 483.503 351.707 490.453 390.044C482.473 393.646 474.042 390.258 470.825 388.114C468.572 383.719 458.597 364.765 436.716 324.113Z" fill="#43656E"/>
</mask>
<g mask="url(#mask8)">
<path d="M442.765 327.57C459.24 306.472 495.252 294.314 513.487 292.384L534.151 295.409C540.587 301.09 551.849 313.612 545.413 318.243C538.978 322.874 499.828 335.181 481.057 340.756C483.31 342.364 489.552 355.164 496.503 393.501C488.522 397.103 480.092 393.715 476.874 391.571C474.621 387.176 464.646 368.222 442.765 327.57Z" fill="#43656E"/>
</g>
<path d="M436.184 218.515C441.484 220.924 444.527 226.915 445.385 229.61C449.514 234.728 454.144 245.655 439.632 248.415C425.12 251.176 416.24 244.754 413.614 241.198C412.24 240.254 410.334 237.662 413.692 234.846C411.528 231.92 413.416 230.445 414.631 230.073C413.898 228.819 413.269 226.1 416.618 225.257C415.619 222.509 417.26 221.309 418.205 221.052C419.382 220.219 423.222 219.085 429.17 221.217C425.689 219.413 426.591 217.886 427.477 217.348C428.171 216.733 430.884 216.106 436.184 218.515Z" fill="#F8AE84"/>
<mask id="mask9" mask-type="alpha" maskUnits="userSpaceOnUse" x="408" y="213" width="44" height="41">
<path d="M436.184 218.515C441.484 220.924 444.527 226.915 445.385 229.61C449.514 234.728 454.144 245.655 439.632 248.415C425.12 251.176 416.24 244.754 413.614 241.198C412.24 240.254 410.334 237.662 413.692 234.846C411.528 231.92 413.416 230.445 414.631 230.073C413.898 228.819 413.269 226.1 416.618 225.257C415.619 222.509 417.26 221.309 418.205 221.052C419.382 220.219 423.222 219.085 429.17 221.217C425.689 219.413 426.591 217.886 427.477 217.348C428.171 216.733 430.884 216.106 436.184 218.515Z" fill="#BA665B"/>
</mask>
<g mask="url(#mask9)">
<path d="M439.308 218.896C444.792 221.628 448.488 229.682 449.413 232.658C453.736 238.35 458.664 250.435 443.798 253.241C428.932 256.047 419.708 248.847 416.954 244.896C415.528 243.837 413.528 240.957 416.934 237.914C414.664 234.664 416.581 233.072 417.823 232.682C417.05 231.292 416.362 228.292 419.789 227.419C418.719 224.383 420.386 223.089 421.353 222.822C422.549 221.924 427.547 220.384 433.691 222.822C430.086 220.783 429.919 219.473 430.821 218.896C431.524 218.231 433.825 216.164 439.308 218.896Z" fill="#BA665B"/>
</g>
<path d="M513.027 206.802C525.234 208.405 531.843 198.502 535.494 194.593C550.035 197.543 561.511 210.572 566.492 242.116C571.472 273.659 544.022 323.928 536.246 316.858C528.469 309.789 501.954 284.244 492.74 283.776C488.281 281.725 500.542 279.027 506.285 271.211C512.028 263.395 516.895 238.786 515.453 223.46L513.027 206.802Z" fill="#E3B94B"/>
<mask id="mask10" mask-type="alpha" maskUnits="userSpaceOnUse" x="491" y="194" width="77" height="124">
<path d="M513.027 206.802C525.234 208.405 531.843 198.502 535.494 194.593C550.035 197.543 561.511 210.572 566.492 242.116C571.472 273.659 544.022 323.928 536.246 316.858C528.469 309.789 501.954 284.244 492.74 283.776C488.281 281.725 500.542 279.027 506.285 271.211C512.028 263.395 516.895 238.786 515.453 223.46L513.027 206.802Z" fill="#833C5A"/>
</mask>
<g mask="url(#mask10)">
<path d="M514.216 211.308C527.747 213.081 535.071 202.146 539.117 197.83C555.236 201.091 567.959 215.482 573.487 250.318C579.014 285.155 548.597 340.663 539.976 332.855C531.354 325.046 501.958 296.829 491.744 296.31C486.801 294.045 500.392 291.067 506.756 282.437C513.12 273.807 518.51 246.631 516.909 229.705L514.216 211.308Z" fill="#833C5A"/>
<path d="M509.022 259.112C514.907 249.18 531.314 238.217 538.301 233.754L527.501 236.531C525.85 237.55 519.862 240.8 509.022 259.112Z" fill="#591313"/>
</g>
<path d="M509.669 210.705C518.05 198.041 531.91 198.555 536.1 198.041V232.019C528.88 233.502 512.893 252.818 505.801 262.291C504.297 264.556 488.524 266.368 437.467 255.495C433.857 247.587 444.129 238.197 449.716 234.49L491.296 242.212L509.669 210.705Z" fill="#E3B94B"/>
<mask id="mask11" mask-type="alpha" maskUnits="userSpaceOnUse" x="436" y="198" width="101" height="67">
<path d="M509.669 210.705C518.05 198.041 531.91 198.555 536.1 198.041V232.019C528.88 233.502 512.893 252.818 505.801 262.291C504.297 264.556 488.524 266.368 437.467 255.495C433.857 247.587 444.129 238.197 449.716 234.49L491.296 242.212L509.669 210.705Z" fill="#833C5A"/>
</mask>
<g mask="url(#mask11)">
<path d="M512.262 213.874C520.642 201.209 532.63 197.691 536.82 197.176L538.693 235.188C531.473 236.67 515.485 255.987 508.394 265.459C506.89 267.725 487.917 269.409 436.86 258.536C433.25 250.628 437.754 236.316 443.341 232.609L494.474 246.148L512.262 213.874Z" fill="#833C5A"/>
</g>
<path d="M518.247 160.883C511.34 156.662 510.622 151.595 511.126 149.589C509.07 147.969 508.473 144.37 522.531 142.94C536.589 141.509 544.187 147.081 549.137 155.628C552.261 161.021 559.965 170.143 549.137 194.008C564.331 209.275 546.369 227.615 540.826 227.85C542.404 223.407 543.798 212.828 536.757 206.05C527.956 197.577 529.329 189.893 532.208 182.052C534.511 175.779 530.119 171.34 527.636 169.904L523.349 176.379C524.527 172.973 525.155 165.104 518.247 160.883Z" fill="#E3A459"/>
<mask id="mask12" mask-type="alpha" maskUnits="userSpaceOnUse" x="504" y="141" width="56" height="88">
<path d="M518.271 160.883C511.364 156.662 510.646 151.595 511.15 149.589C509.094 147.969 508.497 144.37 522.555 142.939C536.613 141.509 544.211 147.081 549.161 155.628C552.285 161.021 559.989 170.143 549.161 194.008C564.356 209.275 546.394 227.615 540.851 227.85C542.428 223.407 543.822 212.828 536.781 206.05C527.981 197.577 529.353 189.893 532.232 182.052C534.535 175.779 530.143 171.34 527.66 169.904L523.374 176.379C524.551 172.973 525.179 165.104 518.271 160.883Z" fill="#68241B"/>
</mask>
<g mask="url(#mask12)">
<path d="M520.882 157.4C513.422 152.351 513.016 147.052 513.745 145.034C511.554 143.155 511.166 139.383 527.145 139.322C543.125 139.261 551.256 145.774 556.162 155.088C559.258 160.966 567.227 171.151 553.106 194.677C569.038 211.955 547.306 229.065 541.031 228.749C543.165 224.326 545.581 213.553 538.175 205.853C528.918 196.227 531.078 188.44 534.952 180.641C538.05 174.403 534.468 172.405 531.779 170.674L525.406 173.898C527.006 170.503 528.342 162.45 520.882 157.4Z" fill="#68241B"/>
</g>
<path d="M538.217 172.016C535.338 166.625 530.008 168.299 527.703 169.81L528.272 185.903C529.572 185.766 532.119 184.676 533.23 184.149C536.092 182.351 541.096 177.408 538.217 172.016Z" fill="#F8AE84"/>
<path d="M359.823 196.6C377.216 202.278 417.765 216.664 435.866 223.147C431.412 222.416 425.776 220.349 425.251 220.203C406.676 213.905 367.585 200.366 359.823 196.6Z" fill="#722D1A"/>
<rect x="381.982" y="210.962" width="11.8109" height="16.7081" rx="5.90546" transform="rotate(-71.3781 381.982 210.962)" fill="#E8F5F8"/>
<rect x="362.681" y="204.624" width="11.8109" height="16.7081" rx="5.90546" transform="rotate(-71.3781 362.681 204.624)" fill="#E8F5F8"/>
<path d="M177.893 383.45L179.168 373.845L180.529 369.997L189.62 368.637C190.139 370.382 190.093 376.462 185.757 386.829C181.247 387.746 178.635 384.958 177.893 383.45Z" fill="#F2AD6E"/>
<path d="M177.452 385.863L178.547 375.905L179.444 372.127L186.308 371.1C186.765 372.854 186.948 378.9 184.022 389.056C180.626 389.807 178.07 387.39 177.452 385.863Z" fill="#A0573A"/>
<path d="M205.676 327.096L178.316 284.626C180.721 274.485 187.396 254.264 194.852 254.505C204.172 254.806 250.474 286.433 245.663 294.566C241.815 301.072 217.401 318.964 205.676 327.096Z" fill="#EC6E46"/>
<mask id="mask13" mask-type="alpha" maskUnits="userSpaceOnUse" x="178" y="254" width="69" height="74">
<path d="M205.676 327.02L178.316 284.549C180.721 274.409 187.396 254.187 194.852 254.428C204.172 254.729 250.474 286.357 245.663 294.489C241.815 300.995 217.401 318.887 205.676 327.02Z" fill="#BC242E"/>
</mask>
<g mask="url(#mask13)">
<path d="M195.017 335.45L167.657 290.789C170.062 280.125 176.737 258.86 184.193 259.114C193.514 259.431 239.815 292.689 235.005 301.241C231.156 308.083 206.743 326.898 195.017 335.45Z" fill="#991E26"/>
</g>
<path d="M217.782 304.839C213.231 294.857 199.919 288.005 193.832 285.826L187.246 287.608L189.042 294.738C191.521 291.099 201.223 291.343 217.782 304.839Z" fill="#740E0E"/>
<path d="M187.306 386.682C181.766 387.474 177.898 383.96 176.656 382.104C171.767 384.939 169.634 389.103 170.985 391.593C172.336 394.084 190.197 402.524 200.414 403.334C205.443 403.733 204.108 399.78 202.812 397.754C201.015 395.877 199.699 392.009 187.306 386.682Z" fill="#FFC978"/>
<mask id="mask14" mask-type="alpha" maskUnits="userSpaceOnUse" x="170" y="382" width="34" height="22">
<path d="M187.29 386.697C181.749 387.488 177.881 383.974 176.639 382.119C171.75 384.953 169.617 389.117 170.969 391.607C172.32 394.098 190.181 402.538 200.397 403.348C205.426 403.747 204.092 399.795 202.796 397.769C200.999 395.891 199.683 392.024 187.29 386.697Z" fill="#D17A49"/>
</mask>
<g mask="url(#mask14)">
<path d="M184.302 382.413C178.826 384.881 175.992 380.851 175.26 378.527C169.908 383.727 166.861 390.138 167.544 393.333C168.226 396.529 183.505 400.764 192.749 402.786C199.235 404.206 199.978 406.757 199.235 404.206C197.978 401.986 194.823 386.936 184.302 382.413Z" fill="#D17A49"/>
</g>
<path d="M206.943 332.7C201.636 330.921 199.756 326.045 199.479 323.829C193.838 324.169 190.064 326.933 190.153 329.765C190.243 332.596 202.418 348.154 211.185 353.463C215.5 356.076 216.081 351.945 215.832 349.553C215.068 347.068 215.628 343.021 206.943 332.7Z" fill="#FFC978"/>
<mask id="mask15" mask-type="alpha" maskUnits="userSpaceOnUse" x="190" y="323" width="26" height="32">
<path d="M206.849 332.827C201.542 331.051 199.662 326.183 199.385 323.971C193.744 324.309 189.97 327.069 190.06 329.896C190.15 332.724 202.324 348.256 211.091 353.556C215.406 356.165 215.987 352.041 215.738 349.652C214.974 347.172 215.534 343.132 206.849 332.827Z" fill="#D17A49"/>
</mask>
<g mask="url(#mask15)">
<path d="M203.486 332.97C198.179 331.194 196.299 326.326 196.022 324.114C190.381 324.452 186.607 327.212 186.697 330.039C186.787 332.867 198.961 348.399 207.728 353.699C212.043 356.308 212.624 352.183 212.375 349.795C211.611 347.315 212.171 343.275 203.486 332.97Z" fill="#D17A49"/>
</g>
<path d="M184.252 331.579C163.878 321.838 147.014 288.347 141.129 272.818C152.102 270.019 175.862 264.991 183.117 267.268C190.372 269.545 206.74 299.919 214.017 314.821C214.056 317.025 209.652 333.176 191.722 380.147C184.999 380.747 180.457 377.741 179.026 376.163C177.584 373.984 176.612 362.016 184.252 331.579Z" fill="#EC6E46"/>
<mask id="mask16" mask-type="alpha" maskUnits="userSpaceOnUse" x="141" y="266" width="74" height="115">
<path d="M184.252 331.579C163.878 321.838 147.014 288.347 141.129 272.818C152.102 270.019 175.862 264.991 183.117 267.268C190.372 269.545 206.74 299.919 214.017 314.821C214.056 317.025 209.652 333.176 191.722 380.147C184.999 380.747 180.457 377.741 179.026 376.163C177.584 373.984 176.612 362.016 184.252 331.579Z" fill="#BC242E"/>
</mask>
<g mask="url(#mask16)">
<path d="M178.037 336.438C157.663 326.697 140.799 293.205 134.914 277.677C145.887 274.878 169.647 269.849 176.902 272.126C184.157 274.403 200.525 304.777 207.803 319.679C207.841 321.883 203.437 338.034 185.507 385.006C178.784 385.605 174.242 382.599 172.811 381.021C171.37 378.842 170.397 366.875 178.037 336.438Z" fill="#991E26"/>
</g>
<path d="M148.645 187.69C153.888 185.26 154.836 174.842 152.24 169.141C156.621 168.511 166.53 168.574 171.114 173.863C167.871 177.455 167.643 188.03 169.092 193.067L148.645 187.69Z" fill="#F2AD6E"/>
<mask id="mask17" mask-type="alpha" maskUnits="userSpaceOnUse" x="148" y="168" width="24" height="26">
<path d="M148.642 187.714C153.903 185.269 154.854 174.788 152.249 169.052C156.645 168.418 166.586 168.482 171.185 173.803C167.931 177.417 167.703 188.057 169.156 193.125L148.642 187.714Z" fill="#A0573A"/>
</mask>
<g mask="url(#mask17)">
<path d="M142.595 187.766C147.839 185.336 148.787 174.919 146.19 169.217C150.572 168.587 160.481 168.65 165.065 173.939C161.822 177.531 161.594 188.106 163.042 193.143L142.595 187.766Z" fill="#A0573A"/>
<path d="M168.578 184.098C157.36 184.541 152.617 169.261 151.648 161.565L172.511 172.831C172.967 173.447 172.819 176.562 168.578 184.098Z" fill="#7B3030"/>
</g>
<path d="M220.481 250.563C228.91 250.576 235.62 210.616 236.01 202.818L223.453 205.128C225.123 205.176 224.019 208.902 217.373 228.174C216.885 225.565 200.939 204.768 193.625 197.258L194.34 229.41C202.515 240.466 212.257 250.55 220.481 250.563Z" fill="#F2AD6E"/>
<mask id="mask18" mask-type="alpha" maskUnits="userSpaceOnUse" x="193" y="197" width="44" height="54">
<path d="M220.481 250.563C228.91 250.576 235.62 210.616 236.01 202.818L223.453 205.128C225.123 205.176 224.019 208.902 217.373 228.174C216.885 225.565 200.939 204.768 193.625 197.258L194.34 229.41C202.515 240.466 212.257 250.55 220.481 250.563Z" fill="#A0573A"/>
</mask>
<g mask="url(#mask18)">
<path d="M216.946 249.143C224.758 248.908 232.153 209.222 232.744 201.506L221.038 204.158L221.039 204.158C222.584 204.155 223.672 204.154 216.946 223.391C216.571 220.826 200.182 204.464 193.625 197.258L193.342 229.009C200.593 239.694 209.326 249.372 216.946 249.143Z" fill="#A0573A"/>
</g>
<path d="M212.562 218.464C208.178 205.341 189.818 192.184 183.989 187.958C188.014 196.782 185.926 209.922 183.121 215.681L195.354 232.094C201.979 232.232 210.581 230.991 212.562 218.464Z" fill="#B4D656"/>
<path d="M167.115 189.528C159.913 192.37 153.523 188.345 151.228 185.977C147.786 184.556 138.005 183.546 135.04 191.502C125.76 208.931 129.778 268.813 141.604 278.048C141.604 278.048 161.374 262.732 173.062 267.468C184.75 272.203 210.292 258.94 204.52 256.887C198.748 254.835 184.855 228.074 190.127 199.769C188.11 186.265 179.029 185.148 174.263 185.977C173.557 185.977 171.139 186.687 167.115 189.528Z" fill="#B4D656"/>
<mask id="mask19" mask-type="alpha" maskUnits="userSpaceOnUse" x="129" y="185" width="77" height="94">
<path d="M167.115 189.605C159.913 192.446 153.523 188.421 151.228 186.053C147.786 184.632 138.005 183.622 135.04 191.578C125.76 209.007 129.778 268.89 141.604 278.124C141.604 278.124 161.374 262.808 173.062 267.544C184.75 272.28 210.292 259.016 204.52 256.964C198.748 254.911 184.855 228.151 190.127 199.845C188.11 186.341 179.029 185.224 174.263 186.053C173.557 186.053 171.139 186.763 167.115 189.605Z" fill="#285519"/>
</mask>
<g mask="url(#mask19)">
<path d="M161.594 185.45C155.461 188.758 150.019 184.072 148.065 181.316C145.134 179.662 136.805 178.486 134.28 187.748C126.377 208.037 129.799 277.745 139.87 288.495C139.87 288.495 156.705 270.666 166.658 276.178C176.612 281.691 198.362 266.252 193.447 263.862C188.531 261.473 174.979 230.27 179.468 197.32C181.649 181.316 171.74 180.351 167.681 181.316C167.08 181.316 165.021 182.143 161.594 185.45Z" fill="#285519"/>
</g>
<path d="M187.217 150.38C191.016 164.787 184.374 180.527 173.991 181.129C162.434 180.978 153.117 174.143 149.317 159.736C145.517 145.329 152.716 131.579 162.543 128.987C172.37 126.396 183.417 135.973 187.217 150.38Z" fill="#A0573A"/>
<mask id="mask20" mask-type="alpha" maskUnits="userSpaceOnUse" x="148" y="128" width="41" height="54">
<path d="M187.314 150.38C191.113 164.787 184.471 180.527 174.088 181.129C162.531 180.978 153.214 174.143 149.414 159.736C145.614 145.329 152.813 131.579 162.64 128.987C172.467 126.396 183.514 135.973 187.314 150.38Z" fill="#A0573A"/>
</mask>
<g mask="url(#mask20)">
<path d="M198.74 151.244C202.539 165.651 195.897 181.391 185.514 181.993C173.957 181.842 164.64 175.007 160.84 160.6C157.04 146.193 164.239 132.443 174.066 129.851C183.893 127.26 194.94 136.838 198.74 151.244Z" fill="#F2AD6E"/>
</g>
<path d="M180.342 142.385C181.609 144.244 181.735 144.996 178.695 147.834C174.515 141.878 170.715 143.296 166.535 141.498C164.583 145.807 160.863 152.926 156.831 155.967C157.005 160.315 156.688 163.153 156.967 164.193L157.161 164.561C157.077 164.489 157.014 164.366 156.967 164.193L154.298 159.113V168.869C147.545 164.665 133.154 159.747 142.478 138.458C152.814 122.036 169.161 124.964 176.592 128.089C180.646 130.286 188.854 136.402 189.26 143.296C189.935 146.421 190.577 153.332 187.74 155.967C187.537 148.466 183.019 146.313 180.342 142.385Z" fill="#DE813E"/>
<mask id="mask21" mask-type="alpha" maskUnits="userSpaceOnUse" x="139" y="125" width="51" height="44">
<path d="M180.054 142.173C181.321 144.032 181.447 144.784 178.407 147.622C174.227 141.666 170.427 143.084 166.246 141.286C164.295 145.595 160.575 152.714 156.543 155.756C156.717 160.103 156.4 162.942 156.679 163.981L156.873 164.349C156.788 164.277 156.726 164.154 156.679 163.981L154.01 158.902V168.657C147.257 164.454 132.866 159.535 142.19 138.247C152.526 121.824 168.873 124.752 176.304 127.878C180.358 130.074 188.566 136.19 188.972 143.084C189.647 146.209 190.289 153.12 187.452 155.756C187.249 148.254 182.731 146.102 180.054 142.173Z" fill="#2B1617"/>
</mask>
<g mask="url(#mask21)">
<path d="M175.45 136.591C177.51 138.394 181.116 141.682 178.604 144.027C174.424 138.071 168.237 140.927 164.056 139.13C162.105 143.438 159.302 150.348 155.27 153.39C155.472 158.445 155.113 163.515 155.698 164.044L149.653 158.719L148.824 164.624C142.071 160.421 127.681 155.502 137.004 134.214C147.341 117.791 163.687 120.719 171.119 123.845C175.173 126.041 180.476 128.327 184.077 135.673C185.23 138.024 187.534 142.299 185.23 146.044C184.206 139.649 178.52 138.804 175.45 136.591Z" fill="#2B1617"/>
</g>
<path d="M182.781 123.142C180.476 125.331 172.314 125.879 168.521 125.879L172.266 129.048C175.627 129.288 182.435 128.443 182.781 123.142Z" fill="#C76A28"/>
<mask id="mask22" mask-type="alpha" maskUnits="userSpaceOnUse" x="168" y="123" width="15" height="7">
<path d="M182.781 123.142C180.476 125.331 172.314 125.879 168.521 125.879L172.266 129.048C175.627 129.288 182.435 128.443 182.781 123.142Z" fill="#EE903A"/>
</mask>
<g mask="url(#mask22)">
<path d="M181.197 122.566C178.729 125.22 169.99 125.883 165.929 125.883L169.939 129.724C173.537 130.015 180.827 128.991 181.197 122.566Z" fill="#2B1617"/>
</g>
<path d="M148.031 155.618C152.259 155.618 153.84 157.654 154.694 159.376V170.886C137.523 168.772 141.88 155.618 148.031 155.618Z" fill="#A0573A"/>
<path d="M171.114 156.482C170.25 157.352 167.657 158.569 164.2 156.482" stroke="#7B3030" stroke-width="1.5" stroke-linecap="round"/>
<path d="M186.094 155.906C185.482 156.775 183.645 157.993 181.197 155.906" stroke="#7B3030" stroke-width="1.5" stroke-linecap="round"/>
<path d="M185.648 150.073C185.179 149.326 183.774 148.12 181.9 149.279" stroke="#7B3030" stroke-linecap="round" stroke-linejoin="round"/>
<path d="M177.816 154.754C177.599 156.233 177.701 158.931 180.044 160.889L177.816 163.108" stroke="#7B3030" stroke-linecap="round" stroke-linejoin="round"/>
<path d="M167.657 167.717C172.588 169.604 177.394 169.29 179.18 168.896C177.974 172.114 175.428 173.27 173.821 173.186C171.766 173.079 167.657 171.835 167.657 167.717Z" stroke="#7B3030" stroke-linecap="round" stroke-linejoin="round"/>
<path d="M193.007 213.885C187.334 212.379 185.687 203.373 184.941 194.728C184.941 194.728 181.917 213.885 184.941 213.885C187.966 213.885 203.422 216.649 193.007 213.885Z" fill="#0B4014"/>
<path d="M185.526 213.229C192.525 211.829 201.178 217.81 204.868 221.5L150.277 281.945C144.975 277.958 134.854 267.209 136.788 256.113C139.206 242.242 151.549 237.152 160.712 235.371C168.041 233.945 168.262 234.225 169.238 231.935C174.709 219.082 176.963 214.941 185.526 213.229Z" fill="#DF8A3B"/>
<path d="M215.026 239.799C215.718 232.695 208.901 224.684 204.859 221.382L150.185 281.753C154.683 286.629 166.392 295.623 177.239 292.587C190.797 288.792 194.626 276.001 195.481 266.706C196.165 259.27 195.864 259.079 198.045 257.879C210.285 251.147 214.18 248.49 215.026 239.799Z" fill="#DF8A3B"/>
<path d="M182.409 209.427C189.408 208.027 198.061 214.008 201.752 217.698L147.16 278.144C141.858 274.156 131.737 263.408 133.671 252.311C136.089 238.441 148.433 233.35 157.595 231.569C164.925 230.144 165.146 230.424 166.121 228.133C171.593 215.28 173.846 211.139 182.409 209.427Z" fill="#732118"/>
<path d="M211.91 235.997C212.601 228.893 205.784 220.883 201.743 217.58L147.069 277.951C151.567 282.827 163.275 291.821 174.122 288.785C187.681 284.99 191.509 272.199 192.364 262.904C193.048 255.469 192.747 255.277 194.929 254.077C207.169 247.346 211.063 244.688 211.91 235.997Z" fill="#732118"/>
<circle cx="182.028" cy="239.204" r="11.58" fill="#491317"/>
<path d="M184.191 228.897L235.601 174.05L242.218 179.395L192.462 235.896L184.191 228.897Z" fill="#734448"/>
<path d="M235.494 174.298C236.128 173.501 236.592 171.443 236.745 170.513L250.648 155.749C251.64 156.457 253.089 157.675 254.432 157C255.775 156.324 256.736 156.554 257.358 157.081C257.98 157.607 258.172 158.02 257.909 160.151C257.647 162.282 258.794 163.443 259.334 163.882L244.152 178.866C243.038 178.631 242.143 179.404 241.834 179.82L235.494 174.298Z" fill="#491317"/>
<rect x="153.275" y="252.566" width="25.4507" height="3.05408" transform="rotate(38.8527 153.275 252.566)" fill="#491317"/>
<path d="M237.128 175.069L158.995 258.928M238.91 176.596L161.921 261.474M240.564 177.995L164.976 263.764" stroke="#E8F5F8"/>
<path d="M245.717 159.286L247.212 160.288L246.136 161.409C246.037 160.909 245.416 159.994 243.718 160.329C241.595 160.747 243.7 157.608 245.397 157.663C246.755 157.707 246.176 158.763 245.717 159.286Z" fill="#68241B"/>
<path d="M241.645 163.867L243.14 164.87L242.063 165.99C241.965 165.49 241.344 164.575 239.646 164.91C237.523 165.328 239.628 162.19 241.325 162.244C242.683 162.288 242.104 163.344 241.645 163.867Z" fill="#68241B"/>
<path d="M251.587 173.368L250.154 172.28L251.294 171.225C251.363 171.729 251.929 172.679 253.644 172.445C255.787 172.151 253.502 175.161 251.811 175.007C250.458 174.884 251.098 173.863 251.587 173.368Z" fill="#68241B"/>
<path d="M255.647 169.268L254.252 168.132L255.427 167.116C255.479 167.623 256.013 168.591 257.734 168.415C259.887 168.194 257.501 171.125 255.816 170.914C254.468 170.745 255.142 169.747 255.647 169.268Z" fill="#68241B"/>
<ellipse cx="246.478" cy="165.319" rx="1.35053" ry="7.6352" transform="rotate(44.2539 246.478 165.319)" fill="#68241B"/>
<ellipse cx="249.786" cy="168.882" rx="1.35053" ry="7.6352" transform="rotate(44.2539 249.786 168.882)" fill="#68241B"/>
<path d="M124.338 249.132C123.103 240.61 124.086 222.492 124.732 214.498L137.263 216.726C138.387 217.546 140.586 223.261 140.389 239.56C143.65 239.681 154.811 246.067 159.983 249.246L159.42 257.152C158.252 257.946 149.601 257.452 124.338 249.132Z" fill="#F2AD6E"/>
<path d="M124.211 249.387C123.073 241.128 123.943 223.576 124.52 215.832L135.953 218.009C136.979 218.805 138.993 224.345 138.837 240.136C141.812 240.258 152 246.462 156.723 249.549L156.221 257.208C155.156 257.975 147.265 257.485 124.211 249.387Z" fill="#A0573A"/>
<path d="M170.578 243.426C166.549 242.25 162.071 244.094 160.335 245.162C155.673 246.018 148.008 249.812 154.639 258.142C161.27 266.472 169.141 267.137 172.247 266.428C173.441 266.558 175.702 266.038 175.19 262.921C177.748 262.34 177.41 260.646 176.921 259.872C177.911 259.531 179.533 258.341 178.099 256.306C179.936 255.274 179.604 253.847 179.208 253.263C178.957 252.254 177.391 249.83 173.14 248.199C175.89 248.849 176.114 247.591 175.883 246.881C175.793 246.219 174.606 244.601 170.578 243.426Z" fill="#F2AD6E"/>
<mask id="mask23" mask-type="alpha" maskUnits="userSpaceOnUse" x="151" y="242" width="30" height="25">
<path d="M170.867 243.038C166.745 241.841 162.158 243.732 160.38 244.827C155.607 245.708 147.755 249.599 154.534 258.113C161.312 266.626 169.368 267.297 172.549 266.569C173.771 266.7 176.085 266.165 175.566 262.977C178.185 262.38 177.84 260.647 177.341 259.856C178.355 259.506 180.016 258.286 178.551 256.206C180.433 255.149 180.095 253.689 179.69 253.092C179.434 252.06 177.835 249.582 173.484 247.919C176.299 248.581 176.53 247.293 176.294 246.567C176.203 245.889 174.989 244.236 170.867 243.038Z" fill="#A0573A"/>
</mask>
<g mask="url(#mask23)">
<path d="M168.21 242.307C163.845 241.005 159.013 242.975 157.143 244.123C152.107 245.021 143.841 249.086 151.07 258.171C158.298 267.255 166.815 268.029 170.17 267.281C171.463 267.43 173.904 266.881 173.33 263.494C176.092 262.881 175.715 261.041 175.181 260.197C176.25 259.834 177.996 258.554 176.431 256.336C178.411 255.229 178.043 253.678 177.611 253.041C177.332 251.945 175.623 249.303 171.013 247.505C173.992 248.229 174.226 246.865 173.971 246.092C173.869 245.373 172.574 243.61 168.21 242.307Z" fill="#A0573A"/>
</g>
<path d="M121.328 229.747C121.229 221.563 125.303 189.659 139.182 186.426C153.919 182.993 156.674 195.893 153.723 205.257L147.485 229.747C144.481 231.953 133.159 234.669 121.328 229.747Z" fill="#285519"/>
<mask id="mask24" mask-type="alpha" maskUnits="userSpaceOnUse" x="121" y="185" width="34" height="48">
<path d="M121.328 229.747C121.229 221.563 125.303 189.659 139.182 186.426C153.919 182.993 156.674 195.893 153.723 205.257L147.485 229.747C144.481 231.953 133.159 234.669 121.328 229.747Z" fill="#285519"/>
</mask>
<g mask="url(#mask24)">
<path d="M134.402 234.14C145.001 239.67 147.992 208.244 144.035 193.432C142.061 186.04 149.906 200.708 148.228 208.892L146.176 229.498C144.734 231.51 139.589 237.957 134.402 234.14Z" fill="#B4D656"/>
</g>
<path d="M168.422 149.543C167.459 149.214 165.268 149.067 164.209 151.11" stroke="#7B3030" stroke-linecap="round" stroke-linejoin="round"/>
<path d="M214.928 202.074C218.307 204.935 224.311 208.602 231.035 207.787C234.554 206.593 236.106 205.434 236.593 199.446C237.201 191.962 228.168 182.069 223.69 180.568C220.108 179.367 221.836 184.03 223.148 186.511C221.874 185.729 219.547 185.159 220.435 189.14C216.926 188.543 216.727 191.208 217.066 192.615C215.885 191.907 213.651 191.547 214.165 195.778C212.501 193.731 210.588 194.764 210.617 195.697C210.646 196.631 210.008 198.173 214.928 202.074Z" fill="#A0573A"/>
<mask id="mask25" mask-type="alpha" maskUnits="userSpaceOnUse" x="210" y="180" width="27" height="28">
<path d="M214.932 202.149C218.312 205.01 224.315 208.677 231.039 207.862C234.558 206.668 236.11 205.509 236.597 199.521C237.205 192.037 228.172 182.144 223.695 180.643C220.112 179.442 221.84 184.105 223.152 186.586C221.878 185.804 219.552 185.234 220.439 189.215C216.93 188.619 216.731 191.283 217.07 192.69C215.889 191.982 213.656 191.622 214.169 195.853C212.506 193.806 210.592 194.839 210.621 195.772C210.65 196.706 210.012 198.248 214.932 202.149Z" fill="#A0573A"/>
</mask>
<g mask="url(#mask25)">
<path d="M231.931 207.813C232.863 201.436 233.485 187.21 224.649 180.09C217.946 177.019 212.884 173.681 221.67 178.164C222.766 178.723 223.756 179.37 224.649 180.09C227.053 181.191 229.668 182.258 231.931 182.917C236.938 188.39 240.251 191.415 240.251 199.193C237.226 204.954 233.999 208.174 231.931 207.813Z" fill="#F2AD6E"/>
</g>
<path d="M354.472 63.8272C314.142 84.7217 321.439 120.143 330.13 135.241C324.704 119.595 321.977 90.3837 354.472 98.7123C386.966 107.041 387.744 97.2511 387.744 88.3016C387.744 68.3933 403.3 63.8272 429.226 63.8272C455.152 63.8272 545.332 9.09491 559.434 -13.9791C559.434 -13.9791 562.171 -54.5261 504.701 -13.9791C447.231 26.5679 370.488 -6.74641 354.472 10.4952C336.755 23.6456 330.13 48.8504 358.217 46.1108C386.303 43.3711 383.423 50.8595 354.472 63.8272Z" fill="url(#paint12_linear)"/>
<g style="mix-blend-mode:color-dodge">
<path d="M128.192 420.143H89.446L74.3223 387.447L86.7093 393.497V387.447L94.0551 393.497L110.619 370.019L122.142 393.497L134.673 387.447L128.192 420.143Z" fill="#FFD167"/>
<path d="M171.834 411.357H146.196L139.714 400.411L149.365 404.011V397.098L154.406 404.011L160.456 393.497L167.369 404.011L176.011 400.411L171.834 411.357Z" fill="#FFD167"/>
</g>
<mask id="mask26" mask-type="alpha" maskUnits="userSpaceOnUse" x="74" y="370" width="103" height="51">
<path d="M128.192 420.143H89.446L74.3223 387.447L86.7093 393.497V387.447L94.0551 393.497L110.619 370.019L122.142 393.497L134.673 387.447L128.192 420.143Z" fill="#600E6C"/>
<path d="M171.834 411.357H146.196L139.714 400.411L149.365 404.011V397.098L154.406 404.011L160.456 393.497L167.369 404.011L176.011 400.411L171.834 411.357Z" fill="#600E6C"/>
</mask>
<g mask="url(#mask26)">
<path d="M125.769 427.633H86.6939L71.4417 384.978L83.934 392.87V384.978L91.3422 392.87L108.047 362.241L120.27 395.801L132.305 384.978L125.769 427.633Z" fill="#600E6C"/>
<path d="M125.769 427.633H86.6939L71.4417 384.978L83.934 392.87V384.978L91.3422 392.87L108.047 362.241L120.27 395.801L132.305 384.978L125.769 427.633Z" fill="url(#paint13_linear)"/>
<path d="M169.782 416.171H143.926L137.986 398.97L148.501 402.571L149.077 395.801L154.55 403.435L157.575 388.023L166.793 404.444L174.715 398.97L169.782 416.171Z" fill="#600E6C"/>
<path d="M169.782 416.171H143.926L137.986 398.97L148.501 402.571L149.077 395.801L154.55 403.435L157.575 388.023L166.793 404.444L174.715 398.97L169.782 416.171Z" fill="url(#paint14_linear)"/>
</g>
<mask id="mask27" mask-type="alpha" maskUnits="userSpaceOnUse" x="74" y="370" width="103" height="51">
<path d="M128.192 420.143H89.446L74.3223 387.447L86.7093 393.497V387.447L94.0551 393.497L110.619 370.019L122.142 393.497L134.673 387.447L128.192 420.143Z" fill="#491317"/>
<path d="M171.834 411.357H146.196L139.714 400.411L149.365 404.011V397.098L154.406 404.011L160.456 393.497L167.369 404.011L176.011 400.411L171.834 411.357Z" fill="#491317"/>
</mask>
<g mask="url(#mask27)">
<path d="M111.051 428.353L110.255 417.695M108.459 393.641L109.357 405.668L109.806 411.681M110.255 417.695L121.134 406.748M110.255 417.695L109.806 411.681M109.806 411.681L91.8945 402.715" stroke="#8E294D" stroke-width="2" stroke-linecap="round" stroke-linejoin="round"/>
<path d="M160.6 415.102V411.069M160.6 403.723V407.396M160.6 411.069L151.813 406.172M160.6 411.069V407.396M160.6 407.396L163.624 405.02" stroke="#8E294D" stroke-width="2" stroke-linecap="round"/>
</g>
<path d="M546.175 395H503.517L492 360.286L506.219 377.286L523.14 350L534.089 373.857L546.175 360.286V380L553 370.429L546.175 395Z" fill="#FF4860"/>
<mask id="mask28" mask-type="alpha" maskUnits="userSpaceOnUse" x="491" y="349" width="63" height="46">
<g style="mix-blend-mode:color-dodge">
<path d="M546.327 394.937H503.116L491.449 359.936L505.853 377.077L522.993 349.566L534.084 373.62L546.327 359.936V379.813L553.24 370.163L546.327 394.937Z" fill="#FFD167"/>
</g>
</mask>
<g mask="url(#mask28)">
<path d="M550.648 394.937H507.437L495.77 359.936L506.285 377.653L527.314 349.566L533.94 372.035L550.648 359.936L554.105 372.9L557.562 370.163L550.648 394.937Z" fill="#600E6C"/>
<path d="M550.648 394.937H507.437L495.77 359.936L506.285 377.653L527.314 349.566L533.94 372.035L550.648 359.936L554.105 372.9L557.562 370.163L550.648 394.937Z" fill="url(#paint15_linear)"/>
</g>
<mask id="mask29" mask-type="alpha" maskUnits="userSpaceOnUse" x="491" y="349" width="63" height="46">
<path d="M546.327 394.937H503.116L491.449 359.936L505.853 377.077L522.993 349.566L534.084 373.62L546.327 359.936V379.813L553.24 370.163L546.327 394.937Z" fill="#491317"/>
</mask>
<g mask="url(#mask29)">
<path d="M525.298 402.571V391.192M525.298 372.324V381.758M525.298 391.192L510.606 381.758M525.298 391.192V381.758M525.298 381.758L535.38 378.805" stroke="#8E294D" stroke-width="2" stroke-linecap="round"/>
</g>
<path d="M341.808 83.4661V93.3884M299.242 56L302.428 62.0397M281 182.833L284.909 190.455M410 120.567L405.946 129.195M354.983 114.24V120.567M284.909 101.01L289.976 104.893M322.842 135.522L319.367 140.555M294.175 150.478L299.242 157.093M319.367 174.636L316.182 179.957M366.566 164.858L372.357 174.636M400.155 80.8777L398.128 88.0678M397.259 186.284L400.155 193.762M311.259 222.522L308.943 230" stroke="#FFD167" stroke-width="2" stroke-linecap="round" stroke-linejoin="round"/>
<circle cx="56" cy="53" r="4" fill="white"/>
<path d="M226 60C226 62.2091 224.209 64 222 64C219.791 64 218 62.2091 218 60C218 57.7909 219.791 56 222 56C224.209 56 226 57.7909 226 60ZM219.487 60C219.487 61.3877 220.612 62.5127 222 62.5127C223.388 62.5127 224.513 61.3877 224.513 60C224.513 58.6123 223.388 57.4873 222 57.4873C220.612 57.4873 219.487 58.6123 219.487 60Z" fill="white"/>
<path d="M621 41C621 43.2091 619.209 45 617 45C614.791 45 613 43.2091 613 41C613 38.7909 614.791 37 617 37C619.209 37 621 38.7909 621 41ZM614.487 41C614.487 42.3877 615.612 43.5127 617 43.5127C618.388 43.5127 619.513 42.3877 619.513 41C619.513 39.6123 618.388 38.4873 617 38.4873C615.612 38.4873 614.487 39.6123 614.487 41Z" fill="white"/>
</g>
<defs>
<radialGradient id="paint0_radial" cx="0" cy="0" r="1" gradientUnits="userSpaceOnUse" gradientTransform="translate(474.5 69.5) rotate(90) scale(55.5 54.5)">
<stop stop-color="#FFF0A3"/>
<stop offset="0.350141" stop-color="#FFF8D0" stop-opacity="0.3"/>
<stop offset="0.740055" stop-color="white" stop-opacity="0"/>
</radialGradient>
<linearGradient id="paint1_linear" x1="264.449" y1="162.752" x2="198.193" y2="331.706" gradientUnits="userSpaceOnUse">
<stop stop-color="#EF4683"/>
<stop offset="0.417807" stop-color="#3E0247"/>
</linearGradient>
<linearGradient id="paint2_linear" x1="438.444" y1="148.925" x2="491.449" y2="293.968" gradientUnits="userSpaceOnUse">
<stop offset="0.00648404" stop-color="#EF4683"/>
<stop offset="0.567258" stop-color="#3E0247"/>
</linearGradient>
<linearGradient id="paint3_linear" x1="300.812" y1="360.163" x2="300.812" y2="381.768" gradientUnits="userSpaceOnUse">
<stop offset="0.451497" stop-color="#F4DA9C"/>
<stop offset="1" stop-color="#F4DA9C" stop-opacity="0"/>
</linearGradient>
<linearGradient id="paint4_linear" x1="44.9391" y1="0" x2="44.9391" y2="21.6053" gradientUnits="userSpaceOnUse">
<stop offset="0.386023" stop-color="#F4DA9C"/>
<stop offset="1" stop-color="#F4DA9C" stop-opacity="0"/>
</linearGradient>
<linearGradient id="paint5_linear" x1="157.583" y1="335.091" x2="157.151" y2="382.651" gradientUnits="userSpaceOnUse">
<stop stop-color="#FFD36F" stop-opacity="0"/>
<stop offset="0.661458" stop-color="#F4DA9C"/>
</linearGradient>
<linearGradient id="paint6_linear" x1="534.888" y1="270.392" x2="534.457" y2="317.951" gradientUnits="userSpaceOnUse">
<stop stop-color="#FFD36F" stop-opacity="0"/>
<stop offset="0.661458" stop-color="#F4DA9C"/>
</linearGradient>
<radialGradient id="paint7_radial" cx="0" cy="0" r="1" gradientUnits="userSpaceOnUse" gradientTransform="translate(340.068 240.531) rotate(92.8222) scale(102.389)">
<stop offset="0.416667" stop-color="#D72F2E"/>
<stop offset="1" stop-color="#D72F2E" stop-opacity="0"/>
</radialGradient>
<radialGradient id="paint8_radial" cx="0" cy="0" r="1" gradientUnits="userSpaceOnUse" gradientTransform="translate(340.068 269.338) rotate(89.9082) scale(89.8783)">
<stop offset="0.32662" stop-color="#FF6F43"/>
<stop offset="0.77875" stop-color="#FF6F43" stop-opacity="0"/>
</radialGradient>
<radialGradient id="paint9_radial" cx="0" cy="0" r="1" gradientUnits="userSpaceOnUse" gradientTransform="translate(333.64 252.486) rotate(90.0264) scale(115.517 84.7342)">
<stop offset="0.466315" stop-color="#FFD26A"/>
<stop offset="0.935131" stop-color="#FF6F43"/>
</radialGradient>
<radialGradient id="paint10_radial" cx="0" cy="0" r="1" gradientUnits="userSpaceOnUse" gradientTransform="translate(340.212 293.104) rotate(90) scale(82.3883 60.806)">
<stop offset="0.321369" stop-color="#FF6F43"/>
<stop offset="1" stop-color="#D72F2E"/>
</radialGradient>
<radialGradient id="paint11_radial" cx="0" cy="0" r="1" gradientUnits="userSpaceOnUse" gradientTransform="translate(340.212 276.396) rotate(90.1516) scale(54.4456 40.6182)">
<stop stop-color="#FF6F43"/>
<stop offset="0.774481" stop-color="#D72F2E"/>
</radialGradient>
<linearGradient id="paint12_linear" x1="441.391" y1="-32" x2="441.391" y2="135.241" gradientUnits="userSpaceOnUse">
<stop offset="0.24423" stop-color="white" stop-opacity="0"/>
<stop offset="0.702342" stop-color="#FF6F43" stop-opacity="0.19"/>
</linearGradient>
<linearGradient id="paint13_linear" x1="186.526" y1="371.027" x2="90.4543" y2="371.891" gradientUnits="userSpaceOnUse">
<stop offset="0.053958" stop-color="#FF4860"/>
<stop offset="0.815233" stop-color="#600E6C"/>
</linearGradient>
<linearGradient id="paint14_linear" x1="186.526" y1="371.027" x2="90.4543" y2="371.891" gradientUnits="userSpaceOnUse">
<stop offset="0.053958" stop-color="#FF4860"/>
<stop offset="0.815233" stop-color="#600E6C"/>
</linearGradient>
<linearGradient id="paint15_linear" x1="530.195" y1="349.566" x2="489.289" y2="349.566" gradientUnits="userSpaceOnUse">
<stop offset="0.153923" stop-color="#600E6C"/>
<stop offset="1" stop-color="#FF4860"/>
</linearGradient>
<clipPath id="clip0">
<rect width="681" height="455" fill="white"/>
</clipPath>
</defs>
</svg>
