<svg width="2422" height="1656" viewBox="0 0 2422 1656" fill="none" xmlns="http://www.w3.org/2000/svg">
<g clip-path="url(#clip0)">
<ellipse cx="1854.4" cy="367" rx="196.396" ry="200" fill="url(#paint0_radial)"/>
<circle cx="1857.34" cy="364.105" r="69.5523" fill="#FFFBD2"/>
<path d="M579.369 398.64L671.149 273L766.527 398.64H732.935L831.912 557.944H766.527L885 744H445L579.369 557.944H504.986L612.962 398.64H579.369Z" fill="#270E48" fill-opacity="0.5"/>
<path d="M1819.11 528.941L1989.94 295L2167.48 528.941H2104.95L2289.18 825.565H2167.48L2388 1172H1569L1819.11 825.565H1680.66L1881.64 528.941H1819.11Z" fill="#270E48" fill-opacity="0.8"/>
<path d="M1819.11 528.941L1989.94 295L2167.48 528.941H2104.95L2289.18 825.565H2167.48L2388 1172H1569L1819.11 825.565H1680.66L1881.64 528.941H1819.11Z" fill="url(#paint1_linear)" fill-opacity="0.8"/>
<path d="M60.3538 409.856L341.323 26L633.311 409.856H530.472L833.479 896.563H633.311L996 1465H-351L60.3538 896.563H-167.36L163.192 409.856H60.3538Z" fill="#270E48"/>
<path d="M60.3538 409.856L341.323 26L633.311 409.856H530.472L833.479 896.563H633.311L996 1465H-351L60.3538 896.563H-167.36L163.192 409.856H60.3538Z" fill="url(#paint2_linear)"/>
<path d="M1390.37 388.64L1482.15 263L1577.53 388.64H1543.93L1642.91 547.944H1577.53L1696 734H1256L1390.37 547.944H1315.99L1423.96 388.64H1390.37Z" fill="#270E48" fill-opacity="0.5"/>
<path d="M932.775 329.876L1106.11 93L1286.25 329.876H1222.8L1409.74 630.22H1286.25L1510 981H679L932.775 630.22H792.292L996.219 329.876H932.775Z" fill="#270E48"/>
<path d="M932.775 329.876L1106.11 93L1286.25 329.876H1222.8L1409.74 630.22H1286.25L1510 981H679L932.775 630.22H792.292L996.219 329.876H932.775Z" fill="url(#paint3_linear)"/>
<path d="M1579.45 336.753C1394.99 437.435 1428.36 608.114 1468.11 680.868C1443.3 605.474 1430.82 464.718 1579.45 504.85C1728.07 544.982 1731.63 497.809 1731.63 454.685C1731.63 358.755 1802.78 336.753 1921.36 336.753C2039.94 336.753 2452.4 73.0199 2516.91 -38.1646C2516.91 -38.1646 2529.42 -233.544 2266.57 -38.1646C2003.71 157.215 1652.7 -3.3131 1579.45 79.7673C1498.42 143.134 1468.11 264.586 1596.58 251.385C1725.04 238.183 1711.86 274.267 1579.45 336.753Z" fill="url(#paint4_linear)"/>
<rect x="1247.04" y="1242.34" width="293.88" height="83.3355" rx="41.6678" transform="rotate(-29.134 1247.04 1242.34)" fill="#491317"/>
<mask id="mask0" mask-type="alpha" maskUnits="userSpaceOnUse" x="1247" y="1099" width="298" height="217">
<rect x="1247.04" y="1242.34" width="293.88" height="83.3355" rx="41.6678" transform="rotate(-29.134 1247.04 1242.34)" fill="#491317"/>
</mask>
<g mask="url(#mask0)">
<g style="mix-blend-mode:color-dodge">
<rect x="1254.11" y="1233.16" width="238.999" height="57.4516" transform="rotate(-28.7975 1254.11 1233.16)" fill="url(#paint5_linear)" fill-opacity="0.8"/>
</g>
<ellipse cx="1297.62" cy="1262.92" rx="39.2628" ry="40.8838" transform="rotate(-32.8722 1297.62 1262.92)" fill="#722D1A"/>
<path d="M1437.78 1237.53C1453.41 1190.35 1421.83 1175.23 1404.08 1173.57L1466.51 1145.23L1516.68 1179.7C1515.28 1186.72 1497.53 1203.22 1437.78 1237.53Z" fill="#491317"/>
</g>
<path d="M1299.9 1232.94C1283.43 1232.94 1274.62 1243.13 1274.62 1260.9C1274.62 1278.67 1293.01 1286.05 1299.9 1285.79C1310.62 1285.79 1319.82 1276.06 1319.82 1263.2C1319.82 1253.62 1313.69 1244.81 1299.9 1244.81C1281.9 1244.81 1277.87 1272.77 1299.9 1272.77" stroke="#491317" stroke-width="6" stroke-linecap="round"/>
<rect x="1630.46" y="1325.7" width="293.88" height="83.3355" rx="41.6678" transform="rotate(-145.033 1630.46 1325.7)" fill="#491317"/>
<mask id="mask1" mask-type="alpha" maskUnits="userSpaceOnUse" x="1389" y="1088" width="290" height="238">
<rect x="1630.46" y="1325.7" width="293.88" height="83.3355" rx="41.6678" transform="rotate(-145.033 1630.46 1325.7)" fill="#491317"/>
</mask>
<g mask="url(#mask1)">
<g style="mix-blend-mode:color-dodge">
<rect width="238.999" height="57.4516" transform="matrix(-0.831862 -0.554982 -0.554982 0.831862 1668.53 1247.06)" fill="url(#paint6_linear)" fill-opacity="0.8"/>
</g>
<ellipse cx="1626.88" cy="1271.22" rx="39.2628" ry="40.8838" transform="rotate(-148.771 1626.88 1271.22)" fill="#722D1A"/>
</g>
<path d="M1623.16 1245.58C1639.63 1245.58 1648.44 1255.76 1648.44 1273.54C1648.44 1291.31 1630.05 1298.69 1623.16 1298.43C1612.44 1298.43 1603.24 1288.7 1603.24 1275.83C1603.24 1266.26 1609.37 1257.45 1623.16 1257.45C1641.16 1257.45 1645.19 1285.41 1623.16 1285.41" stroke="#491317" stroke-width="5" stroke-linecap="round"/>
<circle cx="1478" cy="915.039" r="257" fill="url(#paint7_radial)"/>
<circle cx="1478" cy="991.641" r="180.398" fill="url(#paint8_radial)"/>
<path d="M1375.74 1005.05C1377.78 980.789 1391.36 927.525 1429.36 908.528C1467.35 889.531 1477.87 831.16 1478.38 804.349C1478.38 760.431 1461.53 685.616 1505.19 639.655C1482.21 746.132 1521.28 752.26 1532.77 779.071C1545.03 799.242 1569.69 876.662 1554.99 908.528C1540.28 940.395 1552.43 960.107 1560.35 965.98C1570.31 949.383 1550.42 920.784 1587.92 892.442C1603.15 880.935 1619.33 885.548 1633.89 854.907C1626.74 891.931 1593.75 941.467 1610.9 965.98C1632.35 996.621 1649.21 1093.14 1597.88 1113.82C1617.03 1127.61 1636.95 1109.23 1665.29 1074.75C1672.19 1112.29 1615.5 1198.08 1529.71 1198.08C1459.23 1195.79 1458.47 1177.66 1456.17 1178.17C1431.66 1186.59 1374.82 1199.77 1343.56 1185.06C1312.31 1170.35 1305.77 1141.14 1299.13 1126.08C1287.53 1113.79 1275.67 1099.91 1261.52 1095.74C1259.84 1095.41 1258.08 1095.06 1256.24 1094.67C1258.03 1094.87 1259.79 1095.23 1261.52 1095.74C1291.7 1101.64 1297 1098.79 1320.58 1117.65C1333.99 1132.59 1337.44 1150.13 1349.69 1148.29C1308.02 1088.24 1324.16 1025.22 1337.44 1001.22C1347.9 986.407 1365.01 950.353 1349.69 924.615C1370.53 944.225 1373.57 968.022 1368.46 980.534C1368.2 986.662 1362.87 1005.05 1375.74 1005.05Z" fill="#FFD167"/>
<path d="M1375.74 1005.05C1377.78 980.789 1391.36 927.525 1429.36 908.528C1467.35 889.531 1477.87 831.16 1478.38 804.349C1478.38 760.431 1461.53 685.616 1505.19 639.655C1482.21 746.132 1521.28 752.26 1532.77 779.071C1545.03 799.242 1569.69 876.662 1554.99 908.528C1540.28 940.395 1552.43 960.107 1560.35 965.98C1570.31 949.383 1550.42 920.784 1587.92 892.442C1603.15 880.935 1619.33 885.548 1633.89 854.907C1626.74 891.931 1593.75 941.467 1610.9 965.98C1632.35 996.621 1649.21 1093.14 1597.88 1113.82C1617.03 1127.61 1636.95 1109.23 1665.29 1074.75C1672.19 1112.29 1615.5 1198.08 1529.71 1198.08C1459.23 1195.79 1458.47 1177.66 1456.17 1178.17C1431.66 1186.59 1374.82 1199.77 1343.56 1185.06C1312.31 1170.35 1305.77 1141.14 1299.13 1126.08C1287.53 1113.79 1275.67 1099.91 1261.52 1095.74C1259.84 1095.41 1258.08 1095.06 1256.24 1094.67C1258.03 1094.87 1259.79 1095.23 1261.52 1095.74C1291.7 1101.64 1297 1098.79 1320.58 1117.65C1333.99 1132.59 1337.44 1150.13 1349.69 1148.29C1308.02 1088.24 1324.16 1025.22 1337.44 1001.22C1347.9 986.407 1365.01 950.353 1349.69 924.615C1370.53 944.225 1373.57 968.022 1368.46 980.534C1368.2 986.662 1362.87 1005.05 1375.74 1005.05Z" fill="url(#paint9_radial)"/>
<path d="M1423.13 1066.46C1424.3 1053.19 1432.13 1024.05 1454.02 1013.66C1475.9 1003.27 1481.96 971.346 1482.26 956.682C1482.26 932.66 1482.26 857.573 1526.39 835.756C1493.65 875.628 1491.41 919.262 1513.59 942.855C1520.65 953.889 1534.86 996.234 1526.39 1013.66C1517.91 1031.09 1524.92 1041.88 1529.48 1045.09C1535.21 1036.01 1523.75 1020.37 1545.36 1004.86C1554.13 998.571 1594.09 991.693 1602.48 974.933C1598.36 995.184 1548.71 1031.68 1558.6 1045.09C1570.96 1061.85 1574.93 1113.8 1545.36 1125.11C1558.6 1138.18 1588.69 1116.73 1590.61 1115.48C1591.49 1129.44 1558.6 1172.04 1511.82 1172.04C1471.23 1170.78 1470.79 1160.87 1469.46 1161.15C1455.34 1165.75 1422.6 1172.96 1404.59 1164.92C1386.59 1156.87 1382.82 1140.89 1379 1132.65C1372.31 1125.93 1365.48 1118.34 1357.33 1116.06C1356.36 1115.88 1355.35 1115.69 1354.29 1115.48C1355.32 1115.59 1356.34 1115.78 1357.33 1116.06C1374.72 1119.29 1377.77 1117.73 1391.36 1128.05C1399.08 1136.22 1401.06 1145.81 1408.12 1144.81C1384.12 1111.96 1393.41 1077.49 1401.06 1064.36C1407.09 1056.26 1400.18 1027.74 1391.36 1013.66C1403.36 1024.39 1421.88 1046.2 1418.94 1053.05C1418.79 1056.4 1415.71 1066.46 1423.13 1066.46Z" fill="#FF6F43"/>
<path d="M1423.13 1066.46C1424.3 1053.19 1432.13 1024.05 1454.02 1013.66C1475.9 1003.27 1481.96 971.346 1482.26 956.682C1482.26 932.66 1482.26 857.573 1526.39 835.756C1493.65 875.628 1491.41 919.262 1513.59 942.855C1520.65 953.889 1534.86 996.234 1526.39 1013.66C1517.91 1031.09 1524.92 1041.88 1529.48 1045.09C1535.21 1036.01 1523.75 1020.37 1545.36 1004.86C1554.13 998.571 1594.09 991.693 1602.48 974.933C1598.36 995.184 1548.71 1031.68 1558.6 1045.09C1570.96 1061.85 1574.93 1113.8 1545.36 1125.11C1558.6 1138.18 1588.69 1116.73 1590.61 1115.48C1591.49 1129.44 1558.6 1172.04 1511.82 1172.04C1471.23 1170.78 1470.79 1160.87 1469.46 1161.15C1455.34 1165.75 1422.6 1172.96 1404.59 1164.92C1386.59 1156.87 1382.82 1140.89 1379 1132.65C1372.31 1125.93 1365.48 1118.34 1357.33 1116.06C1356.36 1115.88 1355.35 1115.69 1354.29 1115.48C1355.32 1115.59 1356.34 1115.78 1357.33 1116.06C1374.72 1119.29 1377.77 1117.73 1391.36 1128.05C1399.08 1136.22 1401.06 1145.81 1408.12 1144.81C1384.12 1111.96 1393.41 1077.49 1401.06 1064.36C1407.09 1056.26 1400.18 1027.74 1391.36 1013.66C1403.36 1024.39 1421.88 1046.2 1418.94 1053.05C1418.79 1056.4 1415.71 1066.46 1423.13 1066.46Z" fill="url(#paint10_radial)"/>
<path d="M1453.95 1109.73C1454.47 1104.02 1457.87 1091.48 1467.4 1087C1476.92 1082.53 1479.56 1068.78 1479.69 1062.47C1479.69 1052.13 1479.69 1019.8 1498.89 1010.41C1484.64 1027.57 1483.67 1046.36 1493.32 1056.52C1496.39 1061.27 1502.58 1079.5 1498.89 1087C1495.2 1094.51 1498.25 1099.15 1500.23 1100.53C1502.73 1096.62 1497.74 1089.89 1507.15 1083.21C1510.97 1080.5 1528.36 1077.54 1532 1070.33C1530.21 1079.05 1508.61 1094.76 1512.91 1100.53C1518.29 1107.75 1520.01 1130.11 1507.15 1134.98C1512.91 1140.61 1526.01 1131.38 1526.84 1130.84C1527.22 1136.85 1512.91 1155.19 1492.55 1155.19C1474.89 1154.65 1474.69 1150.38 1474.12 1150.5C1467.97 1152.48 1453.72 1155.58 1445.89 1152.12C1438.05 1148.66 1436.41 1141.78 1434.75 1138.23C1431.84 1135.34 1428.87 1132.07 1425.32 1131.09C1424.9 1131.01 1424.46 1130.93 1424 1130.84C1424.45 1130.88 1424.89 1130.97 1425.32 1131.09C1432.89 1132.48 1434.21 1131.8 1440.13 1136.25C1443.49 1139.76 1444.35 1143.89 1447.42 1143.46C1436.98 1129.32 1441.02 1114.48 1444.35 1108.83C1446.98 1105.34 1443.97 1093.06 1440.13 1087C1445.35 1091.62 1453.41 1101.01 1452.13 1103.96C1452.07 1105.4 1450.73 1109.73 1453.95 1109.73Z" fill="#D72F2E"/>
<path d="M1453.95 1109.73C1454.47 1104.02 1457.87 1091.48 1467.4 1087C1476.92 1082.53 1479.56 1068.78 1479.69 1062.47C1479.69 1052.13 1479.69 1019.8 1498.89 1010.41C1484.64 1027.57 1483.67 1046.36 1493.32 1056.52C1496.39 1061.27 1502.58 1079.5 1498.89 1087C1495.2 1094.51 1498.25 1099.15 1500.23 1100.53C1502.73 1096.62 1497.74 1089.89 1507.15 1083.21C1510.97 1080.5 1528.36 1077.54 1532 1070.33C1530.21 1079.05 1508.61 1094.76 1512.91 1100.53C1518.29 1107.75 1520.01 1130.11 1507.15 1134.98C1512.91 1140.61 1526.01 1131.38 1526.84 1130.84C1527.22 1136.85 1512.91 1155.19 1492.55 1155.19C1474.89 1154.65 1474.69 1150.38 1474.12 1150.5C1467.97 1152.48 1453.72 1155.58 1445.89 1152.12C1438.05 1148.66 1436.41 1141.78 1434.75 1138.23C1431.84 1135.34 1428.87 1132.07 1425.32 1131.09C1424.9 1131.01 1424.46 1130.93 1424 1130.84C1424.45 1130.88 1424.89 1130.97 1425.32 1131.09C1432.89 1132.48 1434.21 1131.8 1440.13 1136.25C1443.49 1139.76 1444.35 1143.89 1447.42 1143.46C1436.98 1129.32 1441.02 1114.48 1444.35 1108.83C1446.98 1105.34 1443.97 1093.06 1440.13 1087C1445.35 1091.62 1453.41 1101.01 1452.13 1103.96C1452.07 1105.4 1450.73 1109.73 1453.95 1109.73Z" fill="url(#paint11_radial)"/>
<path d="M1475.89 299.899V339.6M1368.1 190L1376.16 214.166M1321.9 697.489L1331.8 727.985M1648.57 448.348L1638.3 482.871M1509.25 423.031V448.348M1331.8 370.095L1344.63 385.631M1427.86 508.188L1419.06 528.326M1355.26 568.028L1368.1 594.496M1419.06 664.693L1410.99 685.982M1538.58 625.566L1553.24 664.693M1623.64 289.542L1618.5 318.311M1616.3 711.299L1623.64 741.219M1398.53 856.296L1392.66 886.216" stroke="#FFD167" stroke-width="5" stroke-linecap="round" stroke-linejoin="round"/>
<path d="M1886.5 1236.5H1736.5L1696 1115L1746 1174.5L1805.5 1079L1844 1162.5L1886.5 1115V1184L1910.5 1150.5L1886.5 1236.5Z" fill="#FF4860"/>
<mask id="mask2" mask-type="alpha" maskUnits="userSpaceOnUse" x="1696" y="1079" width="215" height="158">
<g style="mix-blend-mode:color-dodge">
<path d="M1886.5 1236.5H1736.5L1696 1115L1746 1174.5L1805.5 1079L1844 1162.5L1886.5 1115V1184L1910.5 1150.5L1886.5 1236.5Z" fill="#FFD167"/>
</g>
</mask>
<g mask="url(#mask2)">
<path d="M1901.5 1236.5H1751.5L1711 1115L1747.5 1176.5L1820.5 1079L1843.5 1157L1901.5 1115L1913.5 1160L1925.5 1150.5L1901.5 1236.5Z" fill="#600E6C"/>
<path d="M1901.5 1236.5H1751.5L1711 1115L1747.5 1176.5L1820.5 1079L1843.5 1157L1901.5 1115L1913.5 1160L1925.5 1150.5L1901.5 1236.5Z" fill="url(#paint12_linear)"/>
</g>
<mask id="mask3" mask-type="alpha" maskUnits="userSpaceOnUse" x="1696" y="1079" width="215" height="158">
<path d="M1886.5 1236.5H1736.5L1696 1115L1746 1174.5L1805.5 1079L1844 1162.5L1886.5 1115V1184L1910.5 1150.5L1886.5 1236.5Z" fill="#491317"/>
</mask>
<g mask="url(#mask3)">
<path d="M1813.5 1263V1223.5M1813.5 1158V1190.75M1813.5 1223.5L1762.5 1190.75M1813.5 1223.5V1190.75M1813.5 1190.75L1848.5 1180.5" stroke="#8E294D" stroke-width="5" stroke-linecap="round"/>
</g>
<path d="M1970.6 528.664L2222.37 120L2484.01 528.664H2391.86L2663.37 1046.83H2484.01L2809 1652H1602L1970.6 1046.83H1766.55L2062.75 528.664H1970.6Z" fill="#270E48"/>
<path d="M1970.6 528.664L2222.37 120L2484.01 528.664H2391.86L2663.37 1046.83H2484.01L2809 1652H1602L1970.6 1046.83H1766.55L2062.75 528.664H1970.6Z" fill="url(#paint13_linear)"/>
<path d="M61.1095 1355.37C-56.5494 1371.76 -42.967 1497.98 -21.4685 1559.05C212.994 1535.53 712.824 1497.87 836.448 1535.4C931.165 1506.62 870.475 1433.47 828.291 1400.49C830.057 1358.68 840.578 1262.19 720.56 1255.13C760.144 1217.59 714.572 1162.77 714.572 1162.77C714.572 1162.77 646.552 1097.74 575.449 1127.5C540.634 1069.84 493.002 1099.48 473.538 1121.51C475.749 1110.39 464.735 1078.77 402.991 1041.2C325.81 994.235 238.979 1040.75 222.086 1133.81C140.245 1134.31 123.173 1200.4 124.867 1233.38C92.6487 1239.83 34.7919 1273.27 61.1095 1355.37Z" fill="#3E0247"/>
<path d="M61.1095 1355.37C-56.5494 1371.76 -42.967 1497.98 -21.4685 1559.05C212.994 1535.53 712.824 1497.87 836.448 1535.4C931.165 1506.62 870.475 1433.47 828.291 1400.49C830.057 1358.68 840.578 1262.19 720.56 1255.13C760.144 1217.59 714.572 1162.77 714.572 1162.77C714.572 1162.77 646.552 1097.74 575.449 1127.5C540.634 1069.84 493.002 1099.48 473.538 1121.51C475.749 1110.39 464.735 1078.77 402.991 1041.2C325.81 994.235 238.979 1040.75 222.086 1133.81C140.245 1134.31 123.173 1200.4 124.867 1233.38C92.6487 1239.83 34.7919 1273.27 61.1095 1355.37Z" fill="url(#paint14_linear)"/>
<g style="mix-blend-mode:color-dodge">
<path d="M1286 1381H1151.5L1099 1267.5L1142 1288.5V1267.5L1167.5 1288.5L1225 1207L1265 1288.5L1308.5 1267.5L1286 1381Z" fill="#FFD167"/>
<path d="M1437.5 1350.5H1348.5L1326 1312.5L1359.5 1325V1301L1377 1325L1398 1288.5L1422 1325L1452 1312.5L1437.5 1350.5Z" fill="#FFD167"/>
</g>
<mask id="mask4" mask-type="alpha" maskUnits="userSpaceOnUse" x="1099" y="1207" width="353" height="174">
<path d="M1286 1381H1151.5L1099 1267.5L1142 1288.5V1267.5L1167.5 1288.5L1225 1207L1265 1288.5L1308.5 1267.5L1286 1381Z" fill="#600E6C"/>
<path d="M1437.5 1350.5H1348.5L1326 1312.5L1359.5 1325V1301L1377 1325L1398 1288.5L1422 1325L1452 1312.5L1437.5 1350.5Z" fill="#600E6C"/>
</mask>
<g mask="url(#mask4)">
<path d="M1277.59 1407H1141.95L1089 1258.93L1132.37 1286.32V1258.93L1158.08 1286.32L1216.07 1180L1258.5 1296.5L1300.28 1258.93L1277.59 1407Z" fill="#600E6C"/>
<path d="M1277.59 1407H1141.95L1089 1258.93L1132.37 1286.32V1258.93L1158.08 1286.32L1216.07 1180L1258.5 1296.5L1300.28 1258.93L1277.59 1407Z" fill="url(#paint15_linear)"/>
<path d="M1430.38 1367.21H1340.62L1320 1307.5L1356.5 1320L1358.5 1296.5L1377.5 1323L1388 1269.5L1420 1326.5L1447.5 1307.5L1430.38 1367.21Z" fill="#600E6C"/>
<path d="M1430.38 1367.21H1340.62L1320 1307.5L1356.5 1320L1358.5 1296.5L1377.5 1323L1388 1269.5L1420 1326.5L1447.5 1307.5L1430.38 1367.21Z" fill="url(#paint16_linear)"/>
</g>
<mask id="mask5" mask-type="alpha" maskUnits="userSpaceOnUse" x="1099" y="1207" width="353" height="174">
<path d="M1286 1381H1151.5L1099 1267.5L1142 1288.5V1267.5L1167.5 1288.5L1225 1207L1265 1288.5L1308.5 1267.5L1286 1381Z" fill="#491317"/>
<path d="M1437.5 1350.5H1348.5L1326 1312.5L1359.5 1325V1301L1377 1325L1398 1288.5L1422 1325L1452 1312.5L1437.5 1350.5Z" fill="#491317"/>
</mask>
<g mask="url(#mask5)">
<path d="M1226.5 1409.5L1223.74 1372.5M1217.5 1289L1220.62 1330.75L1222.18 1351.62M1223.74 1372.5L1261.5 1334.5M1223.74 1372.5L1222.18 1351.62M1222.18 1351.62L1160 1320.5" stroke="#8E294D" stroke-width="5" stroke-linecap="round" stroke-linejoin="round"/>
<path d="M1398.5 1363.5V1349.5M1398.5 1324V1336.75M1398.5 1349.5L1368 1332.5M1398.5 1349.5V1336.75M1398.5 1336.75L1409 1328.5" stroke="#8E294D" stroke-width="5" stroke-linecap="round"/>
</g>
<path d="M1312.76 861.131H481.541C440.323 920.209 464.367 993.37 481.541 1022.57H1312.76C1337.49 962.113 1339.8 919.522 1312.76 861.131Z" fill="#232255"/>
<mask id="mask6" mask-type="alpha" maskUnits="userSpaceOnUse" x="458" y="861" width="875" height="162">
<path d="M1312.76 861.131H481.541C440.323 920.209 464.367 993.37 481.541 1022.57H1312.76C1337.49 962.113 1339.8 919.522 1312.76 861.131Z" fill="#4B70A7"/>
</mask>
<g mask="url(#mask6)">
<path d="M1295.48 888.609H501.14C461.751 947.687 484.728 1020.85 501.14 1050.04H1295.48C1319.11 989.591 1321.33 947 1295.48 888.609Z" fill="#4B70A7"/>
<path d="M1295.48 888.609H501.14C461.751 947.687 484.728 1020.85 501.14 1050.04H1295.48C1319.11 989.591 1321.33 947 1295.48 888.609Z" fill="url(#paint17_linear)"/>
<path d="M596.143 922.957C587.171 883.457 604.362 823.348 610.11 792.435L1193.3 771.826C1199.57 798.16 1208.35 865.939 1193.3 926.391C1249.74 974.478 1297.77 1051.76 1307.17 1084.39H486.261C505.596 1032.87 547.862 959.022 596.143 922.957Z" fill="#232255"/>
</g>
<path d="M1159.47 772.159C969.975 740.453 730.309 758.948 634.163 772.159C577.888 852.874 651.112 1066.25 673.398 1184H1119.35C1145.46 1091.52 1190.03 879.686 1159.47 772.159Z" fill="#3C1414"/>
<mask id="mask7" mask-type="alpha" maskUnits="userSpaceOnUse" x="613" y="754" width="557" height="431">
<path d="M1159.47 772.159C969.975 740.453 730.309 758.948 634.163 772.159C577.888 852.874 651.112 1066.25 673.398 1184H1119.35C1145.46 1091.52 1190.03 879.686 1159.47 772.159Z" fill="#5C2C2C"/>
</mask>
<g mask="url(#mask7)">
<path d="M1157.11 820.667C956.144 788.199 725.554 807.139 623.583 820.667C604.712 866.05 670.285 1121.81 693.92 1242.39H1049.04C1076.72 1147.69 1189.53 930.774 1157.11 820.667Z" fill="#50282A"/>
<path d="M1157.11 820.667C956.144 788.199 725.554 807.139 623.583 820.667C604.712 866.05 670.285 1121.81 693.92 1242.39H1049.04C1076.72 1147.69 1189.53 930.774 1157.11 820.667Z" fill="url(#paint18_linear)"/>
<path d="M812.565 873.151C732.342 856.477 769.492 829.61 790.239 813.043L1142.3 807.611C1137.03 848.063 1123.84 861.924 1090.44 878.158C1035.69 885.106 892.788 889.826 812.565 873.151Z" fill="#311323"/>
</g>
<path d="M1229.17 1015.7C1317.1 1080.27 1358.7 1222.35 1369 1285.33C1278.32 1410.35 1192.53 1279.03 1160.48 1197.74C1146.74 1110.15 1141.24 951.122 1229.17 1015.7Z" fill="#AA5D52"/>
<path d="M1229.17 1015.7C1317.1 1080.27 1358.7 1222.35 1369 1285.33C1278.32 1410.35 1192.53 1279.03 1160.48 1197.74C1146.74 1110.15 1141.24 951.122 1229.17 1015.7Z" fill="url(#paint19_linear)"/>
<mask id="mask8" mask-type="alpha" maskUnits="userSpaceOnUse" x="1152" y="1000" width="217" height="337">
<path d="M1229.17 1015.7C1317.1 1080.27 1358.7 1222.35 1369 1285.33C1278.32 1410.35 1192.53 1279.03 1160.48 1197.74C1146.74 1110.15 1141.24 951.122 1229.17 1015.7Z" fill="#AA5D52"/>
<path d="M1229.17 1015.7C1317.1 1080.27 1358.7 1222.35 1369 1285.33C1278.32 1410.35 1192.53 1279.03 1160.48 1197.74C1146.74 1110.15 1141.24 951.122 1229.17 1015.7Z" fill="url(#paint20_linear)"/>
</mask>
<g mask="url(#mask8)">
<path d="M1202.41 1254.41C1297.21 1232.43 1332.36 1170.83 1338.09 1142.78L1202.41 1177.13C1192.68 1182.28 1179.06 1204.95 1202.41 1254.41Z" fill="#963D39"/>
</g>
<path d="M560.828 1015.7C472.898 1080.27 431.304 1222.35 421 1285.33C511.678 1410.35 597.466 1279.03 629.524 1197.74C643.263 1110.15 648.759 951.122 560.828 1015.7Z" fill="#AA5D52"/>
<path d="M560.828 1015.7C472.898 1080.27 431.304 1222.35 421 1285.33C511.678 1410.35 597.466 1279.03 629.524 1197.74C643.263 1110.15 648.759 951.122 560.828 1015.7Z" fill="url(#paint21_linear)"/>
<mask id="mask9" mask-type="alpha" maskUnits="userSpaceOnUse" x="421" y="1000" width="217" height="337">
<path d="M560.828 1015.7C472.898 1080.27 431.304 1222.35 421 1285.33C511.678 1410.35 597.466 1279.03 629.524 1197.74C643.263 1110.15 648.759 951.122 560.828 1015.7Z" fill="#AA5D52"/>
<path d="M560.828 1015.7C472.898 1080.27 431.304 1222.35 421 1285.33C511.678 1410.35 597.466 1279.03 629.524 1197.74C643.263 1110.15 648.759 951.122 560.828 1015.7Z" fill="url(#paint22_linear)"/>
</mask>
<g mask="url(#mask9)">
<path d="M608.196 1250.98C527.135 1253.73 439.319 1162.82 417.565 1129.04L621.935 1189.15C627.087 1193.73 631.552 1212.51 608.196 1250.98Z" fill="#963D39"/>
</g>
<path d="M547.927 1541.64C517.897 1537.3 504.19 1556.15 544.984 1562.03C620.672 1572.95 575.178 1565.23 547.927 1541.64Z" fill="#963D39"/>
<path d="M511.993 1599.61C501.002 1573.5 546.341 1563.54 570.385 1561.82L589.276 1587.59C582.979 1589.3 558.706 1594.11 511.993 1599.61Z" fill="#963D39"/>
<path d="M491.385 1620.22C480.393 1594.11 525.732 1584.15 549.776 1582.43L568.667 1608.19C562.37 1609.91 538.098 1614.72 491.385 1620.22Z" fill="#A14C47"/>
<path d="M573.848 1273.3C498.283 1203.23 441.609 1251.55 421 1285.33C434.739 1407.6 513.739 1460.5 553.239 1470.8C540.072 1481.68 519.235 1522.67 541.217 1599.61C477.674 1606.48 477.674 1623.65 481.109 1630.52L589.304 1618.5L654.565 1462.22C645.978 1419.28 617.813 1321.39 573.848 1273.3Z" fill="#B5705F"/>
<path d="M573.848 1273.3C498.283 1203.23 441.609 1251.55 421 1285.33C434.739 1407.6 513.739 1460.5 553.239 1470.8C540.072 1481.68 519.235 1522.67 541.217 1599.61C477.674 1606.48 477.674 1623.65 481.109 1630.52L589.304 1618.5L654.565 1462.22C645.978 1419.28 617.813 1321.39 573.848 1273.3Z" fill="url(#paint23_linear)"/>
<path d="M1242.04 1541.64C1272.07 1537.3 1285.78 1556.15 1244.99 1562.03C1169.3 1572.95 1214.79 1565.23 1242.04 1541.64Z" fill="#963D39"/>
<path d="M1277.98 1599.61C1288.97 1573.5 1243.63 1563.54 1219.59 1561.82L1200.7 1587.59C1206.99 1589.3 1231.27 1594.11 1277.98 1599.61Z" fill="#963D39"/>
<path d="M1298.59 1620.22C1309.58 1594.11 1264.24 1584.15 1240.2 1582.43L1221.3 1608.19C1227.6 1609.91 1251.87 1614.72 1298.59 1620.22Z" fill="#A14C47"/>
<path d="M1216.15 1273.3C1291.72 1203.23 1348.39 1251.55 1369 1285.33C1355.26 1407.6 1276.26 1460.5 1236.76 1470.8C1249.93 1481.68 1270.77 1522.67 1248.78 1599.61C1312.33 1606.48 1312.33 1623.65 1308.89 1630.52L1200.7 1618.5L1135.43 1462.22C1144.02 1419.28 1172.19 1321.39 1216.15 1273.3Z" fill="#B5705F"/>
<path d="M1216.15 1273.3C1291.72 1203.23 1348.39 1251.55 1369 1285.33C1355.26 1407.6 1276.26 1460.5 1236.76 1470.8C1249.93 1481.68 1270.77 1522.67 1248.78 1599.61C1312.33 1606.48 1312.33 1623.65 1308.89 1630.52L1200.7 1618.5L1135.43 1462.22C1144.02 1419.28 1172.19 1321.39 1216.15 1273.3Z" fill="url(#paint24_linear)"/>
<path d="M637.464 1915.61C503.766 1613.45 587.307 1385.09 637.464 1342C673.214 1342 766.93 1345.88 852.731 1393.71C934.69 1524.26 901.821 1809.5 879.944 1915.61C831.921 1896.22 723.264 1883.29 637.464 1915.61Z" fill="#236D4E"/>
<mask id="mask10" mask-type="alpha" maskUnits="userSpaceOnUse" x="565" y="1341" width="341" height="575">
<path d="M637.464 1915.61C503.766 1613.45 587.307 1385.09 637.464 1342C673.214 1342 766.93 1345.88 852.731 1393.71C934.69 1524.26 901.821 1809.5 879.944 1915.61C831.921 1896.22 723.264 1883.29 637.464 1915.61Z" fill="#3F9A4B"/>
</mask>
<g mask="url(#mask10)">
<path d="M631.125 1867.52C510.914 1583.32 578.717 1360.09 631.125 1323.11C667.044 1324.94 742.333 1334.93 826.305 1383.22C902.55 1507.25 899.613 1786.7 872.674 1882.98C825.33 1862.72 718.841 1842.25 631.125 1867.52Z" fill="#3F9A4B"/>
<path d="M631.125 1867.52C510.914 1583.32 578.717 1360.09 631.125 1323.11C667.044 1324.94 742.333 1334.93 826.305 1383.22C902.55 1507.25 899.613 1786.7 872.674 1882.98C825.33 1862.72 718.841 1842.25 631.125 1867.52Z" fill="url(#paint25_linear)"/>
<path d="M919.044 1518.89C781.652 1557.36 625.942 1493.7 572.13 1446.76L606.478 1398.67C678.036 1426.15 851.722 1472.18 919.044 1518.89Z" fill="#236D4E"/>
</g>
<path d="M1152.54 1915.61C1286.23 1613.45 1202.69 1385.09 1152.54 1342C1116.79 1342 1023.07 1345.88 937.269 1393.71C855.31 1524.26 888.179 1809.5 910.056 1915.61C958.079 1896.22 1066.74 1883.29 1152.54 1915.61Z" fill="#236D4E"/>
<mask id="mask11" mask-type="alpha" maskUnits="userSpaceOnUse" x="884" y="1341" width="341" height="575">
<path d="M1152.54 1915.61C1286.23 1613.45 1202.69 1385.09 1152.54 1342C1116.79 1342 1023.07 1345.88 937.269 1393.71C855.31 1524.26 888.179 1809.5 910.056 1915.61C958.079 1896.22 1066.74 1883.29 1152.54 1915.61Z" fill="#3F9A4B"/>
</mask>
<g mask="url(#mask11)">
<path d="M1160.91 1867.52C1289.27 1558.79 1216.63 1336.49 1160.91 1296.05C1122.67 1297.9 1022.64 1306.63 933.192 1358.85C851.859 1493.5 900.814 1776.7 929.345 1881.55C979.765 1859.69 1067.58 1839.69 1160.91 1867.52Z" fill="#3F9A4B"/>
<path d="M1160.91 1867.52C1289.27 1558.79 1216.63 1336.49 1160.91 1296.05C1122.67 1297.9 1022.64 1306.63 933.192 1358.85C851.859 1493.5 900.814 1776.7 929.345 1881.55C979.765 1859.69 1067.58 1839.69 1160.91 1867.52Z" fill="url(#paint26_linear)"/>
<path d="M864.087 1520.61C1001.48 1559.08 1157.19 1495.42 1211 1448.48L1176.65 1400.39C1105.09 1427.87 931.409 1473.9 864.087 1520.61Z" fill="#236D4E"/>
</g>
<path d="M1040.98 1579L817.717 1620.22C809.703 1615.06 789.209 1599.61 771.348 1579C809.817 1594.11 967.13 1585.3 1040.98 1579Z" fill="#236D4E"/>
<path d="M865.804 1558.39L834.891 1496.56L884.696 1491.41V1558.39H865.804Z" stroke="#236D4E" stroke-width="2" stroke-linecap="round" stroke-linejoin="round"/>
<path d="M587.587 1426.15C533.281 1355.14 702.08 1048.9 800.544 898.913H1020.37C1112.54 1054.62 1259.47 1363.62 1209.28 1426.15C1104.52 1556.67 676.891 1542.93 587.587 1426.15Z" fill="#F5F5F5"/>
<path d="M587.587 1426.15C533.281 1355.14 702.08 1048.9 800.544 898.913H1020.37C1112.54 1054.62 1259.47 1363.62 1209.28 1426.15C1104.52 1556.67 676.891 1542.93 587.587 1426.15Z" fill="url(#paint27_linear)"/>
<mask id="mask12" mask-type="alpha" maskUnits="userSpaceOnUse" x="577" y="898" width="643" height="621">
<path d="M587.587 1426.15C533.281 1355.14 702.08 1048.9 800.544 898.913H1020.37C1112.54 1054.62 1259.47 1363.62 1209.28 1426.15C1104.52 1556.67 676.891 1542.93 587.587 1426.15Z" fill="#F5F5F5"/>
<path d="M587.587 1426.15C533.281 1355.14 702.08 1048.9 800.544 898.913H1020.37C1112.54 1054.62 1259.47 1363.62 1209.28 1426.15C1104.52 1556.67 676.891 1542.93 587.587 1426.15Z" fill="url(#paint28_linear)"/>
</mask>
<g mask="url(#mask12)">
<path d="M893.282 998.522C888.13 1042.03 880.917 1137.97 893.282 1173.7C905.648 1209.42 898.434 1312.23 893.282 1359.17L903.587 1415.85L893.282 1450.2L903.587 1524.04" stroke="#CBAFBB" stroke-linecap="round" stroke-linejoin="round"/>
<path d="M893.282 998.522C888.13 1042.03 880.917 1137.97 893.282 1173.7C905.648 1209.42 898.434 1312.23 893.282 1359.17L903.587 1415.85L893.282 1450.2L903.587 1524.04" stroke="url(#paint29_linear)" stroke-linecap="round" stroke-linejoin="round"/>
<circle cx="910.457" cy="1086.11" r="8.58696" fill="#CBAFBB"/>
<circle cx="917.326" cy="1216.63" r="8.58696" fill="#CBAFBB"/>
<circle cx="917.326" cy="1371.2" r="8.58696" fill="#CBAFBB"/>
<path d="M881.261 1019.13C859.278 1013.63 813.71 979.63 802.261 969.326L1006.63 922.957C1000.91 939.558 960.948 999.896 881.261 1019.13Z" fill="#CBAFBB"/>
<path d="M786.804 1419.28C694.752 1430.27 599.609 1379.21 558.391 1347.15L786.804 1101.57C775.927 1143.93 767.913 1326.54 786.804 1419.28Z" fill="#AB90A0"/>
<path d="M1004.91 1415.85C1096.97 1426.84 1192.11 1375.78 1233.33 1343.72L1004.91 1098.13C1015.79 1140.49 1023.8 1323.11 1004.91 1415.85Z" fill="#AB90A0"/>
<path d="M710.39 1325.44C710.086 1325.23 709.796 1325.03 709.522 1324.83L710.39 1325.44C738.461 1345.02 891.687 1418.64 977.435 1424.15C927.004 1450.64 851.358 1421.25 819.839 1403.24L710.39 1325.44Z" fill="#AB90A0"/>
<path d="M710.39 1325.44C710.086 1325.23 709.796 1325.03 709.522 1324.83L710.39 1325.44C738.461 1345.02 891.687 1418.64 977.435 1424.15C927.004 1450.64 851.358 1421.25 819.839 1403.24L710.39 1325.44Z" fill="url(#paint30_linear)"/>
<path d="M908.739 1351.5C958.329 1351.5 997.747 1317.34 1011.26 1300.27L1111.39 1287.04C1066.89 1316.79 964.051 1371.33 908.739 1351.5Z" fill="#CBAFBB"/>
</g>
<path d="M448.478 1133C609.785 881.277 742.385 857.236 788.522 876.681C714.703 886.58 624.481 1120.03 588.597 1235.52C553.282 1226.68 475.818 1193.8 448.478 1133Z" fill="#871E31"/>
<mask id="mask13" mask-type="alpha" maskUnits="userSpaceOnUse" x="448" y="871" width="341" height="365">
<path d="M448.478 1133C609.785 881.277 742.385 857.236 788.522 876.681C714.703 886.58 624.481 1120.03 588.597 1235.52C553.282 1226.68 475.818 1193.8 448.478 1133Z" fill="#AE3539"/>
<path d="M448.478 1133C609.785 881.277 742.385 857.236 788.522 876.681C714.703 886.58 624.481 1120.03 588.597 1235.52C553.282 1226.68 475.818 1193.8 448.478 1133Z" fill="url(#paint31_linear)"/>
</mask>
<g mask="url(#mask13)">
<path d="M441.608 1117.02C621.895 881.03 747.883 847.741 793.714 869.796C717.813 874.671 611.164 1097.41 567.327 1208.18C531.868 1197.22 465.677 1178.36 441.608 1117.02Z" fill="#AE3539"/>
<path d="M441.608 1117.02C621.895 881.03 747.883 847.741 793.714 869.796C717.813 874.671 611.164 1097.41 567.327 1208.18C531.868 1197.22 465.677 1178.36 441.608 1117.02Z" fill="url(#paint32_linear)"/>
<path d="M632.691 1129.04C598.019 1037.42 671.409 916.839 712.437 867.999H767.913C759.823 882.595 721.452 955.238 632.691 1129.04Z" fill="#50282A"/>
<path d="M632.691 1129.04C598.019 1037.42 671.409 916.839 712.437 867.999H767.913C759.823 882.595 721.452 955.238 632.691 1129.04Z" fill="url(#paint33_linear)"/>
</g>
<path d="M1341.52 1132.03C1180.21 877.934 1047.61 853.667 1001.48 873.295C1075.3 883.287 1165.52 1118.94 1201.4 1235.52C1236.72 1226.6 1314.18 1193.41 1341.52 1132.03Z" fill="#871E31"/>
<mask id="mask14" mask-type="alpha" maskUnits="userSpaceOnUse" x="1001" y="871" width="341" height="365">
<path d="M1341.52 1133C1180.21 881.277 1047.61 857.236 1001.48 876.681C1075.3 886.58 1165.52 1120.03 1201.4 1235.52C1236.72 1226.68 1314.18 1193.8 1341.52 1133Z" fill="#AE3539"/>
<path d="M1341.52 1133C1180.21 881.277 1047.61 857.236 1001.48 876.681C1075.3 886.58 1165.52 1120.03 1201.4 1235.52C1236.72 1226.68 1314.18 1193.8 1341.52 1133Z" fill="url(#paint34_linear)"/>
</mask>
<g mask="url(#mask14)">
<path d="M1348.39 1117.02C1168.1 881.03 1042.12 847.741 996.286 869.796C1072.19 874.671 1178.84 1097.41 1222.67 1208.18C1258.13 1197.22 1324.32 1178.36 1348.39 1117.02Z" fill="url(#paint35_linear)"/>
<path d="M1143.57 1111.87C1178.24 1020.25 1104.85 899.666 1063.82 850.826H1008.35C1016.44 865.422 1054.81 938.065 1143.57 1111.87Z" fill="#50282A"/>
<path d="M1143.57 1111.87C1178.24 1020.25 1104.85 899.666 1063.82 850.826H1008.35C1016.44 865.422 1054.81 938.065 1143.57 1111.87Z" fill="url(#paint36_linear)"/>
</g>
<path d="M795.974 1405.14C780.893 1043.45 835.066 910.493 860.652 901.051C860.652 882.13 839.644 868 783.245 868C678.845 868 568.006 1248.38 555.372 1309.51C555.07 1310.97 555.464 1312.22 556.461 1313.33C581.161 1340.81 683.118 1406.43 793.972 1407.25C795.11 1407.26 796.021 1406.27 795.974 1405.14Z" fill="#AE3539"/>
<path d="M795.974 1405.14C780.893 1043.45 835.066 910.493 860.652 901.051C860.652 882.13 839.644 868 783.245 868C678.845 868 568.006 1248.38 555.372 1309.51C555.07 1310.97 555.464 1312.22 556.461 1313.33C581.161 1340.81 683.118 1406.43 793.972 1407.25C795.11 1407.26 796.021 1406.27 795.974 1405.14Z" fill="url(#paint37_linear)"/>
<mask id="mask15" mask-type="alpha" maskUnits="userSpaceOnUse" x="555" y="867" width="306" height="541">
<path d="M795.974 1405.14C780.893 1043.45 835.066 910.493 860.652 901.051C860.652 882.13 839.644 868 783.245 868C678.845 868 568.006 1248.38 555.372 1309.51C555.07 1310.97 555.464 1312.22 556.461 1313.33C581.161 1340.81 683.118 1406.43 793.972 1407.25C795.11 1407.26 796.021 1406.27 795.974 1405.14Z" fill="#AE3539"/>
<path d="M795.974 1405.14C780.893 1043.45 835.066 910.493 860.652 901.051C860.652 882.13 839.644 868 783.245 868C678.845 868 568.006 1248.38 555.372 1309.51C555.07 1310.97 555.464 1312.22 556.461 1313.33C581.161 1340.81 683.118 1406.43 793.972 1407.25C795.11 1407.26 796.021 1406.27 795.974 1405.14Z" fill="url(#paint38_linear)"/>
</mask>
<g mask="url(#mask15)">
<path d="M795.974 1405.14C780.893 1043.45 835.066 910.493 860.652 901.051C860.652 882.13 839.644 868 783.245 868C678.845 868 568.006 1248.38 555.372 1309.51C555.07 1310.97 555.464 1312.22 556.461 1313.33C581.161 1340.81 683.118 1406.43 793.972 1407.25C795.11 1407.26 796.021 1406.27 795.974 1405.14Z" fill="#AE3539"/>
<path d="M795.974 1405.14C780.893 1043.45 835.066 910.493 860.652 901.051C860.652 882.13 839.644 868 783.245 868C678.845 868 568.006 1248.38 555.372 1309.51C555.07 1310.97 555.464 1312.22 556.461 1313.33C581.161 1340.81 683.118 1406.43 793.972 1407.25C795.11 1407.26 796.021 1406.27 795.974 1405.14Z" fill="url(#paint39_linear)"/>
<path d="M848.63 995.086C807.413 996.46 755.319 906.927 742.152 880.021V847.391H833.174C833.174 858.267 848.63 931.886 848.63 995.086Z" fill="#8F1A48"/>
<path d="M765.04 910.129C750.385 884.812 765.386 878.364 774.718 878.305C784.472 887.066 801.598 910.382 792.066 933.559C782.534 956.735 761.205 956.768 751.732 953.887C762.274 949.85 779.694 935.446 765.04 910.129Z" fill="#8F1A48"/>
</g>
<path d="M990.229 1405.14C1005.22 1048.08 951.355 916.821 925.913 907.5C925.913 888.819 946.803 874.869 1002.89 874.869C1106.67 874.869 1216.86 1250.24 1229.47 1310.71C1229.78 1312.18 1229.38 1313.44 1228.37 1314.55C1203.76 1341.7 1102.42 1406.44 992.231 1407.25C991.093 1407.26 990.182 1406.27 990.229 1405.14Z" fill="#AE3539"/>
<path d="M990.229 1405.14C1005.22 1048.08 951.355 916.821 925.913 907.5C925.913 888.819 946.803 874.869 1002.89 874.869C1106.67 874.869 1216.86 1250.24 1229.47 1310.71C1229.78 1312.18 1229.38 1313.44 1228.37 1314.55C1203.76 1341.7 1102.42 1406.44 992.231 1407.25C991.093 1407.26 990.182 1406.27 990.229 1405.14Z" fill="url(#paint40_linear)"/>
<mask id="mask16" mask-type="alpha" maskUnits="userSpaceOnUse" x="925" y="874" width="305" height="534">
<path d="M990.229 1405.14C1005.22 1048.08 951.355 916.821 925.913 907.5C925.913 888.819 946.803 874.869 1002.89 874.869C1106.67 874.869 1216.86 1250.24 1229.47 1310.71C1229.78 1312.18 1229.38 1313.44 1228.37 1314.55C1203.76 1341.7 1102.42 1406.44 992.231 1407.25C991.093 1407.26 990.182 1406.27 990.229 1405.14Z" fill="#AE3539"/>
<path d="M990.229 1405.14C1005.22 1048.08 951.355 916.821 925.913 907.5C925.913 888.819 946.803 874.869 1002.89 874.869C1106.67 874.869 1216.86 1250.24 1229.47 1310.71C1229.78 1312.18 1229.38 1313.44 1228.37 1314.55C1203.76 1341.7 1102.42 1406.44 992.231 1407.25C991.093 1407.26 990.182 1406.27 990.229 1405.14Z" fill="url(#paint41_linear)"/>
</mask>
<g mask="url(#mask16)">
<path d="M1032.39 905.782C1079.1 948.374 1105.09 939.558 1102.8 928.108L1082.2 905.782L1011.78 849.108L932.783 995.087C959.116 991.079 1018.65 931.887 1032.39 905.782Z" fill="#871E31"/>
<path d="M1021.97 910.129C1036.62 884.812 1021.62 878.364 1012.29 878.305C1002.54 887.066 985.412 910.382 994.944 933.559C1004.48 956.735 1025.8 956.768 1035.28 953.887C1024.74 949.85 1007.32 935.446 1021.97 910.129Z" fill="#871E31"/>
<path d="M1018.65 1034.59C1034.11 1027.72 1074.98 1012.95 1114.83 1008.83C1087.35 1048.67 1039.26 1042.6 1018.65 1034.59Z" fill="#871E31"/>
</g>
<path d="M1114.61 1008.83C1094.5 1029.62 1042.26 1034.82 1018.65 1034.82C1033.27 1106.79 1075.01 1118.12 1094.05 1114.79C1114.61 1112.79 1147.51 1088.8 1114.61 1008.83Z" fill="#871E31"/>
<path d="M1114.61 1008.83C1094.5 1029.62 1042.26 1034.82 1018.65 1034.82C1033.27 1106.79 1075.01 1118.12 1094.05 1114.79C1114.61 1112.79 1147.51 1088.8 1114.61 1008.83Z" fill="url(#paint42_linear)"/>
<path d="M764.478 866.282C799.971 846.246 908.052 811.325 1035.83 859.412C960.261 934.978 821.725 897.767 764.478 866.282Z" fill="#D07039"/>
<path d="M988.573 473.281C910.672 469.144 884.573 511.777 881.261 533.611C928.293 535.909 1015.6 553.261 988.573 604.283C961.546 655.305 995.713 707.657 1025.52 722.022C1004.32 738.11 1009.95 785.274 1051.28 812.854C1126 856.981 1109.67 859.413 1106.24 866.283C1121.7 855.978 1128.57 830.233 1089.92 812.854C1047 793.548 1061.44 769.186 1074.03 759.418L1111.78 730.115C1122.38 720.922 1127.68 694.261 1064.09 661.166C1052.96 651.513 1055.48 619.222 1058.13 604.283C1067.4 562.339 1066.47 477.418 988.573 473.281Z" fill="#340505"/>
<path d="M988.573 473.281C910.672 469.144 884.573 511.777 881.261 533.611C928.293 535.909 1015.6 553.261 988.573 604.283C961.546 655.305 995.713 707.657 1025.52 722.022C1004.32 738.11 1009.95 785.274 1051.28 812.854C1126 856.981 1109.67 859.413 1106.24 866.283C1121.7 855.978 1128.57 830.233 1089.92 812.854C1047 793.548 1061.44 769.186 1074.03 759.418L1111.78 730.115C1122.38 720.922 1127.68 694.261 1064.09 661.166C1052.96 651.513 1055.48 619.222 1058.13 604.283C1067.4 562.339 1066.47 477.418 988.573 473.281Z" fill="url(#paint43_linear)"/>
<path d="M716.391 735.876C716.391 691.91 774.096 706.565 774.096 721.221L788.522 789C759.67 779.841 716.391 783.504 716.391 735.876Z" fill="#B5705F"/>
<path d="M716.391 735.876C716.391 691.91 774.096 706.565 774.096 721.221L788.522 789C759.67 779.841 716.391 783.504 716.391 735.876Z" fill="url(#paint44_linear)"/>
<path d="M1066.74 735.876C1066.74 691.91 1009.03 706.565 1009.03 721.221L994.609 789C1023.46 779.841 1066.74 783.504 1066.74 735.876Z" fill="#B5705F"/>
<path d="M1066.74 735.876C1066.74 691.91 1009.03 706.565 1009.03 721.221L994.609 789C1023.46 779.841 1066.74 783.504 1066.74 735.876Z" fill="url(#paint45_linear)"/>
<path d="M838.326 888.608V840.521H948.239V888.608C909.77 914.713 858.935 899.485 838.326 888.608Z" fill="#963D39"/>
<ellipse cx="891.565" cy="703.13" rx="130.522" ry="158" fill="#B5705F"/>
<ellipse cx="891.565" cy="703.13" rx="130.522" ry="158" fill="url(#paint46_linear)"/>
<mask id="mask17" mask-type="alpha" maskUnits="userSpaceOnUse" x="761" y="545" width="262" height="317">
<ellipse cx="891.565" cy="703.13" rx="130.522" ry="158" fill="#B5705F"/>
</mask>
<g mask="url(#mask17)">
<path d="M974 663.63C891.637 649.953 877.068 568.047 882.487 533.221C892.12 502.194 938.385 459.953 1040.98 584.567C1089.46 643.455 1049.45 719.536 1016.93 715.152C993.454 711.986 968.848 703.13 974 663.63Z" fill="#963D39"/>
<path d="M857.643 636.335C906.562 609.944 914.133 584.827 911.803 575.567C911.803 571.515 908.309 556.815 894.332 530.424C845.413 462.711 682.932 627.654 740.587 650.225C715.429 668.282 730.104 683.214 740.587 688.423C767.376 697.104 828.292 698.84 857.643 636.335Z" fill="#963D39"/>
<path d="M802.002 726.394C779.697 680.967 773.162 670.778 786.621 658.244C805.847 644.144 823.535 639.914 755.858 651.194C688.181 662.475 710.996 699.761 730.864 716.995C747.118 731.094 752.519 739.465 738.554 748.865C675.492 777.065 720.57 803.002 738.554 810.995C759.703 820.395 797.387 829.325 763.549 836.845C713.56 848.596 746.245 876.795 763.549 890.895C777.391 902.175 777.007 913.075 771.239 926.391C784.057 906.808 795.849 889.956 771.239 876.796C746.629 863.636 755.858 855.646 763.549 853.296C792.444 839.335 819.435 819.913 793.674 792.435C784.196 782.326 773.065 767.655 786.804 759.804C798.826 752.935 809.13 740.913 802.002 726.394Z" fill="#963D39"/>
<path d="M984.304 717.435C1023.27 683.389 1009.14 670.936 996.023 658.327C990.822 653.326 986.914 641.304 1026 651.234C1090.86 667.71 1069.72 700.097 1050.36 717.435C1034.52 731.621 1029.25 740.043 1042.86 749.5C1104.31 777.872 1060.39 803.966 1042.86 812.008C1022.25 821.466 985.531 830.451 1018.51 838.017C1067.22 849.838 1035.37 878.21 1018.51 892.396C1005.02 903.745 1012.89 909.559 1018.51 922.957C1006.02 903.254 987.03 891.451 1011.01 878.21C1034.99 864.97 1023.26 861.304 1018.51 854.567C1011.01 843.957 960.261 816.478 987.739 790.718C999.302 779.878 1008.35 770.109 1001.48 763.239C987.808 749.569 965.413 740.913 984.304 717.435Z" fill="#963D39"/>
</g>
<path d="M853.783 778.695C864.087 785.565 892.939 795.182 925.913 778.695C913.548 821.287 886.413 814.761 874.391 806.174" stroke="#491317" stroke-width="6" stroke-linecap="round" stroke-linejoin="round"/>
<ellipse cx="846.913" cy="725.458" rx="6.86956" ry="18.8913" fill="#431410"/>
<ellipse cx="925.913" cy="725.457" rx="6.86956" ry="18.8913" fill="#431410"/>
<ellipse cx="839.171" cy="681.431" rx="25.7609" ry="10.3043" transform="rotate(-5.3204 839.171 681.431)" fill="#491317"/>
<ellipse cx="933.699" cy="680.879" rx="25.7609" ry="10.3043" transform="rotate(2.48005 933.699 680.879)" fill="#491317"/>
<path d="M884.696 1024.28C822.87 1005.05 774.783 906.355 762.761 859.413C876.787 909.84 995.195 874.376 1035.83 859.413C1016.36 900.058 958.887 989.935 884.696 1024.28Z" fill="#FCCB5A"/>
<path d="M884.696 1024.28C822.87 1005.05 774.783 906.355 762.761 859.413C876.787 909.84 995.195 874.376 1035.83 859.413C1016.36 900.058 958.887 989.935 884.696 1024.28Z" fill="url(#paint47_linear)"/>
<path d="M901.44 981.166C923.698 979.42 995.725 900.415 1028.96 861.131C996.498 888.048 929.262 944.064 919.988 952.794C910.714 961.524 865.117 965.161 843.478 965.888C853.525 971.708 879.183 982.912 901.44 981.166Z" fill="#D07039"/>
<path d="M901.44 981.166C923.698 979.42 995.725 900.415 1028.96 861.131C996.498 888.048 929.262 944.064 919.988 952.794C910.714 961.524 865.117 965.161 843.478 965.888C853.525 971.708 879.183 982.912 901.44 981.166Z" fill="url(#paint48_linear)"/>
<path d="M831.925 920.503L778.217 861.131L831.925 902.911C841.995 913.234 874.891 934.282 925.913 935.895C891.003 948.21 848.709 930.765 831.925 920.503Z" fill="#D07039"/>
<path d="M831.925 920.503L778.217 861.131L831.925 902.911C841.995 913.234 874.891 934.282 925.913 935.895C891.003 948.21 848.709 930.765 831.925 920.503Z" fill="url(#paint49_linear)"/>
<path d="M1018.65 864.92C1027.56 841.422 1064.07 796.246 1138.87 803.523C1125.13 870.832 1053 872.5 1018.65 864.92Z" fill="#D07039"/>
<rect x="1013.61" y="843.956" width="33.725" height="21.4738" rx="10.7369" transform="rotate(14.1798 1013.61 843.956)" fill="#D07039"/>
<path d="M1017.04 866.585C1038.13 852.923 1094.3 838.137 1150.27 888.293C1099.35 934.399 1040.23 893.032 1017.04 866.585Z" fill="#FCCB5A"/>
<path d="M1017.04 866.585C1038.13 852.923 1094.3 838.137 1150.27 888.293C1099.35 934.399 1040.23 893.032 1017.04 866.585Z" fill="url(#paint50_linear)"/>
<path d="M809.381 705.786C776.232 672.885 784.519 650.169 796.121 637.636C812.696 623.536 827.944 619.306 769.602 630.586C711.26 641.866 730.928 679.153 748.055 696.386C762.067 710.486 766.723 718.857 754.685 728.257C700.32 756.457 739.181 782.393 754.685 790.387C772.917 799.787 805.403 808.717 776.232 816.237C733.137 827.987 761.315 856.187 776.232 870.287C788.165 881.567 787.834 892.466 782.861 905.783C793.911 886.2 804.077 869.347 782.861 856.187C761.646 843.027 769.602 835.037 776.232 832.687C801.141 818.727 811.893 802.643 782.861 783.337C761.639 769.224 769.602 769.224 776.232 762.187C791.149 752.787 822.64 718.946 809.381 705.786Z" fill="#340505"/>
<mask id="mask18" mask-type="alpha" maskUnits="userSpaceOnUse" x="726" y="624" width="87" height="282">
<path d="M809.381 705.786C776.232 672.885 784.519 650.169 796.121 637.636C812.696 623.536 827.944 619.306 769.602 630.586C711.26 641.866 730.928 679.153 748.055 696.386C762.067 710.486 761.306 723.74 754.685 727.174C700.32 755.374 739.181 782.393 754.685 790.387C772.917 799.787 805.403 808.717 776.232 816.237C733.138 827.987 761.315 856.187 776.232 870.287C788.165 881.567 787.834 892.466 782.862 905.783C793.911 886.2 804.077 869.347 782.861 856.187C761.646 843.027 769.602 835.037 776.232 832.687C801.141 818.727 811.893 802.643 782.861 783.337C761.639 769.224 769.602 769.224 776.232 762.187C791.149 752.787 822.64 718.946 809.381 705.786Z" fill="#491317"/>
</mask>
<g mask="url(#mask18)">
<path d="M794.575 705.786C761.426 672.885 769.714 650.169 781.316 637.636C797.89 623.536 813.139 619.306 754.797 630.586C696.454 641.866 716.123 679.153 733.25 696.386C747.262 710.486 751.918 718.857 739.88 728.257C685.515 756.457 724.376 782.393 739.88 790.387C758.112 799.787 790.598 808.717 761.426 816.237C718.332 827.987 746.51 856.187 761.426 870.287C773.36 881.567 786.288 883.879 781.316 897.196C792.366 877.613 792.326 862.269 771.111 849.109C749.895 835.949 774.686 818.587 781.316 816.237C806.226 802.277 797.088 802.643 768.056 783.337C746.834 769.224 754.797 769.224 761.426 762.187C776.343 752.787 807.835 718.946 794.575 705.786Z" fill="#491317"/>
<path d="M794.575 705.786C761.426 672.885 769.714 650.169 781.316 637.636C797.89 623.536 813.139 619.306 754.797 630.586C696.454 641.866 716.123 679.153 733.25 696.386C747.262 710.486 751.918 718.857 739.88 728.257C685.515 756.457 724.376 782.393 739.88 790.387C758.112 799.787 790.598 808.717 761.426 816.237C718.332 827.987 746.51 856.187 761.426 870.287C773.36 881.567 786.288 883.879 781.316 897.196C792.366 877.613 792.326 862.269 771.111 849.109C749.895 835.949 774.686 818.587 781.316 816.237C806.226 802.277 797.088 802.643 768.056 783.337C746.834 769.224 754.797 769.224 761.426 762.187C776.343 752.787 807.835 718.946 794.575 705.786Z" fill="url(#paint51_linear)"/>
</g>
<path d="M980.87 696.826C1019.84 662.78 1005.7 650.328 992.588 637.718C987.387 632.717 983.479 620.695 1022.57 630.625C1087.42 647.101 1066.28 679.488 1046.92 696.826C1031.08 711.012 1025.82 719.434 1039.43 728.891C1100.88 757.263 1056.95 783.358 1039.43 791.4C1018.82 800.857 982.097 809.842 1015.07 817.408C1063.78 829.229 1031.93 857.601 1015.07 871.787C1001.58 883.136 1009.45 888.95 1015.07 902.348C1002.58 882.645 983.595 870.842 1007.58 857.602C1031.56 844.361 1023.2 835.327 1015.07 833.958C986.968 829.229 970.108 791.4 1007.58 784.307C1037.55 778.633 1025.06 767.757 1015.07 763.028C998.209 753.571 961.978 720.304 980.87 696.826Z" fill="#340505"/>
<mask id="mask19" mask-type="alpha" maskUnits="userSpaceOnUse" x="975" y="626" width="97" height="277">
<path d="M980.87 696.826C1019.84 662.78 1005.7 650.328 992.588 637.718C987.387 632.717 983.479 620.695 1022.57 630.625C1087.42 647.101 1066.28 679.488 1046.92 696.826C1031.08 711.012 1025.82 719.434 1039.43 728.891C1100.88 757.263 1056.95 783.358 1039.43 791.4C1018.82 800.857 982.097 809.842 1015.07 817.408C1063.78 829.229 1031.93 857.601 1015.07 871.787C1001.58 883.136 1009.45 888.95 1015.07 902.348C1002.58 882.645 983.595 870.842 1007.58 857.602C1031.56 844.361 1023.2 835.327 1015.07 833.958C986.968 829.229 970.108 791.4 1007.58 784.307C1037.55 778.633 1025.06 767.757 1015.07 763.028C998.209 753.571 961.978 720.304 980.87 696.826Z" fill="#491317"/>
</mask>
<g mask="url(#mask19)">
<path d="M994.609 696.826C1033.58 662.78 1019.44 650.328 1006.33 637.718C1001.13 632.717 997.218 620.695 1036.3 630.625C1101.16 647.101 1080.02 679.488 1060.66 696.826C1044.82 711.012 1039.56 719.434 1053.17 728.891C1114.62 757.263 1070.69 783.358 1053.17 791.4C1032.56 800.857 995.836 809.842 1028.81 817.408C1077.52 829.229 1045.67 857.601 1028.81 871.787C1015.32 883.136 1023.19 888.95 1028.81 902.348C1016.32 882.645 986.083 870.936 1010.07 857.696C1034.05 844.455 1025.07 826.434 1016.93 825.065C988.831 820.336 979.466 790.94 1016.93 783.848C1046.91 778.173 1038.8 767.757 1028.81 763.028C1011.95 753.571 975.717 720.304 994.609 696.826Z" fill="#491317"/>
<path d="M994.609 696.826C1033.58 662.78 1019.44 650.328 1006.33 637.718C1001.13 632.717 997.218 620.695 1036.3 630.625C1101.16 647.101 1080.02 679.488 1060.66 696.826C1044.82 711.012 1039.56 719.434 1053.17 728.891C1114.62 757.263 1070.69 783.358 1053.17 791.4C1032.56 800.857 995.836 809.842 1028.81 817.408C1077.52 829.229 1045.67 857.601 1028.81 871.787C1015.32 883.136 1023.19 888.95 1028.81 902.348C1016.32 882.645 986.083 870.936 1010.07 857.696C1034.05 844.455 1025.07 826.434 1016.93 825.065C988.831 820.336 979.466 790.94 1016.93 783.848C1046.91 778.173 1038.8 767.757 1028.81 763.028C1011.95 753.571 975.717 720.304 994.609 696.826Z" fill="url(#paint52_linear)"/>
</g>
<path d="M859.984 626.455C912.966 600.263 921.165 575.334 918.642 566.144C918.642 562.123 914.858 547.533 899.72 521.341C846.739 454.137 692.242 600.707 727.882 633.092C704.737 656.624 721.854 672.981 733.207 678.151C762.221 686.767 828.195 688.49 859.984 626.455Z" fill="#340505"/>
<mask id="mask20" mask-type="alpha" maskUnits="userSpaceOnUse" x="716" y="501" width="204" height="182">
<path d="M859.984 626.03C912.966 599.639 921.165 574.522 918.642 565.262C918.642 561.21 914.858 546.51 899.72 520.119C846.739 452.406 690.622 591.5 721.402 639.587C710.062 653.326 721.854 672.909 733.207 678.117C762.221 686.799 828.195 688.535 859.984 626.03Z" fill="#491317"/>
</mask>
<g mask="url(#mask20)">
<path d="M838.386 621.966C885.887 596.445 893.238 572.156 890.976 563.201C890.976 559.283 893.651 537.699 880.08 512.178C832.579 446.696 655.699 614.325 711.682 636.152C687.253 653.614 714.545 661.594 724.724 666.631C750.736 675.026 809.886 682.411 838.386 621.966Z" fill="#491317"/>
<path d="M838.386 621.966C885.887 596.445 893.238 572.156 890.976 563.201C890.976 559.283 893.651 537.699 880.08 512.178C832.579 446.696 655.699 614.325 711.682 636.152C687.253 653.614 714.545 661.594 724.724 666.631C750.736 675.026 809.886 682.411 838.386 621.966Z" fill="url(#paint53_linear)"/>
<path d="M965.805 633.178C886.312 621.417 876.899 558.581 882.128 528.634C891.426 501.953 936.079 465.63 1035.1 572.788C1081.89 623.426 1046 682.685 1014.62 678.916C991.955 676.193 950.465 663.234 965.805 633.178Z" fill="#340505"/>
</g>
<path d="M976.055 653.141C893.691 639.464 883.938 566.392 889.357 531.566C898.99 500.539 945.255 458.299 1047.85 582.913C1096.33 641.801 1059.14 710.714 1026.63 706.33C1003.15 703.164 960.16 688.094 976.055 653.141Z" fill="#340505"/>
<mask id="mask21" mask-type="alpha" maskUnits="userSpaceOnUse" x="888" y="498" width="184" height="209">
<path d="M976.055 653.141C893.691 639.464 883.938 566.392 889.357 531.566C898.99 500.539 945.255 458.299 1047.85 582.913C1096.33 641.801 1059.14 710.714 1026.63 706.33C1003.15 703.164 960.16 688.094 976.055 653.141Z" fill="#491317"/>
</mask>
<g mask="url(#mask21)">
<path d="M987.739 648.174C903.851 628.231 897.516 542.01 905.784 509.002C918.106 479.992 969.069 443.235 1065.28 571.42C1110.75 631.995 1074.4 692.303 1040.98 697.978C1024.01 700.859 968.658 680.438 987.739 648.174Z" fill="#491317"/>
<path d="M987.739 648.174C903.851 628.231 897.516 542.01 905.784 509.002C918.106 479.992 969.069 443.235 1065.28 571.42C1110.75 631.995 1074.4 692.303 1040.98 697.978C1024.01 700.859 968.658 680.438 987.739 648.174Z" fill="url(#paint54_linear)"/>
</g>
<path d="M1027.24 868.001C1039.26 864.566 1069.49 861.474 1094.22 876.587C1053 880.709 1032.39 872.58 1027.24 868.001Z" fill="#D07039"/>
<circle cx="852.065" cy="718.587" r="1.71739" fill="#F5F5F5"/>
<circle cx="931.065" cy="718.587" r="1.71739" fill="#F5F5F5"/>
<ellipse cx="819.435" cy="754.652" rx="17.1739" ry="10.3043" fill="#E68282"/>
<ellipse cx="967.13" cy="754.652" rx="17.1739" ry="10.3043" fill="#E58282" fill-opacity="0.7"/>
<circle cx="785.087" cy="1019.13" r="10.3043" fill="#8F1A48"/>
<circle cx="767.913" cy="1156.52" r="10.3043" fill="#8F1A48"/>
<circle cx="761.043" cy="1290.48" r="10.3043" fill="#851440"/>
<path d="M2262.72 1697.08C2386.43 1722.78 2367.93 1877.3 2343.22 1951.35C2096.41 1911.37 1569.85 1841.47 1438.07 1881.76C1339 1841.92 1405.5 1754.87 1451.13 1716.32C1450.64 1664.85 1442.7 1545.74 1569.67 1542.73C1529.1 1494.72 1579.03 1429.49 1579.03 1429.49C1579.03 1429.49 1653 1352.77 1727.1 1392.7C1765.76 1323.47 1815.08 1362.15 1834.91 1390.14C1832.94 1376.38 1845.61 1338.03 1912.05 1294.76C1995.09 1240.68 2085.25 1301.96 2100.03 1417.14C2186.43 1421.62 2202.28 1503.66 2199.41 1544.13C2233.22 1553.58 2293.21 1597.41 2262.72 1697.08Z" fill="#3E0247"/>
<path d="M2262.72 1697.08C2386.43 1722.78 2367.93 1877.3 2343.22 1951.35C2096.41 1911.37 1569.85 1841.47 1438.07 1881.76C1339 1841.92 1405.5 1754.87 1451.13 1716.32C1450.64 1664.85 1442.7 1545.74 1569.67 1542.73C1529.1 1494.72 1579.03 1429.49 1579.03 1429.49C1579.03 1429.49 1653 1352.77 1727.1 1392.7C1765.76 1323.47 1815.08 1362.15 1834.91 1390.14C1832.94 1376.38 1845.61 1338.03 1912.05 1294.76C1995.09 1240.68 2085.25 1301.96 2100.03 1417.14C2186.43 1421.62 2202.28 1503.66 2199.41 1544.13C2233.22 1553.58 2293.21 1597.41 2262.72 1697.08Z" fill="url(#paint55_linear)"/>
</g>
<defs>
<radialGradient id="paint0_radial" cx="0" cy="0" r="1" gradientUnits="userSpaceOnUse" gradientTransform="translate(1854.4 367) rotate(90) scale(200 196.396)">
<stop stop-color="#FFF0A3"/>
<stop offset="0.350141" stop-color="#FFF8D0" stop-opacity="0.3"/>
<stop offset="0.740055" stop-color="white" stop-opacity="0"/>
</radialGradient>
<linearGradient id="paint1_linear" x1="1538.86" y1="1317.7" x2="1996.09" y2="305.402" gradientUnits="userSpaceOnUse">
<stop stop-color="#FF4860"/>
<stop offset="0.593755" stop-color="#270E48"/>
</linearGradient>
<linearGradient id="paint2_linear" x1="976" y1="564.5" x2="516.5" y2="694" gradientUnits="userSpaceOnUse">
<stop offset="0.324773" stop-color="#DE3C63"/>
<stop offset="1" stop-color="#270E48"/>
</linearGradient>
<linearGradient id="paint3_linear" x1="1094" y1="93" x2="1301.5" y2="981" gradientUnits="userSpaceOnUse">
<stop offset="0.435991" stop-color="#270E48"/>
<stop offset="1" stop-color="#DE3C63"/>
</linearGradient>
<linearGradient id="paint4_linear" x1="1977" y1="-125" x2="1977" y2="680.868" gradientUnits="userSpaceOnUse">
<stop offset="0.24423" stop-color="white" stop-opacity="0"/>
<stop offset="0.702342" stop-color="#FF6F43" stop-opacity="0.3"/>
</linearGradient>
<linearGradient id="paint5_linear" x1="1373.61" y1="1233.16" x2="1373.61" y2="1290.61" gradientUnits="userSpaceOnUse">
<stop offset="0.451497" stop-color="#F4DA9C"/>
<stop offset="1" stop-color="#F4DA9C" stop-opacity="0"/>
</linearGradient>
<linearGradient id="paint6_linear" x1="119.499" y1="0" x2="119.499" y2="57.4516" gradientUnits="userSpaceOnUse">
<stop offset="0.386023" stop-color="#F4DA9C"/>
<stop offset="1" stop-color="#F4DA9C" stop-opacity="0"/>
</linearGradient>
<radialGradient id="paint7_radial" cx="0" cy="0" r="1" gradientUnits="userSpaceOnUse" gradientTransform="translate(1478 915.039) rotate(92.8222) scale(272.268)">
<stop offset="0.416667" stop-color="#D72F2E"/>
<stop offset="1" stop-color="#D72F2E" stop-opacity="0"/>
</radialGradient>
<radialGradient id="paint8_radial" cx="0" cy="0" r="1" gradientUnits="userSpaceOnUse" gradientTransform="translate(1478 991.641) rotate(89.9082) scale(238.999)">
<stop offset="0.32662" stop-color="#FF6F43"/>
<stop offset="0.77875" stop-color="#FF6F43" stop-opacity="0"/>
</radialGradient>
<radialGradient id="paint9_radial" cx="0" cy="0" r="1" gradientUnits="userSpaceOnUse" gradientTransform="translate(1460.91 946.829) rotate(90.0264) scale(307.174 225.32)">
<stop offset="0.466315" stop-color="#FFD26A"/>
<stop offset="0.935131" stop-color="#FF6F43"/>
</radialGradient>
<radialGradient id="paint10_radial" cx="0" cy="0" r="1" gradientUnits="userSpaceOnUse" gradientTransform="translate(1478.38 1054.84) rotate(90) scale(219.082 161.691)">
<stop offset="0.321369" stop-color="#FF6F43"/>
<stop offset="1" stop-color="#D72F2E"/>
</radialGradient>
<radialGradient id="paint11_radial" cx="0" cy="0" r="1" gradientUnits="userSpaceOnUse" gradientTransform="translate(1478.38 1010.41) rotate(90.1516) scale(144.778 108.009)">
<stop stop-color="#FF6F43"/>
<stop offset="0.774481" stop-color="#D72F2E"/>
</radialGradient>
<linearGradient id="paint12_linear" x1="1830.5" y1="1079" x2="1688.5" y2="1079" gradientUnits="userSpaceOnUse">
<stop offset="0.153923" stop-color="#600E6C"/>
<stop offset="1" stop-color="#FF4860"/>
</linearGradient>
<linearGradient id="paint13_linear" x1="1687.9" y1="432.054" x2="2106" y2="551.675" gradientUnits="userSpaceOnUse">
<stop offset="0.186024" stop-color="#DE3C63"/>
<stop offset="1" stop-color="#270E48"/>
</linearGradient>
<linearGradient id="paint14_linear" x1="727.469" y1="1062.32" x2="412.502" y2="1624.98" gradientUnits="userSpaceOnUse">
<stop stop-color="#EF4683"/>
<stop offset="0.417807" stop-color="#3E0247"/>
</linearGradient>
<linearGradient id="paint15_linear" x1="1488.5" y1="1210.5" x2="1155" y2="1213.5" gradientUnits="userSpaceOnUse">
<stop offset="0.053958" stop-color="#FF4860"/>
<stop offset="0.815233" stop-color="#600E6C"/>
</linearGradient>
<linearGradient id="paint16_linear" x1="1488.5" y1="1210.5" x2="1155" y2="1213.5" gradientUnits="userSpaceOnUse">
<stop offset="0.053958" stop-color="#FF4860"/>
<stop offset="0.815233" stop-color="#600E6C"/>
</linearGradient>
<linearGradient id="paint17_linear" x1="896.717" y1="888.609" x2="896.717" y2="1050.04" gradientUnits="userSpaceOnUse">
<stop stop-color="#222D55"/>
<stop offset="1" stop-color="#5972A1"/>
</linearGradient>
<linearGradient id="paint18_linear" x1="891.565" y1="802.74" x2="891.565" y2="1242.39" gradientUnits="userSpaceOnUse">
<stop stop-color="#3A1919"/>
<stop offset="0.213542" stop-color="#50282A"/>
</linearGradient>
<linearGradient id="paint19_linear" x1="1186.96" y1="1125.61" x2="1384.46" y2="1283.61" gradientUnits="userSpaceOnUse">
<stop offset="0.162619" stop-color="#B5705F"/>
<stop offset="0.874581" stop-color="#A4504A"/>
</linearGradient>
<linearGradient id="paint20_linear" x1="1186.96" y1="1125.61" x2="1384.46" y2="1283.61" gradientUnits="userSpaceOnUse">
<stop offset="0.162619" stop-color="#B5705F"/>
<stop offset="0.874581" stop-color="#A4504A"/>
</linearGradient>
<linearGradient id="paint21_linear" x1="603.043" y1="1125.61" x2="405.543" y2="1283.61" gradientUnits="userSpaceOnUse">
<stop offset="0.162619" stop-color="#B5705F"/>
<stop offset="0.874581" stop-color="#A4504A"/>
</linearGradient>
<linearGradient id="paint22_linear" x1="603.043" y1="1125.61" x2="405.543" y2="1283.61" gradientUnits="userSpaceOnUse">
<stop offset="0.162619" stop-color="#B5705F"/>
<stop offset="0.874581" stop-color="#A4504A"/>
</linearGradient>
<linearGradient id="paint23_linear" x1="470.804" y1="1187.43" x2="609.913" y2="1630.52" gradientUnits="userSpaceOnUse">
<stop offset="0.0418279" stop-color="#993D3D"/>
<stop offset="0.465143" stop-color="#B5705F"/>
<stop offset="0.885417" stop-color="#AC6055"/>
</linearGradient>
<linearGradient id="paint24_linear" x1="1338.09" y1="1197.74" x2="1183.52" y2="1609.91" gradientUnits="userSpaceOnUse">
<stop stop-color="#993D3D"/>
<stop offset="0.452385" stop-color="#B5705F"/>
<stop offset="0.875" stop-color="#AC6055"/>
</linearGradient>
<linearGradient id="paint25_linear" x1="742.782" y1="1328.79" x2="730.13" y2="1991.17" gradientUnits="userSpaceOnUse">
<stop offset="0.233335" stop-color="#3F9A4B"/>
<stop offset="1" stop-color="#236D4E"/>
</linearGradient>
<linearGradient id="paint26_linear" x1="1047.92" y1="1301.52" x2="1063.3" y2="1944.8" gradientUnits="userSpaceOnUse">
<stop offset="0.377698" stop-color="#3F9A4B"/>
<stop offset="1" stop-color="#236D4E"/>
</linearGradient>
<linearGradient id="paint27_linear" x1="898.266" y1="898.913" x2="898.266" y2="1518.96" gradientUnits="userSpaceOnUse">
<stop offset="0.589573" stop-color="#F5F5F5"/>
<stop offset="0.890625" stop-color="#CBAFBB"/>
</linearGradient>
<linearGradient id="paint28_linear" x1="898.266" y1="898.913" x2="898.266" y2="1518.96" gradientUnits="userSpaceOnUse">
<stop offset="0.589573" stop-color="#F5F5F5"/>
<stop offset="0.909833" stop-color="#CBAFBB"/>
</linearGradient>
<linearGradient id="paint29_linear" x1="895.021" y1="998.522" x2="895.021" y2="1524.04" gradientUnits="userSpaceOnUse">
<stop offset="0.56887" stop-color="#CBAFBB"/>
<stop offset="1" stop-color="#9E8395" stop-opacity="0.35"/>
</linearGradient>
<linearGradient id="paint30_linear" x1="790.239" y1="1324.83" x2="908.739" y2="1434.74" gradientUnits="userSpaceOnUse">
<stop stop-color="#CBAFBB"/>
<stop offset="1" stop-color="#AB90A0"/>
</linearGradient>
<linearGradient id="paint31_linear" x1="618.5" y1="871.435" x2="726.696" y2="1235.52" gradientUnits="userSpaceOnUse">
<stop stop-color="#AE3539"/>
<stop offset="1" stop-color="#8E1949"/>
</linearGradient>
<linearGradient id="paint32_linear" x1="620.653" y1="853.557" x2="700.084" y2="1218.95" gradientUnits="userSpaceOnUse">
<stop stop-color="#AE3539"/>
<stop offset="1" stop-color="#8E1949"/>
</linearGradient>
<linearGradient id="paint33_linear" x1="695.783" y1="867.999" x2="695.783" y2="1129.04" gradientUnits="userSpaceOnUse">
<stop stop-color="#311323"/>
<stop offset="0.202249" stop-color="#50282A"/>
<stop offset="0.728755" stop-color="#311323"/>
</linearGradient>
<linearGradient id="paint34_linear" x1="1171.5" y1="871.435" x2="1063.3" y2="1235.52" gradientUnits="userSpaceOnUse">
<stop stop-color="#AE3539"/>
<stop offset="1" stop-color="#8E1949"/>
</linearGradient>
<linearGradient id="paint35_linear" x1="1195.54" y1="869.716" x2="1089.57" y2="1219.54" gradientUnits="userSpaceOnUse">
<stop offset="0.103571" stop-color="#AE3539"/>
<stop offset="1" stop-color="#8E1949"/>
</linearGradient>
<linearGradient id="paint36_linear" x1="1080.48" y1="850.826" x2="1080.48" y2="1111.87" gradientUnits="userSpaceOnUse">
<stop stop-color="#311323"/>
<stop offset="0.202249" stop-color="#50282A"/>
<stop offset="0.728755" stop-color="#311323"/>
</linearGradient>
<linearGradient id="paint37_linear" x1="693.124" y1="868" x2="791.206" y2="1476.62" gradientUnits="userSpaceOnUse">
<stop offset="0.168603" stop-color="#A72E32"/>
<stop offset="1" stop-color="#88144C"/>
</linearGradient>
<linearGradient id="paint38_linear" x1="693.124" y1="868" x2="791.206" y2="1476.62" gradientUnits="userSpaceOnUse">
<stop offset="0.168603" stop-color="#AE3539"/>
<stop offset="1" stop-color="#88144C"/>
</linearGradient>
<linearGradient id="paint39_linear" x1="693.124" y1="868" x2="791.206" y2="1476.62" gradientUnits="userSpaceOnUse">
<stop offset="0.168603" stop-color="#AE3539"/>
<stop offset="1" stop-color="#88144C"/>
</linearGradient>
<linearGradient id="paint40_linear" x1="1077.9" y1="874.869" x2="1016.93" y2="1453.63" gradientUnits="userSpaceOnUse">
<stop offset="0.203125" stop-color="#A72E32"/>
<stop offset="1" stop-color="#8A164A"/>
</linearGradient>
<linearGradient id="paint41_linear" x1="1077.9" y1="874.869" x2="1016.93" y2="1453.63" gradientUnits="userSpaceOnUse">
<stop offset="0.203125" stop-color="#AE3539"/>
<stop offset="1" stop-color="#8A164A"/>
</linearGradient>
<linearGradient id="paint42_linear" x1="1073.61" y1="1008.83" x2="1107.36" y2="1143.18" gradientUnits="userSpaceOnUse">
<stop stop-color="#AE3539"/>
<stop offset="1" stop-color="#871E31"/>
</linearGradient>
<linearGradient id="paint43_linear" x1="999.893" y1="473" x2="999.893" y2="866.283" gradientUnits="userSpaceOnUse">
<stop stop-color="#481216"/>
<stop offset="0.115764" stop-color="#340505"/>
</linearGradient>
<linearGradient id="paint44_linear" x1="769.63" y1="706.565" x2="745.587" y2="706.565" gradientUnits="userSpaceOnUse">
<stop stop-color="#963D39"/>
<stop offset="1" stop-color="#B5705F"/>
</linearGradient>
<linearGradient id="paint45_linear" x1="1028.96" y1="710" x2="1044.41" y2="710" gradientUnits="userSpaceOnUse">
<stop stop-color="#963D39"/>
<stop offset="1" stop-color="#B5705F"/>
</linearGradient>
<linearGradient id="paint46_linear" x1="891.565" y1="545.13" x2="891.565" y2="917.804" gradientUnits="userSpaceOnUse">
<stop offset="0.687903" stop-color="#B5705F"/>
<stop offset="1" stop-color="#883A3A"/>
</linearGradient>
<linearGradient id="paint47_linear" x1="899.293" y1="859.413" x2="899.293" y2="1024.28" gradientUnits="userSpaceOnUse">
<stop stop-color="#FCCB5A"/>
<stop offset="0.873728" stop-color="#D07039"/>
</linearGradient>
<linearGradient id="paint48_linear" x1="936.217" y1="861.131" x2="936.217" y2="981.348" gradientUnits="userSpaceOnUse">
<stop stop-color="#FCCB5A"/>
<stop offset="0.633582" stop-color="#D07039"/>
</linearGradient>
<linearGradient id="paint49_linear" x1="852.065" y1="861.131" x2="852.065" y2="940.131" gradientUnits="userSpaceOnUse">
<stop stop-color="#F4BA54"/>
<stop offset="1" stop-color="#D07039"/>
</linearGradient>
<linearGradient id="paint50_linear" x1="1107.96" y1="861.13" x2="1063.66" y2="904.66" gradientUnits="userSpaceOnUse">
<stop stop-color="#FCCB5A"/>
<stop offset="1" stop-color="#D07039"/>
</linearGradient>
<linearGradient id="paint51_linear" x1="754.825" y1="624.131" x2="754.825" y2="897.196" gradientUnits="userSpaceOnUse">
<stop offset="0.0967012" stop-color="#340505"/>
<stop offset="0.377454" stop-color="#491317"/>
</linearGradient>
<linearGradient id="paint52_linear" x1="1037.05" y1="626.811" x2="1037.05" y2="902.348" gradientUnits="userSpaceOnUse">
<stop offset="0.165073" stop-color="#340505"/>
<stop offset="0.450341" stop-color="#491317"/>
</linearGradient>
<linearGradient id="paint53_linear" x1="759.724" y1="509.065" x2="855.508" y2="672.914" gradientUnits="userSpaceOnUse">
<stop stop-color="#6F252A"/>
<stop offset="0.392157" stop-color="#491317"/>
<stop offset="0.954691" stop-color="#340505"/>
</linearGradient>
<linearGradient id="paint54_linear" x1="1025.52" y1="509.065" x2="922.478" y2="679.087" gradientUnits="userSpaceOnUse">
<stop stop-color="#6F252A"/>
<stop offset="0.33609" stop-color="#491317"/>
<stop offset="1" stop-color="#340505"/>
</linearGradient>
<linearGradient id="paint55_linear" x1="1543.14" y1="1340.15" x2="1890.17" y2="1748.73" gradientUnits="userSpaceOnUse">
<stop offset="0.00648404" stop-color="#EF4683"/>
<stop offset="0.567258" stop-color="#3E0247"/>
</linearGradient>
<clipPath id="clip0">
<rect width="2422" height="1656" fill="white"/>
</clipPath>
</defs>
</svg>
