<svg width="1013" height="350" viewBox="0 0 1013 350" fill="none" xmlns="http://www.w3.org/2000/svg">
<g opacity="0.4">
<ellipse cx="582.638" cy="178.94" rx="115.638" ry="106.94" fill="url(#paint0_radial)"/>
<ellipse cx="582.641" cy="210.816" rx="81.1709" ry="75.0652" fill="url(#paint1_radial)"/>
</g>
<rect x="502.309" y="273.289" width="98.1505" height="27.8326" rx="13.9163" transform="rotate(-29.134 502.309 273.289)" fill="#491317"/>
<mask id="mask0" mask-type="alpha" maskUnits="userSpaceOnUse" x="502" y="225" width="100" height="73">
<rect x="502.309" y="273.289" width="98.1505" height="27.8326" rx="13.9163" transform="rotate(-29.134 502.309 273.289)" fill="#491317"/>
</mask>
<g mask="url(#mask0)">
<g style="mix-blend-mode:color-dodge">
<rect x="504.669" y="270.222" width="79.8212" height="19.1878" transform="rotate(-28.7975 504.669 270.222)" fill="url(#paint2_linear)" fill-opacity="0.8"/>
</g>
<ellipse cx="519.198" cy="280.162" rx="13.1131" ry="13.6545" transform="rotate(-32.8722 519.198 280.162)" fill="#722D1A"/>
<path d="M566.01 271.682C571.229 255.923 560.68 250.874 554.753 250.32L575.604 240.854L592.361 252.367C591.892 254.712 585.966 260.221 566.01 271.682Z" fill="#491317"/>
</g>
<path d="M519.963 270.146C514.463 270.146 511.521 273.548 511.521 279.484C511.521 285.419 517.661 287.884 519.963 287.798C523.545 287.798 526.615 284.549 526.615 280.251C526.615 277.053 524.568 274.111 519.963 274.111C513.951 274.111 512.605 283.449 519.963 283.449" stroke="#491317" stroke-width="6" stroke-linecap="round"/>
<rect x="630.355" y="301.126" width="98.1505" height="27.8326" rx="13.9163" transform="rotate(-145.033 630.355 301.126)" fill="#491317"/>
<mask id="mask1" mask-type="alpha" maskUnits="userSpaceOnUse" x="549" y="222" width="98" height="80">
<rect x="630.355" y="301.126" width="98.1505" height="27.8326" rx="13.9163" transform="rotate(-145.033 630.355 301.126)" fill="#491317"/>
</mask>
<g mask="url(#mask1)">
<g style="mix-blend-mode:color-dodge">
<rect width="79.8212" height="19.1878" transform="matrix(-0.831862 -0.554982 -0.554982 0.831862 643.076 274.866)" fill="url(#paint3_linear)" fill-opacity="0.8"/>
</g>
<ellipse cx="629.162" cy="282.931" rx="13.1131" ry="13.6545" transform="rotate(-148.771 629.162 282.931)" fill="#722D1A"/>
</g>
<path d="M627.92 274.367C633.42 274.367 636.362 277.77 636.362 283.705C636.362 289.641 630.222 292.105 627.92 292.02C624.338 292.02 621.268 288.771 621.268 284.473C621.268 281.275 623.315 278.333 627.92 278.333C633.932 278.333 635.278 287.671 627.92 287.671" stroke="#491317" stroke-width="5" stroke-linecap="round"/>
<path d="M545.287 194.034C545.969 185.933 550.506 168.144 563.195 161.799C575.885 155.454 579.398 135.959 579.569 127.005C579.569 112.337 573.94 87.3502 588.523 72C580.848 107.561 593.896 109.608 597.733 118.562C601.827 125.299 610.065 151.156 605.153 161.799C600.24 172.442 604.3 179.025 606.943 180.987C610.269 175.444 603.626 165.892 616.154 156.426C621.239 152.583 626.643 154.124 631.504 143.89C629.116 156.256 618.098 172.8 623.829 180.987C630.992 191.22 636.62 223.456 619.479 230.363C625.875 234.968 632.527 228.828 641.993 217.316C644.296 229.852 625.364 258.505 596.71 258.505C573.173 257.738 572.917 251.683 572.15 251.854C563.963 254.668 544.98 259.068 534.541 254.156C524.103 249.244 521.92 239.488 519.703 234.457C515.826 230.352 511.867 225.718 507.139 224.325C506.578 224.215 505.991 224.097 505.376 223.967C505.976 224.034 506.563 224.156 507.139 224.325C517.22 226.295 518.99 225.341 526.866 231.642C531.343 236.631 532.495 242.49 536.588 241.876C522.671 221.818 528.06 200.771 532.495 192.755C535.991 187.809 541.705 175.768 536.588 167.171C543.547 173.721 544.562 181.669 542.856 185.848C542.771 187.894 540.989 194.034 545.287 194.034Z" fill="#FFD167"/>
<path d="M545.287 194.034C545.969 185.933 550.506 168.144 563.195 161.799C575.885 155.454 579.398 135.959 579.569 127.005C579.569 112.337 573.94 87.3502 588.523 72C580.848 107.561 593.896 109.608 597.733 118.562C601.827 125.299 610.065 151.156 605.153 161.799C600.24 172.442 604.3 179.025 606.943 180.987C610.269 175.444 603.626 165.892 616.154 156.426C621.239 152.583 626.643 154.124 631.504 143.89C629.116 156.256 618.098 172.8 623.829 180.987C630.992 191.22 636.62 223.456 619.479 230.363C625.875 234.968 632.527 228.828 641.993 217.316C644.296 229.852 625.364 258.505 596.71 258.505C573.173 257.738 572.917 251.683 572.15 251.854C563.963 254.668 544.98 259.068 534.541 254.156C524.103 249.244 521.92 239.488 519.703 234.457C515.826 230.352 511.867 225.718 507.139 224.325C506.578 224.215 505.991 224.097 505.376 223.967C505.976 224.034 506.563 224.156 507.139 224.325C517.22 226.295 518.99 225.341 526.866 231.642C531.343 236.631 532.495 242.49 536.588 241.876C522.671 221.818 528.06 200.771 532.495 192.755C535.991 187.809 541.705 175.768 536.588 167.171C543.547 173.721 544.562 181.669 542.856 185.848C542.771 187.894 540.989 194.034 545.287 194.034Z" fill="url(#paint4_radial)"/>
<path d="M561.112 214.545C561.505 210.114 564.119 200.384 571.429 196.914C578.739 193.443 580.763 182.78 580.861 177.883C580.861 169.86 580.861 144.782 595.599 137.496C584.664 150.812 583.916 165.385 591.325 173.265C593.683 176.95 598.429 191.092 595.599 196.914C592.769 202.735 595.108 206.336 596.631 207.409C598.546 204.377 594.72 199.153 601.936 193.975C604.866 191.873 618.212 189.576 621.012 183.978C619.637 190.742 603.056 202.931 606.358 207.409C610.484 213.006 611.811 230.358 601.936 234.136C606.358 238.502 616.408 231.337 617.047 230.917C617.342 235.582 606.358 249.808 590.735 249.808C577.176 249.388 577.029 246.077 576.587 246.17C571.871 247.709 560.935 250.116 554.922 247.429C548.909 244.743 547.652 239.406 546.374 236.654C544.141 234.409 541.861 231.875 539.137 231.113C538.813 231.053 538.475 230.988 538.121 230.917C538.467 230.954 538.805 231.02 539.137 231.113C544.944 232.19 545.964 231.669 550.501 235.115C553.08 237.844 553.743 241.048 556.101 240.713C548.084 229.742 551.189 218.23 553.743 213.845C555.757 211.14 553.448 201.615 550.501 196.914C554.51 200.496 560.695 207.782 559.712 210.067C559.663 211.187 558.636 214.545 561.112 214.545Z" fill="#FF6F43"/>
<path d="M561.112 214.545C561.505 210.114 564.119 200.384 571.429 196.914C578.739 193.443 580.763 182.78 580.861 177.883C580.861 169.86 580.861 144.782 595.599 137.496C584.664 150.812 583.916 165.385 591.325 173.265C593.683 176.95 598.429 191.092 595.599 196.914C592.769 202.735 595.108 206.336 596.631 207.409C598.546 204.377 594.72 199.153 601.936 193.975C604.866 191.873 618.212 189.576 621.012 183.978C619.637 190.742 603.056 202.931 606.358 207.409C610.484 213.006 611.811 230.358 601.936 234.136C606.358 238.502 616.408 231.337 617.047 230.917C617.342 235.582 606.358 249.808 590.735 249.808C577.176 249.388 577.029 246.077 576.587 246.17C571.871 247.709 560.935 250.116 554.922 247.429C548.909 244.743 547.652 239.406 546.374 236.654C544.141 234.409 541.861 231.875 539.137 231.113C538.813 231.053 538.475 230.988 538.121 230.917C538.467 230.954 538.805 231.02 539.137 231.113C544.944 232.19 545.964 231.669 550.501 235.115C553.08 237.844 553.743 241.048 556.101 240.713C548.084 229.742 551.189 218.23 553.743 213.845C555.757 211.14 553.448 201.615 550.501 196.914C554.51 200.496 560.695 207.782 559.712 210.067C559.663 211.187 558.636 214.545 561.112 214.545Z" fill="url(#paint5_radial)"/>
<path d="M571.412 228.997C571.583 227.089 572.72 222.9 575.901 221.406C579.082 219.912 579.963 215.321 580.006 213.213C580.006 209.759 580.006 198.962 586.42 195.825C581.661 201.558 581.335 207.832 584.56 211.225C585.586 212.811 587.651 218.9 586.42 221.406C585.188 223.912 586.206 225.463 586.869 225.924C587.702 224.619 586.037 222.37 589.178 220.141C590.453 219.236 596.261 218.247 597.479 215.837C596.881 218.749 589.665 223.997 591.102 225.924C592.898 228.334 593.475 235.804 589.178 237.431C591.102 239.311 595.476 236.226 595.754 236.045C595.882 238.054 591.102 244.178 584.303 244.178C578.403 243.998 578.338 242.572 578.146 242.612C576.094 243.275 571.335 244.311 568.718 243.154C566.101 241.998 565.554 239.7 564.998 238.515C564.026 237.549 563.034 236.458 561.848 236.13C561.708 236.104 561.56 236.076 561.406 236.045C561.557 236.061 561.704 236.09 561.848 236.13C564.376 236.594 564.819 236.369 566.794 237.853C567.916 239.028 568.205 240.407 569.231 240.263C565.742 235.539 567.093 230.583 568.205 228.696C569.081 227.531 568.077 223.43 566.794 221.406C568.538 222.948 571.23 226.085 570.802 227.069C570.781 227.551 570.334 228.997 571.412 228.997Z" fill="#D72F2E"/>
<path d="M571.412 228.997C571.583 227.089 572.72 222.9 575.901 221.406C579.082 219.912 579.963 215.321 580.006 213.213C580.006 209.759 580.006 198.962 586.42 195.825C581.661 201.558 581.335 207.832 584.56 211.225C585.586 212.811 587.651 218.9 586.42 221.406C585.188 223.912 586.206 225.463 586.869 225.924C587.702 224.619 586.037 222.37 589.178 220.141C590.453 219.236 596.261 218.247 597.479 215.837C596.881 218.749 589.665 223.997 591.102 225.924C592.898 228.334 593.475 235.804 589.178 237.431C591.102 239.311 595.476 236.226 595.754 236.045C595.882 238.054 591.102 244.178 584.303 244.178C578.403 243.998 578.338 242.572 578.146 242.612C576.094 243.275 571.335 244.311 568.718 243.154C566.101 241.998 565.554 239.7 564.998 238.515C564.026 237.549 563.034 236.458 561.848 236.13C561.708 236.104 561.56 236.076 561.406 236.045C561.557 236.061 561.704 236.09 561.848 236.13C564.376 236.594 564.819 236.369 566.794 237.853C567.916 239.028 568.205 240.407 569.231 240.263C565.742 235.539 567.093 230.583 568.205 228.696C569.081 227.531 568.077 223.43 566.794 221.406C568.538 222.948 571.23 226.085 570.802 227.069C570.781 227.551 570.334 228.997 571.412 228.997Z" fill="url(#paint6_radial)"/>
<path d="M41.75 205C41.75 212 42.8333 219.167 45 226.5C47.1667 233.667 50.1667 239.417 54 243.75H91.5V270H36.75C17.0833 254.333 7.25 232.667 7.25 205C7.25 177.333 17.75 156.417 38.75 142.25H91.5V168.5H54C45.8333 177 41.75 189.167 41.75 205ZM167.191 212.25H140.441C136.941 216.583 135.191 222 135.191 228.5C135.191 235 137.025 240.083 140.691 243.75H167.191V212.25ZM113.441 142.25H175.441C185.441 148.25 192.025 155.167 195.191 163C198.358 170.667 199.941 181.167 199.941 194.5V232C199.941 245.833 200.275 258.5 200.941 270H172.441L167.941 261C161.441 267 152.275 270 140.441 270H124.691C110.525 260.667 103.441 247.25 103.441 229.75C103.441 212.083 110.691 198.167 125.191 188H148.691C155.191 188 161.275 190 166.941 194V181.5C166.941 175 164.108 170.667 158.441 168.5H113.441V142.25ZM276.943 142.25H294.693L300.943 151C304.443 147.833 307.777 145.583 310.943 144.25C314.277 142.917 319.193 142.25 325.693 142.25H353.443C360.777 151.583 365.777 160.917 368.443 170.25C371.11 179.583 372.443 191.25 372.443 205.25V270H339.193V202.75C339.193 187.417 336.86 176 332.193 168.5H308.193C311.86 175.667 313.693 185.417 313.693 197.75V270H280.443V202.75C280.443 186.917 278.277 175.5 273.943 168.5H254.693V270H221.443V142.25H247.443L251.943 151.25C255.61 147.917 259.027 145.583 262.193 144.25C265.527 142.917 270.443 142.25 276.943 142.25ZM392.83 142.25H419.58L423.33 151.25C426.997 147.917 430.413 145.583 433.58 144.25C436.913 142.917 441.83 142.25 448.33 142.25H470.83C477.83 149.083 483.33 157.917 487.33 168.75C491.33 179.583 493.33 191.5 493.33 204.5C493.33 232.333 484.997 254.167 468.33 270H447.08C438.247 270 431.247 267.667 426.08 263V307.5H392.83V142.25ZM426.08 243.75H450.08C456.247 233.25 459.33 220.5 459.33 205.5C459.33 190.5 456.163 178.167 449.83 168.5H426.08V243.75Z" fill="black"/>
<path d="M771.5 270H746.25L741.75 261C738.083 264.333 734.583 266.667 731.25 268C728.083 269.333 723.25 270 716.75 270H695C687.667 263 681.833 253.833 677.5 242.5C673.333 231.167 671.25 218.5 671.25 204.5C671.25 190.333 673.333 178.333 677.5 168.5C681.833 158.667 687.917 149.917 695.75 142.25H717.25C726.083 142.25 733.083 144.583 738.25 149.25V95H771.5V270ZM738.25 168.5H714.25C708.083 179 705 191.917 705 207.25C705 222.417 708 234.583 714 243.75H738.25V168.5ZM850.664 168.5H831.914C829.414 171.5 827.331 175.667 825.664 181C824.164 186.333 823.414 191.5 823.414 196.5H859.164C859.497 191.5 858.831 186.333 857.164 181C855.497 175.5 853.331 171.333 850.664 168.5ZM884.664 243.75V270H821.164C809.497 262.167 801.247 252.5 796.414 241C791.747 229.333 789.414 217.583 789.414 205.75C789.414 178.417 799.747 157.25 820.414 142.25H860.914C872.081 150.417 879.664 159.083 883.664 168.25C887.664 177.417 889.664 186.667 889.664 196C889.664 205.333 888.914 213.333 887.414 220H825.164C825.664 223.833 827.081 228.25 829.414 233.25C831.914 238.083 834.581 241.583 837.414 243.75H884.664ZM976.719 270H930.469C922.469 263.5 916.135 254.917 911.469 244.25C906.802 233.583 904.469 221.75 904.469 208.75V142.25H937.719V207.75C937.719 222.417 940.469 234.417 945.969 243.75H961.219C966.719 233.917 969.469 222 969.469 208V142.25H1002.72V207.5C1002.72 220.667 1000.39 232.75 995.719 243.75C991.052 254.75 984.719 263.5 976.719 270Z" fill="black"/>
<defs>
<radialGradient id="paint0_radial" cx="0" cy="0" r="1" gradientUnits="userSpaceOnUse" gradientTransform="translate(582.638 178.94) rotate(93.0513) scale(113.316 122.483)">
<stop offset="0.416667" stop-color="#D72F2E"/>
<stop offset="1" stop-color="#D72F2E" stop-opacity="0"/>
</radialGradient>
<radialGradient id="paint1_radial" cx="0" cy="0" r="1" gradientUnits="userSpaceOnUse" gradientTransform="translate(582.641 210.816) rotate(89.9007) scale(99.4495 107.539)">
<stop offset="0.32662" stop-color="#FF6F43"/>
<stop offset="0.77875" stop-color="#FF6F43" stop-opacity="0"/>
</radialGradient>
<linearGradient id="paint2_linear" x1="544.58" y1="270.222" x2="544.58" y2="289.409" gradientUnits="userSpaceOnUse">
<stop offset="0.451497" stop-color="#F4DA9C"/>
<stop offset="1" stop-color="#F4DA9C" stop-opacity="0"/>
</linearGradient>
<linearGradient id="paint3_linear" x1="39.9106" y1="0" x2="39.9106" y2="19.1878" gradientUnits="userSpaceOnUse">
<stop offset="0.386023" stop-color="#F4DA9C"/>
<stop offset="1" stop-color="#F4DA9C" stop-opacity="0"/>
</linearGradient>
<radialGradient id="paint4_radial" cx="0" cy="0" r="1" gradientUnits="userSpaceOnUse" gradientTransform="translate(573.732 174.591) rotate(90.0264) scale(102.591 75.2528)">
<stop offset="0.466315" stop-color="#FFD26A"/>
<stop offset="0.935131" stop-color="#FF6F43"/>
</radialGradient>
<radialGradient id="paint5_radial" cx="0" cy="0" r="1" gradientUnits="userSpaceOnUse" gradientTransform="translate(579.567 210.665) rotate(90) scale(73.1695 54.0021)">
<stop offset="0.321369" stop-color="#FF6F43"/>
<stop offset="1" stop-color="#D72F2E"/>
</radialGradient>
<radialGradient id="paint6_radial" cx="0" cy="0" r="1" gradientUnits="userSpaceOnUse" gradientTransform="translate(579.571 195.825) rotate(90.1516) scale(48.3534 36.0732)">
<stop stop-color="#FF6F43"/>
<stop offset="0.774481" stop-color="#D72F2E"/>
</radialGradient>
</defs>
</svg>
