<svg width="1292" height="533" viewBox="0 0 1292 533" fill="none" xmlns="http://www.w3.org/2000/svg">
<path opacity="0.5" d="M911.094 18.1888C916.117 18.1888 920.189 14.1171 920.189 9.09442C920.189 4.07173 916.117 0 911.094 0C906.072 0 902 4.07173 902 9.09442C902 14.1171 906.072 18.1888 911.094 18.1888Z" fill="white"/>
<path d="M1124.47 504.987C1127.96 504.987 1130.8 502.153 1130.8 498.656C1130.8 495.159 1127.96 492.324 1124.47 492.324C1120.97 492.324 1118.14 495.159 1118.14 498.656C1118.14 502.153 1120.97 504.987 1124.47 504.987Z" fill="white"/>
<path d="M944.315 174.37C946.074 174.37 947.5 172.944 947.5 171.185C947.5 169.426 946.074 168 944.315 168C942.556 168 941.13 169.426 941.13 171.185C941.13 172.944 942.556 174.37 944.315 174.37Z" fill="white"/>
<g opacity="0.5">
<path opacity="0.5" d="M360.514 526.279C361.074 522.827 358.73 519.575 355.278 519.015C351.827 518.454 348.574 520.798 348.014 524.25C347.454 527.702 349.798 530.954 353.25 531.514C356.702 532.075 359.954 529.73 360.514 526.279Z" fill="white"/>
</g>
<path d="M1223.02 350.467L1215.96 340.49C1215.69 340.107 1215.23 339.915 1214.77 340.03L1202.8 342.371C1201.53 342.601 1200.84 340.989 1201.88 340.222L1211.86 333.161C1212.24 332.893 1212.43 332.432 1212.36 331.972L1210.13 320.268C1209.9 319.002 1211.51 318.311 1212.24 319.347L1219.19 329.017C1219.45 329.401 1219.92 329.593 1220.38 329.477L1232.35 327.137C1233.61 326.906 1234.31 328.518 1233.27 329.286L1223.29 336.346C1222.91 336.615 1222.72 337.075 1222.83 337.536L1225.17 349.508C1225.4 350.813 1223.75 351.503 1223.02 350.467Z" fill="white"/>
<path opacity="0.3" d="M1281.45 49.0518L1280.53 42.9889C1280.49 42.7586 1280.34 42.5668 1280.11 42.49L1274.2 40.84C1273.58 40.6865 1273.62 39.7656 1274.28 39.6888L1280.34 38.7679C1280.57 38.7295 1280.76 38.576 1280.84 38.3458L1282.49 32.5898C1282.68 31.9759 1283.56 32.0142 1283.64 32.6666L1284.56 38.576C1284.6 38.8062 1284.75 38.9981 1284.98 39.0749L1290.89 40.7249C1291.5 40.8784 1291.47 41.7993 1290.81 41.8761L1284.75 42.797C1284.52 42.8354 1284.33 42.9889 1284.25 43.2191L1282.6 49.1285C1282.41 49.7425 1281.53 49.7041 1281.45 49.0518Z" fill="white"/>
<path d="M557.087 406.789L553.057 407.172C552.904 407.172 552.789 407.288 552.712 407.441L551.407 411.278C551.254 411.662 550.678 411.624 550.64 411.202L550.256 407.172C550.256 407.019 550.141 406.904 549.988 406.827L546.265 405.522C545.882 405.369 545.92 404.793 546.342 404.755L550.256 404.371C550.41 404.371 550.525 404.256 550.601 404.103L551.906 400.265C552.06 399.882 552.635 399.92 552.674 400.342L553.057 404.371C553.057 404.525 553.172 404.64 553.326 404.717L557.163 406.021C557.585 406.175 557.509 406.75 557.087 406.789Z" fill="white"/>
<path d="M902.143 196.97L898.69 201.767C898.575 201.959 898.536 202.189 898.651 202.381L901.606 207.485C901.913 208.022 901.261 208.597 900.762 208.252L895.965 204.799C895.773 204.683 895.543 204.645 895.351 204.76L890.363 207.638C889.826 207.945 889.25 207.293 889.595 206.794L892.934 202.074C893.049 201.882 893.087 201.652 892.972 201.46L890.017 196.356C889.71 195.819 890.363 195.244 890.862 195.589L895.658 199.043C895.85 199.158 896.08 199.196 896.272 199.081L901.376 196.126C901.951 195.819 902.527 196.472 902.143 196.97Z" fill="white"/>
<path d="M993.521 256.504C1001.45 256.504 1007.87 250.078 1007.87 242.152C1007.87 234.226 1001.45 227.801 993.521 227.801C985.595 227.801 979.169 234.226 979.169 242.152C979.169 250.078 985.595 256.504 993.521 256.504Z" fill="white"/>
<path d="M9.71067 492.421C14.5214 492.421 18.4213 488.521 18.4213 483.711C18.4213 478.9 14.5214 475 9.71067 475C4.89991 475 1 478.9 1 483.711C1 488.521 4.89991 492.421 9.71067 492.421Z" fill="white"/>
<path opacity="0.3" d="M9.58511 80.5559C14.6078 80.5559 18.6795 76.4842 18.6795 71.4615C18.6795 66.4389 14.6078 62.3672 9.58511 62.3672C4.56243 62.3672 0.490723 66.4389 0.490723 71.4615C0.490723 76.4842 4.56243 80.5559 9.58511 80.5559Z" fill="white"/>
<path opacity="0.3" d="M368.722 16.082L359.896 24.831C359.551 25.1764 359.436 25.6752 359.628 26.0973L364.002 37.7243C364.463 38.9523 362.928 39.9116 362.007 38.9907L353.258 30.1649C352.912 29.8195 352.414 29.7044 351.991 29.8963L340.633 34.1173C339.405 34.5778 338.446 33.0428 339.367 32.1219L347.924 23.5264C348.269 23.181 348.346 22.6822 348.193 22.2601L343.818 10.6331C343.358 9.40513 344.892 8.4458 345.813 9.36675L354.562 18.1925C354.908 18.5379 355.407 18.653 355.829 18.4611L367.456 14.0866C368.684 13.6261 369.643 15.1611 368.722 16.082Z" fill="white"/>
</svg>
